SplineFontDB: 3.0
FontName: ManifontGroteskBook
FullName: Manifont Grotesk Book
FamilyName: Manifont Grotesk Book
Weight: Book
Copyright: Copyright (c) 2015 by interstices.io. All rights reserved.
Version: 001.001
ItalicAngle: 0
UnderlinePosition: -100
UnderlineWidth: 50
Ascent: 750
Descent: 250
InvalidEm: 0
sfntRevision: 0x00010000
LayerCount: 2
Layer: 0 0 "Back" 1
Layer: 1 0 "Fore" 0
XUID: [1021 220 1612488618 11757377]
StyleMap: 0x0040
FSType: 4
OS2Version: 4
OS2_WeightWidthSlopeOnly: 0
OS2_UseTypoMetrics: 1
CreationTime: 1251911182
ModificationTime: 1592382566
PfmFamily: 81
TTFWeight: 400
TTFWidth: 5
LineGap: 9
VLineGap: 0
Panose: 0 0 0 0 0 0 0 0 0 0
OS2TypoAscent: 750
OS2TypoAOffset: 0
OS2TypoDescent: -250
OS2TypoDOffset: 0
OS2TypoLinegap: 0
OS2WinAscent: 1035
OS2WinAOffset: 0
OS2WinDescent: 342
OS2WinDOffset: 0
HheadAscent: 750
HheadAOffset: 0
HheadDescent: -250
HheadDOffset: 0
OS2SubXSize: 700
OS2SubYSize: 650
OS2SubXOff: 0
OS2SubYOff: 140
OS2SupXSize: 700
OS2SupYSize: 650
OS2SupXOff: 0
OS2SupYOff: 477
OS2StrikeYSize: 50
OS2StrikeYPos: 250
OS2CapHeight: 720
OS2XHeight: 520
OS2Vendor: 'pyrs'
OS2CodePages: 00000007.00000000
OS2UnicodeRanges: 8000020f.0000000a.00000000.00000000
Lookup: 4 0 1 "'liga' Standard Ligatures lookup 0" { "'liga' Standard Ligatures lookup 0 subtable"  } ['    ' ('DFLT' <'dflt' > 'cyrl' <'dflt' > 'latn' <'dflt' > ) 'liga' ('DFLT' <'dflt' > 'cyrl' <'dflt' > 'latn' <'dflt' > ) ]
Lookup: 258 0 0 "'kern' Horizontal Kerning in Latin lookup 0" { "'kern' Horizontal Kerning in Latin lookup 0 per glyph data 0"  "'kern' Horizontal Kerning in Latin lookup 0 per glyph data 1"  } ['kern' ('latn' <'dflt' > ) ]
MarkAttachClasses: 1
DEI: 91125

StartChar: .notdef
Encoding: 65536 -1 0
Width: 500
Flags: MW
HStem: 0 50<100 400 100 450> 450 50<100 400 100 100>
VStem: 50 50<50 50 50 450> 400 50<50 450 450 450>
LayerCount: 2
Fore
SplineSet
50 0 m 1
 50 500 l 1
 450 500 l 1
 450 0 l 1
 50 0 l 1
100 50 m 1
 400 50 l 1
 400 450 l 1
 100 450 l 1
 100 50 l 1
EndSplineSet
EndChar

StartChar: uni0000
Encoding: 0 -1 1
AltUni2: 000000.ffffffff.0
Width: 538
GlyphClass: 3
Flags: MW
HStem: 0 21G<386 476 386 386> 451 69<20 94 20 94 184 386> 700.245 20G
VStem: 94 90<152 451 152 451 520 700> 375.9 109.422 386 90<0 451 451 451>
LayerCount: 2
Fore
SplineSet
476 520 m 1xf4
 476 0 l 1
 386 0 l 1
 386 451 l 1
 184 451 l 1
 184 152 l 1
 191.75390625 86.5361328125 l 1
 235.118164062 64.5673828125 l 1
 275.420898438 70.60546875 l 1
 285.801757812 -6.9580078125 l 1
 217.001953125 -16.5859375 l 1
 114.528320312 26.4404296875 l 1
 94 152 l 1
 94 451 l 1
 20 451 l 1
 20 520 l 1
 94 520 l 1
 94 700 l 1
 184 700 l 1
 184 520 l 1
 476 520 l 1xf4
453.432617188 600 m 1
 408.107421875 599.754882812 l 1
 375.900390625 634.799804688 l 1
 375.677734375 684.607421875 l 1
 407.567382812 720 l 1
 452.892578125 720.245117188 l 1
 485.099609375 685.200195312 l 1
 485.322265625 635.392578125 l 1xf8
 453.432617188 600 l 1
EndSplineSet
Ligature2: "'liga' Standard Ligatures lookup 0 subtable" t i
EndChar

StartChar: exclam
Encoding: 33 33 3
Width: 239
GlyphClass: 2
Flags: MW
HStem: 0 100 700 20G
VStem: 81 77
LayerCount: 2
Fore
SplineSet
143.390625 -11.4501953125 m 1
 97.16015625 -11.44921875 l 1
 64.3076171875 24.2958984375 l 1
 64.330078125 75.099609375 l 1
 96.609375 111.450195312 l 1
 142.83984375 111.44921875 l 1
 176 75 l 1
 175.919921875 24.150390625 l 1
 143.390625 -11.4501953125 l 1
91.380859375 177.884765625 m 1
 69.4287109375 727.202148438 l 1
 170.380859375 727.202148438 l 1
 148.44921875 177.884765625 l 1
 91.380859375 177.884765625 l 1
EndSplineSet
EndChar

StartChar: quotedbl
Encoding: 34 34 4
Width: 399
GlyphClass: 2
Flags: MW
HStem: 482 238
LayerCount: 2
Fore
SplineSet
146.969726562 479.620117188 m 1
 89.849609375 479.620117188 l 1
 67.41015625 722.379882812 l 1
 168.389648438 722.379882812 l 1
 146.969726562 479.620117188 l 1
310.169921875 479.620117188 m 1
 253.049804688 479.620117188 l 1
 230.610351562 722.379882812 l 1
 331.58984375 722.379882812 l 1
 310.169921875 479.620117188 l 1
EndSplineSet
EndChar

StartChar: numbersign
Encoding: 35 35 5
Width: 556
GlyphClass: 2
Flags: MW
HStem: 0 21G 205 75<0 98 0 120 209 278 0 188 389 492> 445 75<64 167 64 189 278 347 64 257 458 556> 700 20G
LayerCount: 2
Fore
SplineSet
307 -8 m 1
 225 15 l 1
 278 205 l 1
 188 205 l 1
 127 -8 l 1
 44 15 l 1
 98 205 l 1
 0 205 l 1
 0 280 l 1
 120 280 l 1
 167 445 l 1
 64 445 l 1
 64 520 l 1
 189 520 l 1
 249 728.090820312 l 1
 332 704.090820312 l 1
 278 520 l 1
 368 520 l 1
 429 728.090820312 l 1
 512 704 l 1
 458 520 l 1
 556 520 l 1
 556 445 l 1
 437 445 l 1
 389 280 l 1
 492 280 l 1
 492 205 l 1
 368 205 l 1
 307 -8 l 1
257 445 m 1
 209 280 l 1
 300 280 l 1
 347 445 l 1
 257 445 l 1
EndSplineSet
EndChar

StartChar: dollar
Encoding: 36 36 6
Width: 556
GlyphClass: 2
Flags: MW
HStem: -100 21G 800 20G<235.946 310.905 310.905 310.905>
VStem: 40 94 67 92 236 75 418 97
LayerCount: 2
Fore
SplineSet
235.946289062 820 m 1xec
 310.905273438 820 l 1
 310.905273438 732.033203125 l 1
 441.193359375 673.404296875 l 1
 486 534 l 1
 397.038085938 506.987304688 l 1
 374.036132812 607.06640625 l 1
 311.072265625 650.986328125 l 1
 311.072265625 412.015625 l 1
 460.998046875 339.62109375 l 1
 519.500976562 195.76171875 l 1
 460.934570312 40.87109375 l 1
 311.072265625 -14.0625 l 1
 311.072265625 -100.028320312 l 1
 236.112304688 -100.028320312 l 1
 236.112304688 -13.060546875 l 1
 89.1328125 58.408203125 l 1
 46 203 l 1
 134.053710938 227.993164062 l 1
 162.295898438 117.890625 l 1
 236.112304688 66.9873046875 l 1
 236.112304688 339.974609375 l 1
 92.279296875 425.521484375 l 1
 62.7041015625 534.42578125 l 1
 114.859375 678.608398438 l 1
 236.112304688 732.033203125 l 1
 235.946289062 820 l 1xec
235.946289062 435.029296875 m 1
 235.946289062 650.986328125 l 1
 177.90234375 619.729492188 l 1
 156.172851562 540.548828125 l 1
 176.052734375 477.860351562 l 1
 235.946289062 435.029296875 l 1
311.072265625 321.046875 m 1
 311.072265625 65.9833984375 l 1
 390.110351562 97.861328125 l 1
 420.58984375 190.658203125 l 1
 399.157226562 264.4296875 l 1
 334.860351562 312.108398438 l 1
 311.072265625 321.046875 l 1
EndSplineSet
EndChar

StartChar: percent
Encoding: 37 37 7
Width: 1000
GlyphClass: 2
Flags: MW
HStem: -8 21G<357 357> 705 20G<310.001 310.001>
LayerCount: 2
Fore
SplineSet
310.000976562 725 m 1
 415.280273438 681.108398438 l 1
 456.083984375 559.98828125 l 1
 415.280273438 438.869140625 l 1
 310.000976562 394.977539062 l 1
 204.793945312 438.869140625 l 1
 164 559.98828125 l 1
 204.763671875 681.108398438 l 1
 310.000976562 725 l 1
310.000976562 470.020507812 m 1
 357.653320312 491.032226562 l 1
 379.040039062 560.072265625 l 1
 357.653320312 629.111328125 l 1
 310.000976562 650.124023438 l 1
 263.922851562 629.111328125 l 1
 241.043945312 560.072265625 l 1
 262.421875 491.032226562 l 1
 310.000976562 470.020507812 l 1
357 -8 m 1
 289 28 l 1
 662 728.090820312 l 1
 732 691 l 1
 357 -8 l 1
710.063476562 325.020507812 m 1
 815.301757812 281.127929688 l 1
 856.064453125 160.008789062 l 1
 815.301757812 38.8896484375 l 1
 710.063476562 -5.0029296875 l 1
 604.826171875 38.8896484375 l 1
 564.063476562 160.008789062 l 1
 604.794921875 281.127929688 l 1
 710.063476562 325.020507812 l 1
710.063476562 69.95703125 m 1
 757.643554688 90.96875 l 1
 779.01953125 160.008789062 l 1
 757.643554688 229.048828125 l 1
 710.063476562 250.060546875 l 1
 663.995117188 229.048828125 l 1
 641.190429688 160.008789062 l 1
 662.495117188 90.96875 l 1
 710.063476562 69.95703125 l 1
EndSplineSet
EndChar

StartChar: ampersand
Encoding: 38 38 8
Width: 633
GlyphClass: 2
Flags: MW
HStem: -15 80 0 21G 655 80
VStem: 40 95 81 91 373 91 455 89
LayerCount: 2
Fore
SplineSet
440.896484375 58.861328125 m 1x22
 361.029296875 -2.484375 l 1
 257.291015625 -22.5986328125 l 1
 89.1826171875 34.3837890625 l 1
 35.05859375 170.20703125 l 1
 73.4365234375 283.670898438 l 1
 163.904296875 358.951171875 l 1
 118.427734375 411.576171875 l 1
 76.8173828125 553.778320312 l 1
 136.107421875 695.979492188 l 1
 275.831054688 742.500976562 l 1
 427.081054688 682.711914062 l 1
 467.53125 563.983398438 l 1
 429.85546875 452.909179688 l 1
 299.065429688 345.943359375 l 1
 299.065429688 345.943359375 l 1
 431.057617188 199.942382812 l 1
 452.690429688 269.833984375 l 1
 455.071289062 346.943359375 l 1
 544 342 l 1
 539.100585938 230.66796875 l 1
 495.01171875 129.90234375 l 1
 567 50 l 1
 502 -8 l 1
 440.896484375 58.861328125 l 1x22
250.0625 58.9638671875 m 1
 328.338867188 73.982421875 l 1
 383.947265625 119.896484375 l 1
 220.9375 297.916015625 l 1
 155.90234375 239.913085938 l 1
 131.9296875 170.20703125 l 1
 166.916015625 88.14453125 l 1
 250.0625 58.9638671875 l 1
343.4453125 481.094726562 m 1
 374.48828125 563.813476562 l 1
 351.418945312 629.088867188 l 1
 275.662109375 660.68359375 l 1
 195.068359375 626.28125 l 1
 169.521484375 553.607421875 l 1
 187.66796875 478.92578125 l 1
 245.868164062 405.810546875 l 1
 245.868164062 405.810546875 l 1
 343.4453125 481.094726562 l 1
EndSplineSet
EndChar

StartChar: quotesingle
Encoding: 39 39 9
Width: 239
GlyphClass: 2
Flags: MW
HStem: 482 21G 700 20G
LayerCount: 2
Fore
SplineSet
120.49609375 620.443359375 m 1
 98.220703125 620.443359375 l 1
 68.3603515625 650.3125 l 1
 68.3603515625 692.55859375 l 1
 98.2255859375 722.41796875 l 1
 98.2255859375 722.419921875 l 1
 140.473632812 722.419921875 l 1
 170.333984375 692.5546875 l 1
 170.333984375 650.30859375 l 1
 170.333984375 620.4453125 l 1
 149.551757812 530.038085938 l 1
 90 478 l 1
 62.322265625 514.389648438 l 1
 104.805664062 548.665039062 l 1
 120.49609375 620.443359375 l 1
EndSplineSet
EndChar

StartChar: parenleft
Encoding: 40 40 10
Width: 311
GlyphClass: 2
Flags: MW
HStem: -100 21G 800 20G
VStem: 50 95
LayerCount: 2
Fore
SplineSet
224.30859375 829.200195312 m 1
 274.26953125 800.640625 l 1
 177.436523438 606.458007812 l 1
 139.685546875 359.985351562 l 1
 177.436523438 113.548828125 l 1
 274.26953125 -80.6396484375 l 1
 224.30859375 -109.228515625 l 1
 93.3662109375 108.15625 l 1
 42.73046875 359.985351562 l 1
 93.3662109375 611.875 l 1
 224.30859375 829.200195312 l 1
EndSplineSet
EndChar

StartChar: parenright
Encoding: 41 41 11
Width: 311
GlyphClass: 2
Flags: MW
HStem: -100 21G 800 20G
VStem: 166 95
LayerCount: 2
Fore
SplineSet
81.755859375 -109.228515625 m 1
 30.7197265625 -82.6796875 l 1
 128.596679688 113.513671875 l 1
 166.380859375 359.985351562 l 1
 128.596679688 606.458007812 l 1
 30.7197265625 802.680664062 l 1
 81.755859375 829.200195312 l 1
 212.731445312 611.815429688 l 1
 263.334960938 359.985351562 l 1
 212.731445312 108.15625 l 1
 81.755859375 -109.228515625 l 1
EndSplineSet
EndChar

StartChar: asterisk
Encoding: 42 42 12
Width: 417
GlyphClass: 2
Flags: MW
HStem: 423 21G 715 20G
LayerCount: 2
Fore
SplineSet
250.830078125 738.120117188 m 1
 238.58984375 617.759765625 l 1
 349.76953125 664.6796875 l 1
 375.26953125 585.120117188 l 1
 256.950195312 559.620117188 l 1
 336.509765625 468.83984375 l 1
 269.190429688 419.879882812 l 1
 207.990234375 523.919921875 l 1
 144.75 420.900390625 l 1
 77.4296875 469.860351562 l 1
 156.990234375 559.620117188 l 1
 41.73046875 587.16015625 l 1
 67.23046875 666.719726562 l 1
 177.389648438 617.759765625 l 1
 167.190429688 738.120117188 l 1
 250.830078125 738.120117188 l 1
EndSplineSet
EndChar

StartChar: plus
Encoding: 43 43 13
Width: 556
GlyphClass: 2
Flags: MW
HStem: 114 21G 325 75 590 20G
VStem: 240 75
LayerCount: 2
Fore
SplineSet
315.740234375 324.259765625 m 1
 315.740234375 109.040039062 l 1
 239.240234375 109.040039062 l 1
 239.240234375 324.259765625 l 1
 45.4404296875 324.259765625 l 1
 45.4404296875 400.759765625 l 1
 239.240234375 400.759765625 l 1
 239.240234375 614.959960938 l 1
 315.740234375 614.959960938 l 1
 315.740234375 400.759765625 l 1
 510.559570312 400.759765625 l 1
 510.559570312 324.259765625 l 1
 315.740234375 324.259765625 l 1
EndSplineSet
EndChar

StartChar: comma
Encoding: 44 44 14
Width: 246
GlyphClass: 2
Flags: MW
HStem: -142 21G<96 96> 0 21G 80 20G
VStem: 76 100 127 49
LayerCount: 2
Fore
SplineSet
127.115234375 0.4453125 m 1xe0
 104.83984375 0.4453125 l 1
 74.9794921875 30.314453125 l 1
 74.9794921875 72.560546875 l 1
 104.844726562 102.421875 l 1
 147.092773438 102.421875 l 1
 176.953125 72.556640625 l 1
 176.953125 30.310546875 l 1
 176.953125 0.447265625 l 1
 156.170898438 -89.9599609375 l 1
 96 -142 l 1
 68.94140625 -105.608398438 l 1
 111.424804688 -71.3330078125 l 1
 127.115234375 0.4453125 l 1xe0
EndSplineSet
EndChar

StartChar: hyphen
Encoding: 45 45 15
Width: 370
GlyphClass: 2
Flags: MW
HStem: 217 86
LayerCount: 2
Fore
SplineSet
322.700195312 216.139648438 m 1
 47.2998046875 216.139648438 l 1
 47.2998046875 303.860351562 l 1
 322.700195312 303.860351562 l 1
 322.700195312 216.139648438 l 1
EndSplineSet
EndChar

StartChar: period
Encoding: 46 46 16
Width: 239
GlyphClass: 2
Flags: MW
HStem: 0 100
VStem: 70 91
LayerCount: 2
Fore
SplineSet
139.140625 -11.4501953125 m 1
 92.91015625 -11.44921875 l 1
 60.0576171875 24.2958984375 l 1
 60.080078125 75.099609375 l 1
 92.359375 111.450195312 l 1
 138.58984375 111.44921875 l 1
 171.75 75 l 1
 171.669921875 24.150390625 l 1
 139.140625 -11.4501953125 l 1
EndSplineSet
EndChar

StartChar: slash
Encoding: 47 47 17
Width: 336
GlyphClass: 2
Flags: MW
HStem: -100 21G<89 89> 800 20G<246 246>
LayerCount: 2
Fore
SplineSet
89 -100 m 1
 6 -77 l 1
 246 820 l 1
 329 797 l 1
 89 -100 l 1
EndSplineSet
EndChar

StartChar: zero
Encoding: 48 48 18
Width: 556
GlyphClass: 2
Flags: MW
HStem: -15 75 660 75
VStem: 45 90 421 90
LayerCount: 2
Fore
SplineSet
278.05078125 742.5 m 1
 461.553710938 634.241210938 l 1
 515.76171875 359.950195312 l 1
 461.553710938 85.7021484375 l 1
 278.05078125 -22.513671875 l 1
 94.5791015625 85.7353515625 l 1
 40.3388671875 359.950195312 l 1
 94.5791015625 634.241210938 l 1
 278.05078125 742.5 l 1
353.744140625 636.444335938 m 1
 278.135742188 665.999023438 l 1
 163.521484375 576.875976562 l 1
 132.276367188 359.993164062 l 1
 153.708984375 168.25 l 1
 353.744140625 636.444335938 l 1
201.591796875 83.541015625 m 1
 277.96484375 53.9873046875 l 1
 392.643554688 143.109375 l 1
 423.82421875 359.993164062 l 1
 400.520507812 552.755859375 l 1
 201.591796875 83.541015625 l 1
EndSplineSet
EndChar

StartChar: one
Encoding: 49 49 19
Width: 512
GlyphClass: 2
Flags: MW
HStem: 0 21G 700 20G<253.857 327.983 327.983 327.983>
VStem: 233 95
LayerCount: 2
Fore
SplineSet
327.983398438 -0.080078125 m 1
 232.845703125 -0.080078125 l 1
 232.845703125 554.905273438 l 1
 169.02734375 481.029296875 l 1
 100 460 l 1
 67 534.977539062 l 1
 193.384765625 600.47265625 l 1
 253.857421875 720 l 1
 327.983398438 720 l 1
 327.983398438 -0.080078125 l 1
EndSplineSet
EndChar

StartChar: two
Encoding: 50 50 20
Width: 556
GlyphClass: 2
Flags: MW
HStem: 0 85 655 80
VStem: 50 90 405 90
LayerCount: 2
Fore
SplineSet
495.698242188 -0.35546875 m 1
 42 0 l 1
 42 75 l 1
 100.022460938 186.725585938 l 1
 269.6484375 328.426757812 l 1
 368.41796875 423.62109375 l 1
 407.825195312 525.134765625 l 1
 373.646484375 622.013671875 l 1
 275.233398438 660.788085938 l 1
 173.47265625 616.434570312 l 1
 137.540039062 504.723632812 l 1
 53.8388671875 536.310546875 l 1
 112.908203125 680.65625 l 1
 277.274414062 742.349609375 l 1
 438.921875 685.112304688 l 1
 499.592773438 523.008789062 l 1
 441.079101562 370.422851562 l 1
 308.963867188 248.352539062 l 1
 204.21484375 167.002929688 l 1
 147.705078125 85.3095703125 l 1
 495.698242188 85.3095703125 l 1
 495.698242188 -0.35546875 l 1
EndSplineSet
EndChar

StartChar: three
Encoding: 51 51 21
Width: 556
GlyphClass: 2
Flags: MW
HStem: -15 80 356 75 658 77
VStem: 40 94 230 249 384 95 414 92
LayerCount: 2
Fore
SplineSet
272.026367188 432.497070312 m 1xf0
 356.734375 467.31640625 l 1
 386.331054688 551.821289062 l 1
 355.586914062 632.787109375 l 1
 272.026367188 664 l 1
 177.983398438 623.057617188 l 1
 146.579101562 526.305664062 l 1
 63.8095703125 559.919921875 l 1
 120.04296875 687.950195312 l 1
 269.899414062 742.5 l 1
 422.041992188 695.595703125 l 1
 483.032226562 553.77734375 l 1
 452.106445312 456.514648438 l 1
 372.893554688 399.752929688 l 1
 474.303710938 328.993164062 l 1
 510.587890625 203.885742188 l 1
 444.802734375 40.9658203125 l 1
 271.85546875 -22.513671875 l 1
 103.416015625 34.0771484375 l 1
 44.4296875 164.16015625 l 1
 131.184570312 198.783203125 l 1
 169.052734375 99.4462890625 l 1
 271.85546875 59.046875 l 1
 379.102539062 102.032226562 l 1
 416.694335938 206.947265625 l 1
 379.102539062 312.408203125 l 1
 270.053710938 355.868164062 l 1
 228.991210938 355.868164062 l 1
 228.991210938 432.326171875 l 1
 272.026367188 432.326171875 l 1
 272.026367188 432.497070312 l 1xf0
EndSplineSet
EndChar

StartChar: four
Encoding: 52 52 22
Width: 556
GlyphClass: 2
Flags: MW
HStem: 0 21G<329 424 329 329> 171 85<121 329 30 30 424 521> 700 20G<345 424 424 424>
VStem: 329 95<0 171 256 565 565 565>
LayerCount: 2
Fore
SplineSet
424 0 m 1
 329 0 l 1
 329 171 l 1
 30 171 l 1
 30 256 l 1
 345 720 l 1
 424 720 l 1
 424 256 l 1
 521 256 l 1
 521 171 l 1
 424 171 l 1
 424 0 l 1
121 256 m 1
 329 256 l 1
 329 565 l 1
 121 256 l 1
EndSplineSet
EndChar

StartChar: five
Encoding: 53 53 23
Width: 556
GlyphClass: 2
Flags: MW
HStem: -15 80 395 80 635 85
VStem: 412 97
LayerCount: 2
Fore
SplineSet
123.9296875 191.796875 m 1
 167.368164062 96.0322265625 l 1
 263.749023438 59.205078125 l 1
 375.866210938 110.702148438 l 1
 414.626953125 232.620117188 l 1
 375.354492188 350.583007812 l 1
 262.729492188 395.829101562 l 1
 185.848632812 377.670898438 l 1
 130.052734375 327.44921875 l 1
 49.34375 337.655273438 l 1
 118.764648438 720.349609375 l 1
 475.0078125 720.349609375 l 1
 475.0078125 634.599609375 l 1
 189.311523438 634.599609375 l 1
 150.337890625 430.548828125 l 1
 216.337890625 468.145507812 l 1
 287.16015625 477.44921875 l 1
 452.569335938 405.575195312 l 1
 513.538085938 232.705078125 l 1
 447.891601562 52.052734375 l 1
 263.665039062 -22.271484375 l 1
 103.61328125 32.5341796875 l 1
 44.400390625 156.149414062 l 1
 123.9296875 191.796875 l 1
EndSplineSet
EndChar

StartChar: six
Encoding: 54 54 24
Width: 556
GlyphClass: 2
Flags: MW
HStem: -15 80 387 80 655 80
VStem: 35 86 35 100 409 97
LayerCount: 2
Fore
SplineSet
401.528320312 550.884765625 m 1xec
 361.385742188 632.709960938 l 1
 288.329101562 661.022460938 l 1
 152.282226562 561.822265625 l 1
 117.975585938 369.3046875 l 1
 192.680664062 448.706054688 l 1
 287.22265625 469.237304688 l 1
 452.133789062 397.201171875 l 1
 510.646484375 229.485351562 l 1
 450.834960938 53.4248046875 l 1
 280.1640625 -22.4296875 l 1
 77.91796875 88.37109375 l 1
 30.291015625 334.520507812 l 1
 95.18359375 636.426757812 l 1
 283.311523438 742.499023438 l 1
 426.77734375 693.809570312 l 1
 478.0703125 587.458984375 l 1
 401.528320312 550.884765625 l 1xec
271.9140625 59.216796875 m 1
 378.607421875 107.26953125 l 1
 411.819335938 223.446289062 l 1
 378.672851562 339.623046875 l 1
 271.9140625 387.67578125 l 1
 172.9921875 339.588867188 l 1
 132.178710938 223.446289062 l 1
 171.110351562 107.303710938 l 1
 271.9140625 59.216796875 l 1
EndSplineSet
EndChar

StartChar: seven
Encoding: 55 55 25
Width: 556
GlyphClass: 2
Flags: MW
HStem: 0 21G 635 85
VStem: 150 96
LayerCount: 2
Fore
SplineSet
49.58984375 635.451171875 m 1
 49.58984375 720.201171875 l 1
 491.328125 720.201171875 l 1
 491.41015625 635.500976562 l 1
 320.548828125 338.817382812 l 1
 245 -8 l 1
 151 12 l 1
 219.09375 335.3046875 l 1
 391.524414062 635.451171875 l 1
 49.58984375 635.451171875 l 1
EndSplineSet
EndChar

StartChar: eight
Encoding: 56 56 26
Width: 556
GlyphClass: 2
Flags: MW
HStem: -15 80 356 75 665 70
VStem: 45 92 73 88 394 88 419 63 419 92
LayerCount: 2
Fore
SplineSet
177.09765625 399.752929688 m 1xf0
 98.9375 456.514648438 l 1
 69.0009765625 553.77734375 l 1
 127.578125 691.768554688 l 1
 277.115234375 742.5 l 1
 427.162109375 691.768554688 l 1
 486.25 553.77734375 l 1
 456.282226562 456.514648438 l 1
 378.153320312 399.752929688 l 1
 478.659179688 322.358398438 l 1
 515.76171875 196.741210938 l 1
 449.9765625 37.39453125 l 1
 277.030273438 -22.513671875 l 1
 105.104492188 37.39453125 l 1
 40.3388671875 196.741210938 l 1
 77.0166015625 322.358398438 l 1
 177.09765625 399.752929688 l 1xf0
277.115234375 59.1328125 m 1
 384.362304688 102.116210938 l 1
 421.953125 207.033203125 l 1
 384.362304688 312.493164062 l 1
 277.115234375 355.953125 l 1
 170.846679688 312.493164062 l 1
 134.232421875 207.033203125 l 1
 170.846679688 102.083007812 l 1
 277.115234375 59.1328125 l 1
277.115234375 432.412109375 m 1
 364.301757812 467.23046875 l 1
 396.438476562 551.735351562 l 1
 364.301757812 636.2734375 l 1
 277.115234375 671.059570312 l 1
 190.440429688 636.240234375 l 1
 158.8125 551.735351562 l 1
 190.407226562 467.23046875 l 1
 277.115234375 432.412109375 l 1
EndSplineSet
EndChar

StartChar: nine
Encoding: 57 57 27
Width: 556
GlyphClass: 2
Flags: MW
HStem: -15 80 263 80 655 80
VStem: 35 92 406 100 420 86
LayerCount: 2
Fore
SplineSet
139.407226562 169.270507812 m 1xf0
 184.716796875 87.4443359375 l 1
 262.8125 59.1318359375 l 1
 393.756835938 160.374023438 l 1
 422.958984375 354.932617188 l 1
 346.610351562 284.239257812 l 1
 245.461914062 261.037109375 l 1
 88.537109375 332.563476562 l 1
 30.2890625 499.770507812 l 1
 92.544921875 671.236328125 l 1
 258.900390625 742.499023438 l 1
 462.135742188 631.698242188 l 1
 510.814453125 385.548828125 l 1
 449.495117188 83.642578125 l 1
 264.938476562 -22.4296875 l 1
 117.932617188 26.259765625 l 1
 62.9287109375 134.579101562 l 1
 139.407226562 169.270507812 l 1xf0
269.020507812 660.852539062 m 1
 159.860351562 615.350585938 l 1
 124.182617188 501.7265625 l 1
 159.860351562 388.1015625 l 1
 269.020507812 342.599609375 l 1
 367.943359375 388.134765625 l 1
 408.756835938 501.7265625 l 1
 369.857421875 615.317382812 l 1
 269.020507812 660.852539062 l 1
EndSplineSet
EndChar

StartChar: colon
Encoding: 58 58 28
Width: 239
GlyphClass: 2
Flags: MW
HStem: 82 100 342 100
VStem: 70 91
LayerCount: 2
Fore
SplineSet
139.140625 333.099609375 m 1
 92.91015625 333.100585938 l 1
 60.0576171875 368.845703125 l 1
 60.080078125 419.649414062 l 1
 92.359375 456 l 1
 138.58984375 455.999023438 l 1
 171.75 419.549804688 l 1
 171.669921875 368.700195312 l 1
 139.140625 333.099609375 l 1
139.140625 68.099609375 m 1
 92.91015625 68.1005859375 l 1
 60.0576171875 103.845703125 l 1
 60.080078125 154.649414062 l 1
 92.359375 191 l 1
 138.58984375 190.999023438 l 1
 171.75 154.549804688 l 1
 171.669921875 103.700195312 l 1
 139.140625 68.099609375 l 1
EndSplineSet
EndChar

StartChar: semicolon
Encoding: 59 59 29
Width: 231
GlyphClass: 2
Flags: MW
HStem: -142 21G 0 21G 100 242
VStem: 70 100 121 49
LayerCount: 2
Fore
SplineSet
120.49609375 -0.974609375 m 1xe0
 98.220703125 -0.974609375 l 1
 68.3603515625 28.89453125 l 1
 68.3603515625 71.140625 l 1
 98.2255859375 101 l 1
 98.2255859375 101.001953125 l 1
 140.473632812 101.001953125 l 1
 170.333984375 71.13671875 l 1
 170.333984375 28.890625 l 1
 170.333984375 -0.97265625 l 1
 149.551757812 -91.3798828125 l 1
 90 -143.41796875 l 1
 62.322265625 -107.028320312 l 1
 104.805664062 -72.7529296875 l 1
 120.49609375 -0.974609375 l 1xe0
139.140625 333.099609375 m 1
 92.91015625 333.100585938 l 1
 60.0576171875 368.845703125 l 1
 60.080078125 419.649414062 l 1
 92.359375 456 l 1
 138.58984375 455.999023438 l 1
 171.75 419.549804688 l 1
 171.669921875 368.700195312 l 1
 139.140625 333.099609375 l 1
EndSplineSet
EndChar

StartChar: less
Encoding: 60 60 30
Width: 556
GlyphClass: 2
Flags: MW
HStem: 72 21G 607 20G
LayerCount: 2
Fore
SplineSet
89.1796875 300.030273438 m 1
 89.1796875 398.969726562 l 1
 432.919921875 606.030273438 l 1
 476.780273438 532.58984375 l 1
 169.759765625 352.049804688 l 1
 478.8203125 168.450195312 l 1
 432.919921875 92.9697265625 l 1
 89.1796875 300.030273438 l 1
EndSplineSet
EndChar

StartChar: equal
Encoding: 61 61 31
Width: 556
GlyphClass: 2
Flags: MW
HStem: 245 75 405 75
LayerCount: 2
Fore
SplineSet
510.559570312 242.650390625 m 1
 45.4404296875 242.650390625 l 1
 45.4404296875 319.150390625 l 1
 510.559570312 319.150390625 l 1
 510.559570312 242.650390625 l 1
510.559570312 405.849609375 m 1
 45.4404296875 405.849609375 l 1
 45.4404296875 482.349609375 l 1
 510.559570312 482.349609375 l 1
 510.559570312 405.849609375 l 1
EndSplineSet
EndChar

StartChar: greater
Encoding: 62 62 32
Width: 556
GlyphClass: 2
Flags: MW
HStem: 72 21G 607 20G
LayerCount: 2
Fore
SplineSet
476.799804688 398.969726562 m 1
 476.799804688 300.030273438 l 1
 136.120117188 93.990234375 l 1
 89.2001953125 169.469726562 l 1
 396.219726562 352.049804688 l 1
 90.2197265625 531.5703125 l 1
 135.099609375 605.009765625 l 1
 476.799804688 398.969726562 l 1
EndSplineSet
EndChar

StartChar: question
Encoding: 63 63 33
Width: 561
GlyphClass: 2
Flags: MW
HStem: 0 100 655 80
VStem: 227 95 403 95
LayerCount: 2
Fore
SplineSet
297.676757812 -12.5478515625 m 1
 247.284179688 -12.796875 l 1
 211.4765625 22.9482421875 l 1
 211.229492188 73.751953125 l 1
 246.684570312 109.852539062 l 1
 297.077148438 110.1015625 l 1
 332.884765625 74.3564453125 l 1
 333.131835938 23.552734375 l 1
 297.676757812 -12.5478515625 l 1
225.639648438 172.184570312 m 1
 225.639648438 199.740234375 l 1
 246.806640625 307.879882812 l 1
 318.427734375 388.463867188 l 1
 378.68359375 447.521484375 l 1
 405.26171875 530.240234375 l 1
 364.481445312 631.45703125 l 1
 268.588867188 660.790039062 l 1
 177.40625 626.004882812 l 1
 132.084960938 516.97265625 l 1
 55.6201171875 551.612304688 l 1
 114.83203125 685.25 l 1
 267.73828125 742.3515625 l 1
 437.846679688 686.3984375 l 1
 502.387695312 536.364257812 l 1
 461.958007812 416.39453125 l 1
 374.899414062 332.33203125 l 1
 326.251953125 272.576171875 l 1
 312.814453125 199.740234375 l 1
 312.814453125 172.184570312 l 1
 225.639648438 172.184570312 l 1
EndSplineSet
EndChar

StartChar: at
Encoding: 64 64 34
Width: 745
GlyphClass: 2
Flags: MW
HStem: -110 75 54 71 395 71 555 75
VStem: 32.9678 85 193.968 78 460.968 71 622.968 85
LayerCount: 2
Fore
SplineSet
539.435546875 157.342773438 m 1
 573.166992188 122.259765625 l 1
 616.340820312 169.9296875 l 1
 628.193359375 280.366210938 l 1
 560.473632812 484.458007812 l 1
 371.176757812 560.857421875 l 1
 184.82421875 474.28515625 l 1
 113.22265625 259.954101562 l 1
 182.260742188 45.623046875 l 1
 381.296875 -40.94921875 l 1
 460.264648438 -28.7021484375 l 1
 529.282226562 11.1005859375 l 1
 569.877929688 -57.21875 l 1
 495.31640625 -99.6328125 l 1
 381.126953125 -117.493164062 l 1
 119.538085938 -7.9580078125 l 1
 26.2177734375 259.954101562 l 1
 118.2734375 527.866210938 l 1
 371.005859375 637.401367188 l 1
 622.8046875 538.080078125 l 1
 714.688476562 280.451171875 l 1
 683.751953125 126.545898438 l 1
 574.102539062 49.8837890625 l 1
 512.368164062 71.953125 l 1
 478.251953125 125.407226562 l 1
 465.834960938 102.954101562 l 1
 422.864257812 64.5546875 l 1
 360.885742188 49.8837890625 l 1
 234.30078125 108.303710938 l 1
 190.447265625 260.0390625 l 1
 234.30078125 411.392578125 l 1
 360.885742188 470.194335938 l 1
 428.57421875 451.697265625 l 1
 474 402 l 1
 474 455 l 1
 534 455 l 1
 534 198 l 1
 539.435546875 157.342773438 l 1
365.135742188 397.6484375 m 1
 297.4375 362.830078125 l 1
 270.306640625 259.954101562 l 1
 297.4375 157.079101562 l 1
 365.135742188 122.259765625 l 1
 434.323242188 157.079101562 l 1
 462.942382812 259.954101562 l 1
 432.090820312 362.830078125 l 1
 365.135742188 397.6484375 l 1
EndSplineSet
EndChar

StartChar: A
Encoding: 65 65 35
Width: 675
GlyphClass: 2
Flags: MW
HStem: 0 21G 175 85<205 466 205 497 173 466> 700 20G<290 387 387 387>
LayerCount: 2
Fore
SplineSet
167 159 m 1
 104 -8 l 1
 19 24 l 1
 290 720 l 1
 387 720 l 1
 656 23.8330078125 l 1
 565 -8 l 1
 504 156 l 1
 497 175 l 1
 173 175 l 1
 167 159 l 1
466 260 m 1
 338 611 l 1
 205 260 l 1
 466 260 l 1
EndSplineSet
EndChar

StartChar: B
Encoding: 66 66 36
Width: 674
GlyphClass: 2
Flags: MW
HStem: 0 85 325 85 635 85
VStem: 79.7402 95 492.74 98 522.74 101
LayerCount: 2
Fore
SplineSet
78.55859375 -0.28125 m 1xf0
 78.55859375 720.201171875 l 1
 341.805664062 720.201171875 l 1
 526.084960938 680.772460938 l 1
 598.737304688 536.435546875 l 1
 572.89453125 440.323242188 l 1
 480.643554688 376.2890625 l 1
 592.498046875 315.063476562 l 1
 632.586914062 204.916015625 l 1
 556.702148438 40.677734375 l 1
 356.178710938 -0.28125 l 1
 78.55859375 -0.28125 l 1xf0
174.4296875 410.07421875 m 1
 332.534179688 410.07421875 l 1
 447.362304688 434.028320312 l 1
 498.720703125 524.274414062 l 1
 445.44921875 619.877929688 l 1
 320.288085938 634.536132812 l 1
 174.259765625 634.536132812 l 1
 174.4296875 410.07421875 l 1
174.4296875 84.5537109375 m 1
 356.178710938 84.5537109375 l 1
 480.318359375 104.8046875 l 1
 529.5078125 205.000976562 l 1
 471.770507812 301.786132812 l 1
 342.911132812 325.32421875 l 1
 174.598632812 325.32421875 l 1
 174.4296875 84.5537109375 l 1
EndSplineSet
EndChar

StartChar: C
Encoding: 67 67 37
Width: 734
GlyphClass: 2
Flags: MW
HStem: -15 80 655 80
VStem: 50 100
LayerCount: 2
Fore
SplineSet
383.485351562 59.046875 m 1
 517.767578125 106.080078125 l 1
 591.513671875 230.420898438 l 1
 674.16015625 184.560546875 l 1
 587.443359375 42.625 l 1
 383.485351562 -22.513671875 l 1
 129.475585938 89.5546875 l 1
 43.7998046875 359.950195312 l 1
 129.475585938 630.415039062 l 1
 383.485351562 742.5 l 1
 587.889648438 678.381835938 l 1
 676.200195312 531.360351562 l 1
 591.513671875 488.543945312 l 1
 524.592773438 613.012695312 l 1
 383.485351562 660.9375 l 1
 207.25390625 574.3671875 l 1
 145.7734375 360.03515625 l 1
 203.39453125 145.627929688 l 1
 383.485351562 59.046875 l 1
EndSplineSet
EndChar

StartChar: D
Encoding: 68 68 38
Width: 709
GlyphClass: 2
Flags: MW
HStem: 0 84<175 309 175 319> 635 85<175 306 175 175>
VStem: 83.75 95 564.75 98
LayerCount: 2
Fore
SplineSet
80 0 m 1
 80 720 l 1
 306 720 l 1
 576.282226562 633.374023438 l 1
 668.624023438 362.084960938 l 1
 581.926757812 91.3662109375 l 1
 319 0 l 1
 80 0 l 1
175 84 m 1
 309 84 l 1
 505.435546875 149.224609375 l 1
 568.690429688 363.021484375 l 1
 497.005859375 579.776367188 l 1
 306 635 l 1
 175 635 l 1
 175 84 l 1
EndSplineSet
EndChar

StartChar: E
Encoding: 69 69 39
Width: 657
GlyphClass: 2
Flags: MW
HStem: 0 85<175 587 175 587> 325 85<175 527 175 527> 635 85<175 577 175 175>
VStem: 80 95<85 325 410 635>
LayerCount: 2
Fore
SplineSet
587 0 m 1
 80 0 l 1
 80 720 l 1
 577 720 l 1
 577 635 l 1
 175 635 l 1
 175 410 l 1
 527 410 l 1
 527 325 l 1
 175 325 l 1
 175 85 l 1
 587 85 l 1
 587 0 l 1
EndSplineSet
EndChar

StartChar: F
Encoding: 70 70 40
Width: 611
GlyphClass: 2
Flags: MW
HStem: 0 21G<80 175 80 80> 325 85<175 511 175 511> 635 85<175 561 175 175>
VStem: 80 95<0 325 410 635>
LayerCount: 2
Fore
SplineSet
175 0 m 1
 80 0 l 1
 80 720 l 1
 561 720 l 1
 561 635 l 1
 175 635 l 1
 175 410 l 1
 511 410 l 1
 511 325 l 1
 175 325 l 1
 175 0 l 1
EndSplineSet
EndChar

StartChar: G
Encoding: 71 71 41
Width: 760
GlyphClass: 2
Flags: MW
HStem: -15 80 281 84 655 80
VStem: 50 100 608 92
LayerCount: 2
Fore
SplineSet
699.45703125 107.015625 m 1
 403.512695312 -22.513671875 l 1
 139.340820312 89.5546875 l 1
 43.5 359.950195312 l 1
 134.268554688 630.415039062 l 1
 393.306640625 742.5 l 1
 595.616210938 686.02734375 l 1
 679.98046875 549.719726562 l 1
 599.379882812 499.771484375 l 1
 521.315429688 625.098632812 l 1
 391.265625 660.9375 l 1
 210.952148438 574.3671875 l 1
 145.388671875 360.03515625 l 1
 214 146.985351562 l 1
 406.573242188 59.1328125 l 1
 608 152 l 1
 607.647460938 281.409179688 l 1
 395.34765625 281.409179688 l 1
 395.34765625 365.053710938 l 1
 699.45703125 365.053710938 l 1
 699.45703125 107.015625 l 1
EndSplineSet
EndChar

StartChar: H
Encoding: 72 72 42
Width: 722
GlyphClass: 2
Flags: MW
HStem: 0 21G<80 175 80 80 547 547 547 642> 325 85<175 547 175 547> 700 20G<80 175 175 175 547 642 642 642>
VStem: 80 95<0 325 410 720> 547 95<0 325 325 325 410 720 0 720>
LayerCount: 2
Fore
SplineSet
175 0 m 1
 80 0 l 1
 80 720 l 1
 175 720 l 1
 175 410 l 1
 547 410 l 1
 547 720 l 1
 642 720 l 1
 642 0 l 1
 547 0 l 1
 547 325 l 1
 175 325 l 1
 175 0 l 1
EndSplineSet
EndChar

StartChar: I
Encoding: 73 73 43
Width: 255
GlyphClass: 2
Flags: MW
HStem: 0 21G<80 175 80 80> 700 20G<80 175 175 175>
VStem: 80 95<0 720>
LayerCount: 2
Fore
SplineSet
175 0 m 1
 80 0 l 1
 80 720 l 1
 175 720 l 1
 175 0 l 1
EndSplineSet
EndChar

StartChar: J
Encoding: 74 74 44
Width: 516
GlyphClass: 2
Flags: MW
HStem: -15 80 700 20G<341 436 436 436>
VStem: 18.7725 86 338.772 95
LayerCount: 2
Fore
SplineSet
102.4375 202.087890625 m 1
 130.322265625 102.78515625 l 1
 221.67578125 59.291015625 l 1
 318.046875 108.109375 l 1
 341 223.903320312 l 1
 341 720 l 1
 436 720 l 1
 436 219 l 1
 382.599609375 41.5078125 l 1
 221.67578125 -22.35546875 l 1
 66.908203125 34.7548828125 l 1
 18.662109375 178.58984375 l 1
 102.4375 202.087890625 l 1
EndSplineSet
EndChar

StartChar: K
Encoding: 75 75 45
Width: 698
GlyphClass: 2
Flags: MW
HStem: 0 21G<80 175 80 80> 700 20G<80 175 175 175>
VStem: 80 95<0 238 352 720>
LayerCount: 2
Fore
SplineSet
175 0 m 1
 80 0 l 1
 80 720 l 1
 175 720 l 1
 175 352 l 1
 524 728.090820312 l 1
 589 668 l 1
 339 409 l 1
 618 51 l 1
 539 -8 l 1
 274 342 l 1
 175 238 l 1
 175 0 l 1
EndSplineSet
EndChar

StartChar: L
Encoding: 76 76 46
Width: 608
GlyphClass: 2
Flags: MW
HStem: 0 85<175 578 175 578> 700 20G<80 175 175 175>
VStem: 80 95<85 720 85 720 85 720>
LayerCount: 2
Fore
SplineSet
578 0 m 1
 80 0 l 1
 80 720 l 1
 175 720 l 1
 175 85 l 1
 578 85 l 1
 578 0 l 1
EndSplineSet
EndChar

StartChar: M
Encoding: 77 77 47
Width: 863
GlyphClass: 2
Flags: MW
HStem: 0 21G<80 175 80 80 389 389 389 474 688 688 688 783> 700 20G<80 219 219 219 652 783 783 783>
VStem: 80 95<0 598> 688 95<0 598 598 598>
LayerCount: 2
Fore
SplineSet
175 0 m 1
 80 0 l 1
 80 720 l 1
 219 720 l 1
 433 123 l 1
 652 720 l 1
 783 720 l 1
 783 0 l 1
 688 0 l 1
 688 598 l 1
 474 0 l 1
 389 0 l 1
 175 598 l 1
 175 0 l 1
EndSplineSet
EndChar

StartChar: N
Encoding: 78 78 48
Width: 724
GlyphClass: 2
Flags: MW
HStem: 0 21G<80 171 80 80 547 547 547 644> 700 20G<80 177 177 177 553 644 644 644>
VStem: 80 91<0 566> 553 91<154 720 0 720>
LayerCount: 2
Fore
SplineSet
171 0 m 1
 80 0 l 1
 80 720 l 1
 177 720 l 1
 553 154 l 1
 553 720 l 1
 644 720 l 1
 644 0 l 1
 547 0 l 1
 171 566 l 1
 171 0 l 1
EndSplineSet
EndChar

StartChar: O
Encoding: 79 79 49
Width: 785
GlyphClass: 2
Flags: MW
HStem: -15 80 655 80
VStem: 50 100 635 100
LayerCount: 2
Fore
SplineSet
392.956054688 742.5 m 1
 651.184570312 630.415039062 l 1
 741.911132812 359.950195312 l 1
 651.184570312 89.5625 l 1
 392.956054688 -22.513671875 l 1
 133.885742188 89.5625 l 1
 43.1494140625 359.950195312 l 1
 133.916992188 630.415039062 l 1
 392.956054688 742.5 l 1
392.956054688 59.1328125 m 1
 573.322265625 145.703125 l 1
 639.766601562 360.03515625 l 1
 573.322265625 574.3671875 l 1
 392.956054688 660.9375 l 1
 211.588867188 574.3671875 l 1
 145.038085938 360.03515625 l 1
 207.793945312 145.703125 l 1
 392.956054688 59.1328125 l 1
EndSplineSet
EndChar

StartChar: P
Encoding: 80 80 50
Width: 657
GlyphClass: 2
Flags: MW
HStem: 0 21G<80 80 80 175> 290 85 635 85
VStem: 83.2305 95 512.23 98
LayerCount: 2
Fore
SplineSet
80 0 m 1
 80 720 l 1
 334 720 l 1
 529.75 682.685546875 l 1
 615.553710938 511.94140625 l 1
 546.802734375 344.811523438 l 1
 341 290 l 1
 175 290 l 1
 175 0 l 1
 80 0 l 1
175 375.352539062 m 1
 343.3125 375.352539062 l 1
 472.650390625 408.896484375 l 1
 515.622070312 508.96484375 l 1
 464.76171875 613.049804688 l 1
 341 641 l 1
 175 641 l 1
 175 375.352539062 l 1
EndSplineSet
EndChar

StartChar: Q
Encoding: 81 81 51
Width: 785
GlyphClass: 2
Flags: MW
HStem: -59 21G -15 80 655 80
VStem: 50 100 635 100
LayerCount: 2
Fore
SplineSet
392.956054688 742.5 m 1
 651.184570312 630.415039062 l 1
 741.911132812 359.950195312 l 1
 651.184570312 89.5625 l 1
 650.619140625 89.3173828125 l 1
 729 0 l 1
 660 -61 l 1
 561.255859375 50.53125 l 1
 392.956054688 -22.513671875 l 1
 133.885742188 89.5625 l 1
 43.1494140625 359.950195312 l 1
 133.916992188 630.415039062 l 1
 392.956054688 742.5 l 1
580.583007812 169.125976562 m 1
 639.766601562 360.03515625 l 1
 573.322265625 574.3671875 l 1
 392.956054688 660.9375 l 1
 211.588867188 574.3671875 l 1
 145.038085938 360.03515625 l 1
 207.793945312 145.703125 l 1
 392.956054688 59.1328125 l 1
 505.986328125 113.383789062 l 1
 445 184 l 1
 514 245 l 1
 580.583007812 169.125976562 l 1
EndSplineSet
EndChar

StartChar: R
Encoding: 82 82 52
Width: 683
GlyphClass: 2
Flags: MW
HStem: 0 21G<80 80 80 175> 290 85 635 85
VStem: 80 95<0 290 0 375.353 375.353 641> 499 98
LayerCount: 2
Fore
SplineSet
175 375.352539062 m 1
 343.3125 375.352539062 l 1
 472.650390625 408.896484375 l 1
 515.622070312 508.96484375 l 1
 464.76171875 613.049804688 l 1
 341 641 l 1
 175 641 l 1
 175 375.352539062 l 1
80 0 m 1
 80 720 l 1
 334 720 l 1
 529.75 682.685546875 l 1
 615.553710938 511.94140625 l 1
 546.802734375 344.811523438 l 1
 479 327 l 1
 645 38 l 1
 557 -8 l 1
 383 302 l 1
 336 290 l 1
 175 290 l 1
 175 0 l 1
 80 0 l 1
EndSplineSet
EndChar

StartChar: S
Encoding: 83 83 53
Width: 665
GlyphClass: 2
Flags: MW
HStem: -15 80 510 225 655 80
VStem: 50 94 77 92 513 102
LayerCount: 2
Fore
SplineSet
139.908203125 235.608398438 m 1xb4
 202.823242188 103.391601562 l 1
 345.982421875 59.1318359375 l 1
 470.9609375 95.4814453125 l 1
 516.334960938 190.702148438 l 1
 495.990234375 255.067382812 l 1
 432.200195312 299.87109375 l 1
 222.576171875 359.014648438 l 1
 97.8408203125 436.791015625 l 1
 71.7841796875 534.469726562 l 1
 151.463867188 690.8828125 l 1
 323.698242188 742.499023438 l 1
 518.237304688 687.18359375 l 1
 584.828125 542.579101562 l 1
 500.345703125 509.9765625 l 1
 451.623046875 620.666992188 l 1
 327.952148438 660.9375 l 1
 218.228515625 632.879882812 l 1
 165.848632812 540.592773438 l 1
 182.791992188 488.73046875 l 1
 233.49609375 454.141601562 l 1
 440.130859375 392.608398438 l 1
 570.595703125 324.82421875 l 1
 620.689453125 195.805664062 l 1
 534.099609375 30.4619140625 l 1
 350.234375 -22.4296875 l 1
 132.232421875 40.1572265625 l 1
 56.46875 199.859375 l 1
 139.908203125 235.608398438 l 1xb4
EndSplineSet
EndChar

StartChar: T
Encoding: 84 84 54
Width: 619
GlyphClass: 2
Flags: MW
HStem: 0 21G<262 357 262 262> 635 85<20 262 20 599 357 357 357 599>
VStem: 262 95<0 635>
LayerCount: 2
Fore
SplineSet
357 0 m 1
 262 0 l 1
 262 635 l 1
 20 635 l 1
 20 720 l 1
 599 720 l 1
 599 635 l 1
 357 635 l 1
 357 0 l 1
EndSplineSet
EndChar

StartChar: U
Encoding: 85 85 55
Width: 723
GlyphClass: 2
Flags: MW
HStem: -15 85 700 20G
VStem: 80 95 548 95
LayerCount: 2
Fore
SplineSet
642.704101562 720.349609375 m 1
 642.704101562 301 l 1
 580.728515625 68.5537109375 l 1
 362.08984375 -22.35546875 l 1
 143.630859375 68.5537109375 l 1
 79.369140625 302.888671875 l 1
 79.369140625 720.349609375 l 1
 175.325195312 720.349609375 l 1
 175.325195312 295.897460938 l 1
 216.34765625 127.322265625 l 1
 363.110351562 64.3095703125 l 1
 508.405273438 127.288085938 l 1
 548.833007812 297.78515625 l 1
 548.662109375 720.349609375 l 1
 642.704101562 720.349609375 l 1
EndSplineSet
EndChar

StartChar: V
Encoding: 86 86 56
Width: 675
GlyphClass: 2
Flags: MW
HStem: 0 21G<288 385 288 288> 700 20G
LayerCount: 2
Fore
SplineSet
385 0 m 1
 288 0 l 1
 19 695 l 1
 109 728.090820312 l 1
 337 109 l 1
 571 728.090820312 l 1
 657 695 l 1
 385 0 l 1
EndSplineSet
EndChar

StartChar: W
Encoding: 87 87 57
Width: 940
GlyphClass: 2
Flags: MW
HStem: 0 21G<198 293 198 198 647 647 647 742> 700 20G<413 527 527 527>
LayerCount: 2
Fore
SplineSet
293 0 m 1
 198 0 l 1
 14 706 l 1
 106 728.090820312 l 1
 250 115 l 1
 413 720 l 1
 527 720 l 1
 695 115 l 1
 836 728.090820312 l 1
 926 706 l 1
 742 0 l 1
 647 0 l 1
 470 628 l 1
 293 0 l 1
EndSplineSet
EndChar

StartChar: X
Encoding: 88 88 58
Width: 697
GlyphClass: 2
Flags: MW
HStem: 0 21G 700 20G
LayerCount: 2
Fore
SplineSet
127 -8 m 1
 54 46.75 l 1
 297 373 l 1
 84 676 l 1
 161 728.090820312 l 1
 353 444 l 1
 559 728.090820312 l 1
 625 676 l 1
 406 378 l 1
 644 46.75 l 1
 565 -8 l 1
 348 303 l 1
 127 -8 l 1
EndSplineSet
EndChar

StartChar: Y
Encoding: 89 89 59
Width: 675
GlyphClass: 2
Flags: MW
HStem: 0 21G<290 385 290 290> 700 20G
VStem: 290 95<0 303>
LayerCount: 2
Fore
SplineSet
385 0 m 1
 290 0 l 1
 290 303 l 1
 37 679 l 1
 119 728.090820312 l 1
 342 383 l 1
 561 728.090820312 l 1
 638 679 l 1
 385 303 l 1
 385 0 l 1
EndSplineSet
EndChar

StartChar: Z
Encoding: 90 90 60
Width: 672
GlyphClass: 2
Flags: MW
HStem: 0 85<169 612 60 60> 635 85<80 488 80 602 80 602>
LayerCount: 2
Fore
SplineSet
612 0 m 1
 60 0 l 1
 60 85 l 1
 488 635 l 1
 80 635 l 1
 80 720 l 1
 602 720 l 1
 602 635 l 1
 169 85 l 1
 612 85 l 1
 612 0 l 1
EndSplineSet
EndChar

StartChar: bracketleft
Encoding: 91 91 61
Width: 337
GlyphClass: 2
Flags: MW
HStem: -100 85<175 297 175 297> 735 85<175 297 175 175>
VStem: 80 95<-15 735 -15 820 -15 820> 80 217<-100 -15 735 820>
LayerCount: 2
Fore
SplineSet
297 -100 m 1xd0
 80 -100 l 1
 80 820 l 1
 297 820 l 1xd0
 297 735 l 1
 175 735 l 1xe0
 175 -15 l 1
 297 -15 l 1
 297 -100 l 1xd0
EndSplineSet
EndChar

StartChar: backslash
Encoding: 92 92 62
Width: 336
GlyphClass: 2
Flags: MW
HStem: -100 21G<247 247> 800 20G<90 90>
LayerCount: 2
Fore
SplineSet
330 -78 m 1
 247 -100 l 1
 6 798 l 1
 90 820 l 1
 330 -78 l 1
EndSplineSet
EndChar

StartChar: bracketright
Encoding: 93 93 63
Width: 337
GlyphClass: 2
Flags: MW
HStem: -100 85<40 162 40 257 40 162> 735 85<40 162 40 257>
VStem: 40 217<-100 -15 -15 -15 735 820> 162 95<-15 735 735 735>
LayerCount: 2
Fore
SplineSet
257 -100 m 1xe0
 40 -100 l 1
 40 -15 l 1xe0
 162 -15 l 1
 162 735 l 1xd0
 40 735 l 1
 40 820 l 1
 257 820 l 1
 257 -100 l 1xe0
EndSplineSet
EndChar

StartChar: asciicircum
Encoding: 94 94 64
Width: 556
GlyphClass: 2
Flags: MW
HStem: 470 21G 700 20G
LayerCount: 2
Fore
SplineSet
254 750 m 1
 296 750 l 1
 434 507.840820312 l 1
 384 479.840820312 l 1
 277.021484375 641.331054688 l 1
 169.379882812 478.840820312 l 1
 119.379882812 506.840820312 l 1
 254 750 l 1
EndSplineSet
EndChar

StartChar: underscore
Encoding: 95 95 65
Width: 696
GlyphClass: 2
Flags: MW
HStem: 0 75
LayerCount: 2
Fore
SplineSet
631.559570312 -0.75 m 1
 64.4404296875 -0.75 l 1
 64.4404296875 75.75 l 1
 631.559570312 75.75 l 1
 631.559570312 -0.75 l 1
EndSplineSet
EndChar

StartChar: grave
Encoding: 96 96 66
Width: 284
GlyphClass: 2
Flags: MW
HStem: 533 21G 700 20G
LayerCount: 2
Fore
SplineSet
136.139648438 776.171875 m 1
 225 563 l 1
 175 535 l 1
 46.3798828125 729.159179688 l 1
 136.139648438 776.171875 l 1
EndSplineSet
EndChar

StartChar: a
Encoding: 97 97 67
Width: 545
GlyphClass: 2
Flags: MW
HStem: -15 72 0 21G<388 472 388 388> 463 72
VStem: 36 94 382 90
LayerCount: 2
Fore
SplineSet
382.41015625 348.740234375 m 1x78
 347.499023438 441.418945312 l 1
 259.971679688 467.018554688 l 1
 178.3046875 439.981445312 l 1
 132.484375 360.962890625 l 1
 61.1103515625 404.840820312 l 1
 129.157226562 506.319335938 l 1
 269.158203125 540.500976562 l 1
 424.775390625 488.110351562 l 1
 472.125 335.448242188 l 1
 472 0 l 1
 388 0 l 1
 388.391601562 60.14453125 l 1
 303.06640625 -2.4677734375 l 1
 209.958984375 -20.56640625 l 1
 83.0498046875 16.38671875 l 1
 29.490234375 134.477539062 l 1
 89.1630859375 258.784179688 l 1
 382.41015625 348.740234375 l 1x78
382.41015625 269.180664062 m 1
 165.568359375 209.150390625 l 1
 125.424804688 138.475585938 l 1
 156.57421875 70.3935546875 l 1
 224.336914062 52.830078125 l 1
 318.719726562 81.7890625 l 1
 382.357421875 137.5390625 l 1
 382.41015625 269.180664062 l 1
EndSplineSet
EndChar

StartChar: b
Encoding: 98 98 68
Width: 550
GlyphClass: 2
Flags: MW
HStem: -15 75 0 60 460 75 700 20G<65 155 155 155>
VStem: 65 90<465 720 465 720 465 720> 425 90
LayerCount: 2
Fore
SplineSet
155 720 m 1x3c
 155 465 l 1
 211.5546875 519.397460938 l 1
 292.086914062 538.626953125 l 1
 460.919921875 460.34765625 l 1
 519.592773438 258.134765625 l 1
 460.919921875 55.9228515625 l 1
 292.086914062 -22.35546875 l 1
 202.190429688 2.384765625 l 1
 145 70 l 1
 145 0 l 1
 65 0 l 1
 65 720 l 1
 155 720 l 1x3c
286.899414062 54.103515625 m 1
 387.48046875 105.592773438 l 1
 427.655273438 258.05078125 l 1
 387.48046875 410.551757812 l 1
 286.899414062 462.08203125 l 1
 183.724609375 410.551757812 l 1
 140.955078125 258.05078125 l 1
 187.583984375 105.592773438 l 1
 286.899414062 54.103515625 l 1
EndSplineSet
EndChar

StartChar: c
Encoding: 99 99 69
Width: 524
GlyphClass: 2
Flags: MW
HStem: -15 75 460 75
VStem: 35 90
LayerCount: 2
Fore
SplineSet
273.384765625 55.9765625 m 1
 355.116210938 84.2548828125 l 1
 404.955078125 175.299804688 l 1
 481.41015625 134.540039062 l 1
 415.639648438 25.5205078125 l 1
 273.384765625 -20.482421875 l 1
 96.833984375 53.9697265625 l 1
 30.5703125 260.008789062 l 1
 96.8974609375 466.047851562 l 1
 273.384765625 540.5 l 1
 415.639648438 493.944335938 l 1
 482.4296875 382.399414062 l 1
 404.955078125 343.612304688 l 1
 355.1796875 435.591796875 l 1
 273.384765625 464.041015625 l 1
 167.66796875 416.336914062 l 1
 122.422851562 260.008789062 l 1
 167.66796875 103.680664062 l 1
 273.384765625 55.9765625 l 1
EndSplineSet
EndChar

StartChar: d
Encoding: 100 100 70
Width: 550
GlyphClass: 2
Flags: MW
HStem: -15 75 0 60 460 75 700 20G<395 485 485 485>
VStem: 35 90 406 79
LayerCount: 2
Fore
SplineSet
485 720 m 1x3c
 485 0 l 1
 405 0 l 1
 405 71 l 1
 343.4765625 1.533203125 l 1
 255.264648438 -22.705078125 l 1
 86.3994140625 55.5732421875 l 1
 27.7587890625 257.78515625 l 1
 86.3994140625 459.998046875 l 1
 255.264648438 538.27734375 l 1
 338.625 517.46484375 l 1
 395 465.920898438 l 1
 395 720 l 1
 485 720 l 1x3c
260.452148438 461.818359375 m 1
 159.796875 410.287109375 l 1
 119.611328125 257.78515625 l 1
 159.796875 105.327148438 l 1
 260.452148438 53.8388671875 l 1
 359.7578125 105.327148438 l 1
 406.311523438 257.78515625 l 1
 363.584960938 410.287109375 l 1
 260.452148438 461.818359375 l 1
EndSplineSet
EndChar

StartChar: e
Encoding: 101 101 71
Width: 544
GlyphClass: 2
Flags: MW
HStem: -15 75 237 72 460 75
VStem: 35 90 413 96
LayerCount: 2
Fore
SplineSet
174.46484375 98.9150390625 m 1
 278.149414062 56.44140625 l 1
 365.399414062 85.7744140625 l 1
 419.926757812 174.744140625 l 1
 490 131 l 1
 421.6171875 23.7744140625 l 1
 273.046875 -20.1025390625 l 1
 96.6025390625 54.349609375 l 1
 30.3173828125 260.388671875 l 1
 96.6025390625 466.427734375 l 1
 273.046875 540.879882812 l 1
 453.446289062 463.494140625 l 1
 513 273 l 1
 508 237 l 1
 122.000976562 236.915039062 l 1
 174.46484375 98.9150390625 l 1
125 309 m 1
 416 309 l 1
 374.999023438 421.139648438 l 1
 272.961914062 464.505859375 l 1
 181.481445312 428.028320312 l 1
 125 309 l 1
EndSplineSet
EndChar

StartChar: f
Encoding: 102 102 72
Width: 303
GlyphClass: 2
Flags: MW
HStem: 0 21G<88 175 88 88> 451 69<10 88 10 88 175 276> 633 78
VStem: 88 87<0 451 0 451 520 545 545 545>
LayerCount: 2
Fore
SplineSet
308.961914062 628.298828125 m 1
 250.7890625 638.504882812 l 1
 191.977539062 614.393554688 l 1
 175 547 l 1
 175 520 l 1
 276 520 l 1
 276 451 l 1
 175 451 l 1
 175 0 l 1
 88 0 l 1
 88 451 l 1
 10 451 l 1
 10 520 l 1
 88 520 l 1
 88 545 l 1
 124.8203125 673.46875 l 1
 239.561523438 718.110351562 l 1
 321 703 l 1
 308.961914062 628.298828125 l 1
EndSplineSet
EndChar

StartChar: g
Encoding: 103 103 73
Width: 558
GlyphClass: 2
Flags: MW
HStem: -210 76 -15 75 460 60 460 75
VStem: 43 90 63 85 403 90
LayerCount: 2
Fore
SplineSet
260.900390625 -217.545898438 m 1xda
 120.368164062 -174.689453125 l 1
 75 -79 l 1
 147 -46 l 1
 179.763671875 -116.515625 l 1
 263.025390625 -139.98046875 l 1
 369.922851562 -99.548828125 l 1
 401.741210938 16.83984375 l 1
 402 55 l 1
 342.446289062 0.6650390625 l 1
 261.919921875 -18.53125 l 1
 93.09765625 59.748046875 l 1
 34.5 261.959960938 l 1
 93.09765625 464.171875 l 1
 261.919921875 542.451171875 l 1
 353.086914062 516.42578125 l 1
 412 450 l 1
 412 520 l 1
 492 520 l 1
 492 34 l 1
 447.178710938 -139.384765625 l 1
 260.900390625 -217.545898438 l 1xda
267.0234375 465.907226562 m 1
 166.517578125 414.375976562 l 1
 126.352539062 261.875 l 1
 166.517578125 109.416015625 l 1
 267.0234375 57.927734375 l 1
 370.198242188 109.416015625 l 1
 412.967773438 261.875 l 1
 366.403320312 414.375976562 l 1
 267.0234375 465.907226562 l 1
EndSplineSet
EndChar

StartChar: h
Encoding: 104 104 74
Width: 555
GlyphClass: 2
Flags: MW
HStem: 0 21G<62 62 62 152.645 402 402 402 491.768> 459 76 700 20G<62 152.519 152.519 152.519>
VStem: 65.7109 90 400.711 90
LayerCount: 2
Fore
SplineSet
62 0 m 1
 62 720 l 1
 152.518554688 720 l 1
 152.518554688 449 l 1
 215.657226562 516.44921875 l 1
 311.64453125 538.477539062 l 1
 457.982421875 475.719726562 l 1
 492.16015625 316.407226562 l 1
 491.767578125 0 l 1
 402 0 l 1
 402.051757812 315.69140625 l 1
 377.6953125 421.91796875 l 1
 293.314453125 460.913085938 l 1
 191.66015625 414.740234375 l 1
 152.64453125 283 l 1
 152.64453125 0 l 1
 62 0 l 1
EndSplineSet
EndChar

StartChar: i
Encoding: 105 105 75
Width: 220
GlyphClass: 2
Flags: MW
HStem: 0 21G<65 155 65 65> 500 20G<65 155 155 155> 619 101
VStem: 65 90<0 520>
LayerCount: 2
Fore
SplineSet
133.280273438 606.940429688 m 1
 87.0498046875 606.94140625 l 1
 54.197265625 642.686523438 l 1
 54.2197265625 693.490234375 l 1
 86.4990234375 729.840820312 l 1
 132.729492188 729.83984375 l 1
 165.889648438 693.390625 l 1
 165.809570312 642.541015625 l 1
 133.280273438 606.940429688 l 1
155 0 m 1
 65 0 l 1
 65 520 l 1
 155 520 l 1
 155 0 l 1
EndSplineSet
EndChar

StartChar: j
Encoding: 106 106 76
Width: 220
GlyphClass: 2
Flags: MW
HStem: -210 79 500 20G<64.9883 154.956 154.956 154.956> 619 101
VStem: 65 90
LayerCount: 2
Fore
SplineSet
133.280273438 606.940429688 m 1
 87.0498046875 606.94140625 l 1
 54.197265625 642.686523438 l 1
 54.2197265625 693.490234375 l 1
 86.4990234375 729.840820312 l 1
 132.729492188 729.83984375 l 1
 165.889648438 693.390625 l 1
 165.809570312 642.541015625 l 1
 133.280273438 606.940429688 l 1
-34.15234375 -124.903320312 m 1
 12 -132 l 1
 55.201171875 -98.322265625 l 1
 64.98828125 12.1337890625 l 1
 64.98828125 520 l 1
 154.956054688 520 l 1
 154.5390625 -29.8408203125 l 1
 125.9453125 -158.731445312 l 1
 12.9541015625 -210.002929688 l 1
 -52 -199.997070312 l 1
 -34.15625 -124.870117188 l 1
 -34.15234375 -124.903320312 l 1
EndSplineSet
EndChar

StartChar: k
Encoding: 107 107 77
Width: 506
GlyphClass: 2
Flags: MW
HStem: 0 21G<65 154.758 65 65> 225 75<154.758 239 154.843 239 154.843 239> 437 83 700 20G<65.084 65.084>
VStem: 65 90
LayerCount: 2
Fore
SplineSet
154.7578125 225 m 1
 154.7578125 0 l 1
 65 0 l 1
 65.083984375 720 l 1
 108.958984375 720.04296875 l 1
 154.842773438 720.04296875 l 1
 154.842773438 300 l 1
 239 300 l 1
 272.755859375 346.75 l 1
 329.008789062 469.1953125 l 1
 378.8515625 512.63671875 l 1
 453.728515625 520.057617188 l 1
 465.728515625 437.09375 l 1
 424.768554688 430.58984375 l 1
 395.502929688 417.282226562 l 1
 346.872070312 314.131835938 l 1
 292.860351562 262.059570312 l 1
 359 225 l 1
 467 36 l 1
 385.828125 -7.923828125 l 1
 279 193 l 1
 239 225 l 1
 154.7578125 225 l 1
EndSplineSet
EndChar

StartChar: l
Encoding: 108 108 78
Width: 220
GlyphClass: 2
Flags: MW
HStem: 0 21G<65 155 65 65> 715 20G
VStem: 65 90<0 720>
LayerCount: 2
Fore
SplineSet
155 0 m 1
 65 0 l 1
 65 720 l 1
 155 720 l 1
 155 0 l 1
EndSplineSet
EndChar

StartChar: m
Encoding: 109 109 79
Width: 839
GlyphClass: 2
Flags: MW
HStem: 0 21G<60.3184 60.3184 60.3184 150.521 374.717 374.717 374.717 464.717 690 690 690 780> 459 61 459 76
VStem: 65.3623 90 375.362 90 684.362 90
LayerCount: 2
Fore
SplineSet
60.318359375 0 m 1xbc
 60.5205078125 520 l 1
 141.520507812 520 l 1
 141.520507812 446 l 1
 208.995117188 519.471679688 l 1
 303.41796875 539.8828125 l 1
 398.166015625 514.716796875 l 1
 450.716796875 439 l 1
 521.986328125 517.8125 l 1
 615.836914062 540.350585938 l 1
 739.775390625 493.446289062 l 1
 780 362 l 1
 780 0 l 1
 690 0 l 1
 690 329.930664062 l 1
 672.791992188 421.876953125 l 1
 596.439453125 462.786132812 l 1
 496.889648438 414.733398438 l 1
 464.716796875 301 l 1
 464.716796875 0 l 1
 374.716796875 0 l 1
 374.716796875 340.112304688 l 1
 351.598632812 430.390625 l 1
 281.2734375 462.786132812 l 1
 175.078125 402.231445312 l 1
 150.520507812 269 l 1
 150.520507812 0 l 1
 60.318359375 0 l 1xbc
EndSplineSet
EndChar

StartChar: n
Encoding: 110 110 80
Width: 555
GlyphClass: 2
Flags: MW
HStem: 0 21G<62.5225 62.5225 62.5225 152.522 402 402 402 492> 459 61 459 76
VStem: 68.835 90 403.835 90
LayerCount: 2
Fore
SplineSet
62.5224609375 0 m 1xb8
 62.5224609375 520 l 1
 143.522460938 520 l 1
 143.522460938 445 l 1
 214.392578125 518.918945312 l 1
 311.592773438 540.350585938 l 1
 457.930664062 477.592773438 l 1
 492 319 l 1
 492 0 l 1
 402 0 l 1
 402 319 l 1
 377.583007812 423.791015625 l 1
 293.278320312 462.786132812 l 1
 191.549804688 416.61328125 l 1
 152.522460938 283 l 1
 152.522460938 0 l 1
 62.5224609375 0 l 1xb8
EndSplineSet
EndChar

StartChar: o
Encoding: 111 111 81
Width: 556
GlyphClass: 2
Flags: MW
HStem: -15 75 460 75
VStem: 35 90 431 90
LayerCount: 2
Fore
SplineSet
277.971679688 540.5 m 1
 457.07421875 466.047851562 l 1
 525.889648438 260.008789062 l 1
 457.010742188 54.00390625 l 1
 277.971679688 -20.482421875 l 1
 98.9765625 53.9697265625 l 1
 30.1396484375 260.008789062 l 1
 98.9443359375 466.047851562 l 1
 277.971679688 540.5 l 1
277.971679688 55.9765625 m 1
 386.282226562 103.637695312 l 1
 434.12109375 259.923828125 l 1
 386.282226562 416.251953125 l 1
 277.971679688 463.956054688 l 1
 169.780273438 416.251953125 l 1
 121.9921875 259.923828125 l 1
 169.747070312 103.637695312 l 1
 277.971679688 55.9765625 l 1
EndSplineSet
EndChar

StartChar: p
Encoding: 112 112 82
Width: 550
GlyphClass: 2
Flags: MW
HStem: -200 21G<65 65 65 155> -15 75 460 60 460 75
VStem: 67.7334 79 427.733 90
LayerCount: 2
Fore
SplineSet
65 -200 m 1xdc
 65 520 l 1
 145 520 l 1
 145 449 l 1
 206.607421875 518.111328125 l 1
 294.734375 542.349609375 l 1
 463.715820312 464.071289062 l 1
 522.41015625 261.859375 l 1
 463.715820312 59.6474609375 l 1
 294.734375 -18.6318359375 l 1
 211.407226562 2.1455078125 l 1
 155 55 l 1
 155 -200 l 1
 65 -200 l 1xdc
289.631835938 57.8271484375 m 1
 390.244140625 109.315429688 l 1
 430.387695312 261.774414062 l 1
 390.244140625 414.275390625 l 1
 289.631835938 465.806640625 l 1
 190.327148438 414.275390625 l 1
 143.772460938 261.774414062 l 1
 186.499023438 109.315429688 l 1
 289.631835938 57.8271484375 l 1
EndSplineSet
EndChar

StartChar: q
Encoding: 113 113 83
Width: 550
GlyphClass: 2
Flags: MW
HStem: -200 21G<395 395 395 485> -15 75 460 60 460 75
VStem: 32.1758 90 392.176 90
LayerCount: 2
Fore
SplineSet
395 -200 m 1xdc
 395 55 l 1
 335.69140625 0.5634765625 l 1
 255.180664062 -18.6318359375 l 1
 86.28515625 59.6474609375 l 1
 27.6748046875 261.859375 l 1
 86.28515625 464.071289062 l 1
 255.180664062 542.349609375 l 1
 345.044921875 517.609375 l 1
 405 449 l 1
 405 520 l 1
 485 520 l 1
 485 -200 l 1
 395 -200 l 1xdc
260.283203125 465.890625 m 1
 159.819335938 414.360351562 l 1
 119.698242188 261.859375 l 1
 159.819335938 109.401367188 l 1
 260.283203125 57.912109375 l 1
 363.458984375 109.401367188 l 1
 406.227539062 261.859375 l 1
 359.663085938 414.360351562 l 1
 260.283203125 465.890625 l 1
EndSplineSet
EndChar

StartChar: r
Encoding: 114 114 84
Width: 385
GlyphClass: 2
Flags: MW
HStem: 0 21G<155 155> 450 70 450 85
VStem: 66.2979 90
LayerCount: 2
Fore
SplineSet
285.428710938 453.368164062 m 1xd0
 187.903320312 406.379882812 l 1
 155 281 l 1
 155 0 l 1
 65 5.0869140625 l 1
 65 520 l 1
 146 520 l 1
 146 430 l 1
 205.986328125 513.727539062 l 1
 291.909179688 540.348632812 l 1
 380 507 l 1
 353 431 l 1
 285.428710938 453.368164062 l 1xd0
EndSplineSet
EndChar

StartChar: s
Encoding: 115 115 85
Width: 493
GlyphClass: 2
Flags: MW
HStem: -15 75 460 75
VStem: 40 86 368 90
LayerCount: 2
Fore
SplineSet
119.426757812 161.098632812 m 1
 155.391601562 87.53125 l 1
 250.997070312 56.0634765625 l 1
 330.146484375 72.12890625 l 1
 370.321289062 132.522460938 l 1
 354.36328125 180.668945312 l 1
 294 211 l 1
 165.859375 244.896484375 l 1
 75.626953125 287.94140625 l 1
 35.6533203125 383.416992188 l 1
 97.2607421875 503.674804688 l 1
 240.706054688 540.501953125 l 1
 385.502929688 498.061523438 l 1
 429.541015625 410.961914062 l 1
 353.822265625 375.251953125 l 1
 318.791992188 441.419921875 l 1
 237.283203125 463.650390625 l 1
 152.447265625 444.821289062 l 1
 123.508789062 393.537109375 l 1
 145.602539062 352 l 1
 213 325 l 1
 334.2265625 292.227539062 l 1
 421.828125 247.21875 l 1
 462.258789062 140.516601562 l 1
 394.931640625 15.9541015625 l 1
 247.936523438 -20.6513671875 l 1
 93.8798828125 23.3193359375 l 1
 42.9609375 125.361328125 l 1
 119.426757812 161.098632812 l 1
EndSplineSet
EndChar

StartChar: t
Encoding: 116 116 86
Width: 322
GlyphClass: 2
Flags: MW
HStem: -10 80 451 69<20 94 20 94 184 273> 680 20G<94 184 184 184>
VStem: 94.0967 90
LayerCount: 2
Fore
SplineSet
285.784179688 -6.974609375 m 1
 217.001953125 -16.5859375 l 1
 114.528320312 26.4404296875 l 1
 94 152 l 1
 94 451 l 1
 20 451 l 1
 20 520 l 1
 94 520 l 1
 94 700 l 1
 184 700 l 1
 184 520 l 1
 273 520 l 1
 273 451 l 1
 184 451 l 1
 184 152 l 1
 191.75390625 86.5361328125 l 1
 235.118164062 64.5673828125 l 1
 275.420898438 70.60546875 l 1
 285.801757812 -6.9580078125 l 1
 285.784179688 -6.974609375 l 1
EndSplineSet
EndChar

StartChar: u
Encoding: 117 117 87
Width: 555
GlyphClass: 2
Flags: MW
HStem: -15 76 0 61 500 20G<62 152 152 152 401.477 491.477 491.477 491.477>
VStem: 62.0586 90 397.059 90
LayerCount: 2
Fore
SplineSet
491.4765625 520 m 1x38
 491.4765625 0 l 1
 410.4765625 0 l 1
 410.4765625 75 l 1
 339.522460938 3.7451171875 l 1
 242.323242188 -20.3232421875 l 1
 95.9541015625 42.3916015625 l 1
 62 202 l 1
 62 520 l 1
 152 520 l 1
 152 202.673828125 l 1
 176.458984375 96.1845703125 l 1
 260.806640625 57.15625 l 1
 362.4921875 103.329101562 l 1
 401.4765625 238.088867188 l 1
 401.4765625 520 l 1
 491.4765625 520 l 1x38
EndSplineSet
EndChar

StartChar: v
Encoding: 118 118 88
Width: 495
GlyphClass: 2
Flags: MW
HStem: 0 21G<207 289 207 207> 500 20G
LayerCount: 2
Fore
SplineSet
289 0 m 1
 207 0 l 1
 18 500 l 1
 98 528 l 1
 247 104 l 1
 398 528 l 1
 478 500 l 1
 289 0 l 1
EndSplineSet
EndChar

StartChar: w
Encoding: 119 119 89
Width: 731
GlyphClass: 2
Flags: MW
HStem: 0 21G<167 260 167 167 468 468 468 559> 500 20G<321 412 412 412>
LayerCount: 2
Fore
SplineSet
260 0 m 1
 167 0 l 1
 16 504 l 1
 99 528 l 1
 214 108 l 1
 321 520 l 1
 412 520 l 1
 517 119 l 1
 639 528 l 1
 716 504 l 1
 559 0 l 1
 468 0 l 1
 368 399 l 1
 260 0 l 1
EndSplineSet
EndChar

StartChar: x
Encoding: 120 120 90
Width: 517
GlyphClass: 2
Flags: MW
HStem: 0 21G 500 20G
LayerCount: 2
Fore
SplineSet
119 -8 m 1
 49 40.75 l 1
 205 266 l 1
 59 481 l 1
 134 528 l 1
 260 332 l 1
 387 528 l 1
 456 481 l 1
 307 269 l 1
 468 41 l 1
 396 -8 l 1
 257 200 l 1
 119 -8 l 1
EndSplineSet
EndChar

StartChar: y
Encoding: 121 121 91
Width: 500
GlyphClass: 2
Flags: MW
HStem: -210 79 500 20G
LayerCount: 2
Fore
SplineSet
106 -132 m 1
 152.963867188 -112.497070312 l 1
 191.5 -51.4365234375 l 1
 212.116210938 5.037109375 l 1
 19 498 l 1
 100 528 l 1
 254.056640625 115.017578125 l 1
 405 528 l 1
 482 498 l 1
 275.240234375 -57.53125 l 1
 216.19140625 -167.111328125 l 1
 117.978515625 -210.002929688 l 1
 60.9462890625 -200.080078125 l 1
 77 -127 l 1
 106 -132 l 1
EndSplineSet
EndChar

StartChar: z
Encoding: 122 122 92
Width: 499
GlyphClass: 2
Flags: HMW
HStem: 0 75<141 459 40 40> 445 75<59 347 59 453 59 453>
LayerCount: 2
Fore
SplineSet
443.20703125 37.5 m 1
 53.60546875 34.5 l 1
 87.5 75 l 1
 397 445 l 1
 347 479.5 l 1
 74.16796875 482.5 l 1
 440.256835938 485.5 l 1
 403 445 l 1
 93.5 75 l 1
 141 40.5 l 1
 443.20703125 37.5 l 1
EndSplineSet
EndChar

StartChar: braceleft
Encoding: 123 123 93
Width: 319
GlyphClass: 2
Flags: MW
HStem: -110 69 755 69
VStem: 20 160 90 90 90 189
LayerCount: 2
Fore
SplineSet
233.094726562 755.513671875 m 1xe0
 190.551757812 729.454101562 l 1
 180.6015625 614.13671875 l 1
 179.920898438 456.907226562 l 1
 154.688476562 387.583007812 l 1
 109.125976562 356.8046875 l 1
 156.912109375 323.047851562 l 1
 180.567382812 250.875976562 l 1
 181.33203125 52.06640625 l 1
 190.490234375 -15.8798828125 l 1
 246.813476562 -49.1328125 l 1
 269.329101562 -48.966796875 l 1
 281.663085938 -109.34765625 l 1
 231.895507812 -118.65234375 l 1
 118.444335938 -67.1728515625 l 1
 88.857421875 70.1474609375 l 1
 88.26171875 236.392578125 l 1
 66.5244140625 306.073242188 l 1
 17.4091796875 326.357421875 l 1
 17.4091796875 387.591796875 l 1
 66.5244140625 407.868164062 l 1
 88.8505859375 483.314453125 l 1
 89.7099609375 651.533203125 l 1
 118.440429688 781.036132812 l 1
 233.69140625 833.333007812 l 1
 281.659179688 823.211914062 l 1
 270.369140625 760.913085938 l 1
 233.094726562 755.513671875 l 1xe0
EndSplineSet
EndChar

StartChar: bar
Encoding: 124 124 94
Width: 255
GlyphClass: 2
Flags: MW
HStem: -100 21G<80 175 80 80> 800 20G<80 175 175 175>
VStem: 80 95<-100 820>
LayerCount: 2
Fore
SplineSet
175 -100 m 1
 80 -100 l 1
 80 820 l 1
 175 820 l 1
 175 -100 l 1
EndSplineSet
EndChar

StartChar: braceright
Encoding: 125 125 95
Width: 319
GlyphClass: 2
Flags: MW
HStem: -110 69 755 69
VStem: 40 189 139 90 139 160
LayerCount: 2
Fore
SplineSet
37.41015625 822.924804688 m 1xe0
 87.09375 832.229492188 l 1
 200.533203125 780.75 l 1
 230.045898438 643.428710938 l 1
 230.641601562 477.184570312 l 1
 252.387695312 407.581054688 l 1
 301.578125 387.3046875 l 1
 301.578125 326.069335938 l 1
 252.387695312 305.78515625 l 1
 230.051757812 230.262695312 l 1
 229.193359375 62.0439453125 l 1
 200.53515625 -67.4599609375 l 1
 85.2939453125 -119.755859375 l 1
 37.412109375 -109.635742188 l 1
 51.6904296875 -46.904296875 l 1
 86.0400390625 -42.1923828125 l 1
 128.552734375 -16.1328125 l 1
 138.534179688 99.185546875 l 1
 139.21484375 256.415039062 l 1
 164.416015625 325.73828125 l 1
 210.01171875 356.517578125 l 1
 162.162109375 390.272460938 l 1
 138.569335938 462.446289062 l 1
 137.8046875 661.255859375 l 1
 128.6171875 729.166992188 l 1
 72.3251953125 762.455078125 l 1
 52.7099609375 762.455078125 l 1
 37.4765625 822.924804688 l 1
 37.41015625 822.924804688 l 1xe0
EndSplineSet
EndChar

StartChar: asciitilde
Encoding: 126 126 96
Width: 526
GlyphClass: 2
Flags: MW
HStem: 270 90 360 90
LayerCount: 2
Fore
SplineSet
25.33984375 391.565429688 m 1x00
 90.328125 437.491210938 l 1
 163.034179688 452.799804688 l 1
 270.568359375 406.874023438 l 1
 362.983398438 360.947265625 l 1
 439.484375 381.359375 l 1
 458.83984375 395.680664062 l 1
 500.677734375 330.415039062 l 1
 435.626953125 284.48828125 l 1
 362.983398438 269.1796875 l 1
 255.482421875 315.063476562 l 1
 163.034179688 360.947265625 l 1
 86.533203125 340.578125 l 1
 66.1396484375 325.299804688 l 1
 25.33984375 391.565429688 l 1x00
EndSplineSet
EndChar

StartChar: exclamdown
Encoding: 161 161 98
Width: 239
GlyphClass: 2
Flags: MW
HStem: -200 21G 420 100
VStem: 80 78
LayerCount: 2
Fore
SplineSet
143.48046875 407.999023438 m 1
 97.25 408 l 1
 64.3974609375 443.745117188 l 1
 64.419921875 494.548828125 l 1
 96.69921875 530.899414062 l 1
 142.9296875 530.8984375 l 1
 176.08984375 494.44921875 l 1
 176.009765625 443.599609375 l 1
 143.48046875 407.999023438 l 1
90.4296875 345.6328125 m 1
 147.549804688 345.6328125 l 1
 169.990234375 -207.20703125 l 1
 69.009765625 -207.20703125 l 1
 90.4296875 345.6328125 l 1
EndSplineSet
EndChar

StartChar: cent
Encoding: 162 162 99
Width: 524
GlyphClass: 2
Flags: MW
HStem: -115 21G<236 311 236 236> 615 20G<236 311 311 311>
VStem: 35.1016 90 236.102 75
LayerCount: 2
Fore
SplineSet
236 -22.9423828125 m 1
 83.4501953125 63.5390625 l 1
 26.9326171875 260.036132812 l 1
 83.515625 456.142578125 l 1
 236 543.013671875 l 1
 236 635 l 1
 311 635 l 1
 311 544 l 1
 432.291992188 486.973632812 l 1
 490 384 l 1
 408.630859375 345.310546875 l 1
 370.739257812 425.278320312 l 1
 311 462 l 1
 311 57 l 1
 373.040039062 96.7734375 l 1
 408.630859375 173.633789062 l 1
 490 135 l 1
 432.291992188 32.1357421875 l 1
 311 -23.5595703125 l 1
 311 -115 l 1
 236 -115 l 1
 236 -22.9423828125 l 1
236 56.087890625 m 1
 236 462.856445312 l 1
 153.641601562 401.577148438 l 1
 120.53515625 259.94921875 l 1
 153.674804688 117.844726562 l 1
 236 56.087890625 l 1
EndSplineSet
EndChar

StartChar: currency
Encoding: 164 164 100
Width: 556
GlyphClass: 2
Flags: MW
HStem: 137 21G 175 75 470 75 564 20G
VStem: 103 77 378 77
LayerCount: 2
Fore
SplineSet
382.122070312 203.01953125 m 1
 276.493164062 171.764648438 l 1
 174.943359375 203.028320312 l 1
 105.627929688 132.607421875 l 1
 51.537109375 186.69921875 l 1
 123.999023438 260.095703125 l 1
 100.204101562 365.1484375 l 1
 124.002929688 460.045898438 l 1
 51.541015625 534.462890625 l 1
 105.631835938 588.469726562 l 1
 175.96875 517.11328125 l 1
 281.594726562 548.360351562 l 1
 382.126953125 517.10546875 l 1
 452.461914062 588.459960938 l 1
 506.552734375 534.455078125 l 1
 433.15625 460.037109375 l 1
 458.217773438 356.184570312 l 1
 434.267578125 260.086914062 l 1
 506.729492188 186.689453125 l 1
 452.638671875 132.598632812 l 1
 382.125976562 203.01953125 l 1
 382.122070312 203.01953125 l 1
279.04296875 247.924804688 m 1
 350.581054688 275.727539062 l 1
 380.081054688 360.104492188 l 1
 350.64453125 444.515625 l 1
 279.04296875 472.284179688 l 1
 209.004882812 444.482421875 l 1
 178.005859375 360.104492188 l 1
 207.506835938 275.727539062 l 1
 279.04296875 247.924804688 l 1
EndSplineSet
EndChar

StartChar: yen
Encoding: 165 165 101
Width: 675
GlyphClass: 2
Flags: MW
HStem: 0 21G<290 385 290 290> 700 20G
VStem: 290 95<0 108 183 238>
LayerCount: 2
Fore
SplineSet
385 0 m 1
 290 0 l 1
 290 108 l 1
 140 108 l 1
 140 183 l 1
 290 183 l 1
 290 238 l 1
 140 238 l 1
 140 313 l 1
 283 313 l 1
 39 676 l 1
 120 728.090820312 l 1
 342 383 l 1
 560 728.090820312 l 1
 636 676 l 1
 391 313 l 1
 535 313 l 1
 535 238 l 1
 385 238 l 1
 385 183 l 1
 535 183 l 1
 535 108 l 1
 385 108 l 1
 385 0 l 1
EndSplineSet
EndChar

StartChar: brokenbar
Encoding: 166 166 102
Width: 255
GlyphClass: 2
Flags: MW
HStem: -100 21G<80 175 80 80> 800 20G<80 175 175 175>
VStem: 80 95<-100 325 410 820>
LayerCount: 2
Fore
SplineSet
175 -100 m 1
 80 -100 l 1
 80 325 l 1
 175 325 l 1
 175 -100 l 1
80 410 m 1
 80 820 l 1
 175 820 l 1
 175 410 l 1
 80 410 l 1
EndSplineSet
EndChar

StartChar: section
Encoding: 167 167 103
Width: 493
GlyphClass: 2
Flags: MW
HStem: -15 75 660 75
VStem: 40 86 368 90
LayerCount: 2
Fore
SplineSet
121.966796875 162.921875 m 1
 157.268554688 90.796875 l 1
 251.041015625 59.9453125 l 1
 328.564453125 74.6953125 l 1
 367.94140625 132.904296875 l 1
 352.275390625 172.551757812 l 1
 296.900390625 194.939453125 l 1
 169.911132812 228.958984375 l 1
 79.015625 277.3203125 l 1
 39.8359375 375.9609375 l 1
 59.34765625 438.420898438 l 1
 99.8701171875 476.935546875 l 1
 56.033203125 518.458984375 l 1
 39.8359375 580.995117188 l 1
 100.235351562 698.862304688 l 1
 240.868164062 735 l 1
 382.866210938 693.392578125 l 1
 425 610 l 1
 351.848632812 572.990234375 l 1
 317.46484375 637.861328125 l 1
 238.8671875 659.95703125 l 1
 154.33984375 641.196289062 l 1
 125.96875 590.916992188 l 1
 146.35546875 553.720703125 l 1
 190.005859375 535.96875 l 1
 330.169921875 494.9453125 l 1
 421.482421875 445.7421875 l 1
 458.076171875 346.943359375 l 1
 442.567382812 286.826171875 l 1
 409.047851562 246.969726562 l 1
 444.068359375 205.821289062 l 1
 458.076171875 142.91015625 l 1
 392.080078125 20.7900390625 l 1
 248.0390625 -15.09765625 l 1
 96.900390625 28.0107421875 l 1
 48 125 l 1
 121.966796875 162.921875 l 1
316.026367188 281.28125 m 1
 337.173828125 275.944335938 l 1
 359.436523438 297.70703125 l 1
 368.19140625 329.975585938 l 1
 352.484375 382.213867188 l 1
 297.067382812 414.94140625 l 1
 177.165039062 446.959960938 l 1
 138.892578125 422.829101562 l 1
 126.135742188 386.0078125 l 1
 146.376953125 340.798828125 l 1
 190.005859375 315.967773438 l 1
 316.026367188 281.28125 l 1
EndSplineSet
EndChar

StartChar: copyright
Encoding: 169 169 104
Width: 590
GlyphClass: 2
Flags: MW
HStem: -15 70 107 66 346 66 465 70
VStem: 35 76 162 66 479 76
LayerCount: 2
Fore
SplineSet
294.899414062 535 m 1
 481.892578125 458.255859375 l 1
 554.881835938 260.008789062 l 1
 481.892578125 61.76171875 l 1
 294.899414062 -14.982421875 l 1
 107.979492188 61.76171875 l 1
 35 260.008789062 l 1
 107.916992188 458.255859375 l 1
 294.899414062 535 l 1
294.899414062 54.974609375 m 1
 431.561523438 115.1171875 l 1
 478.921875 259.92578125 l 1
 431.561523438 404.80859375 l 1
 294.899414062 464.959960938 l 1
 158.26953125 404.80859375 l 1
 110.876953125 259.92578125 l 1
 158.299804688 115.1171875 l 1
 294.899414062 54.974609375 l 1
294.899414062 172.958984375 m 1
 335.229492188 188.150390625 l 1
 355.850585938 223.98828125 l 1
 411 194 l 1
 377.655273438 133.060546875 l 1
 294.732421875 106.920898438 l 1
 196.030273438 153.064453125 l 1
 161.739257812 259.92578125 l 1
 195.967773438 366.319335938 l 1
 294.732421875 411.9296875 l 1
 377.592773438 385.922851562 l 1
 410 328 l 1
 355.850585938 295.946289062 l 1
 332.235351562 332.725585938 l 1
 294.899414062 345.974609375 l 1
 245.24609375 321.7109375 l 1
 228.266601562 258.465820312 l 1
 245.30859375 197.33984375 l 1
 294.899414062 172.958984375 l 1
EndSplineSet
EndChar

StartChar: guillemotleft
Encoding: 171 171 105
Width: 411
GlyphClass: 2
Flags: MW
HStem: 94 21G<231 231 371 371> 412 20G<231 231 371 371>
LayerCount: 2
Fore
SplineSet
180 263 m 1
 318 466 l 1
 371 432 l 1
 277 263 l 1
 371 94 l 1
 318 59.5 l 1
 180 263 l 1
40 263 m 1
 177 466 l 1
 231 432 l 1
 137 263 l 1
 231 94 l 1
 180 59.5 l 1
 40 263 l 1
EndSplineSet
EndChar

StartChar: registered
Encoding: 174 174 106
Width: 590
GlyphClass: 2
Flags: MW
HStem: -15 70 123 160 357 54 465 70
VStem: 35 76 192 63 335 64 479 76
LayerCount: 2
Fore
SplineSet
294.982421875 535 m 1
 481.944335938 458.255859375 l 1
 554.96484375 260.008789062 l 1
 481.944335938 61.76171875 l 1
 294.982421875 -14.982421875 l 1
 107.990234375 61.76171875 l 1
 35 260.008789062 l 1
 107.990234375 458.255859375 l 1
 294.982421875 535 l 1
294.982421875 54.974609375 m 1
 431.61328125 115.1171875 l 1
 479.004882812 259.92578125 l 1
 431.612304688 404.80859375 l 1
 294.982421875 464.959960938 l 1
 158.321289062 404.80859375 l 1
 110.959960938 259.92578125 l 1
 158.352539062 115.1171875 l 1
 294.982421875 54.974609375 l 1
261.879882812 228.991210938 m 1
 254.875976562 228.991210938 l 1
 254.875976562 123.013671875 l 1
 191.83984375 123.013671875 l 1
 192.006835938 411.01171875 l 1
 287.978515625 411.01171875 l 1
 365.168945312 393.760742188 l 1
 398.958984375 327.046875 l 1
 380.208984375 274.55078125 l 1
 333.004882812 249.001953125 l 1
 369.233398438 225.864257812 l 1
 391.955078125 189.96875 l 1
 412 152 l 1
 355.850585938 122.9296875 l 1
 333.004882812 170.958007812 l 1
 303.852539062 215.358398438 l 1
 261.879882812 228.991210938 l 1
255.04296875 283.021484375 m 1
 287.061523438 283.021484375 l 1
 324.198242188 293.528320312 l 1
 335.005859375 322.043945312 l 1
 320.998046875 350.060546875 l 1
 285.977539062 357.064453125 l 1
 255.04296875 357.064453125 l 1
 255.04296875 283.021484375 l 1
EndSplineSet
EndChar

StartChar: degree
Encoding: 176 176 107
Width: 360
GlyphClass: 2
Flags: MW
HStem: 475 62 672 63
VStem: 50 62 247 63
LayerCount: 2
Fore
SplineSet
180.158203125 735 m 1
 272.106445312 696.611328125 l 1
 310.149414062 605.008789062 l 1
 272.168945312 513.03125 l 1
 180.158203125 475.017578125 l 1
 88.408203125 513.03125 l 1
 50 605.008789062 l 1
 88.533203125 696.611328125 l 1
 180.158203125 735 l 1
180.158203125 536.969726562 m 1
 227.831054688 556.72265625 l 1
 247.11328125 604.92578125 l 1
 227.831054688 652.327148438 l 1
 180.158203125 671.963867188 l 1
 132.296875 652.327148438 l 1
 112.202148438 604.92578125 l 1
 132.296875 556.72265625 l 1
 180.158203125 536.969726562 l 1
EndSplineSet
EndChar

StartChar: plusminus
Encoding: 177 177 108
Width: 556
GlyphClass: 2
Flags: MW
HStem: 115 75<50 506 50 506> 415 75<50 240 50 240 315 506> 660 20G<240 315 315 315>
VStem: 240 75<254 415 254 415 490 680>
LayerCount: 2
Fore
SplineSet
315 415 m 1
 315 254 l 1
 240 254 l 1
 240 415 l 1
 50 415 l 1
 50 490 l 1
 240 490 l 1
 240 680 l 1
 315 680 l 1
 315 490 l 1
 506 490 l 1
 506 415 l 1
 315 415 l 1
506 115 m 1
 50 115 l 1
 50 190 l 1
 506 190 l 1
 506 115 l 1
EndSplineSet
EndChar

StartChar: acute
Encoding: 180 180 109
Width: 284
GlyphClass: 2
Flags: W
LayerCount: 2
Fore
SplineSet
233.240234375 774.103515625 m 1
 144.379882812 560.931640625 l 1
 194.379882812 532.931640625 l 1
 323 727.090820312 l 1
 233.240234375 774.103515625 l 1
EndSplineSet
EndChar

StartChar: paragraph
Encoding: 182 182 110
Width: 556
GlyphClass: 2
Flags: MW
HStem: -100 21G 735 85
VStem: 211 80 380 83
LayerCount: 2
Fore
SplineSet
210.947265625 -100.028320312 m 1
 210.947265625 415.934570312 l 1
 68.5859375 469.584960938 l 1
 12.34765625 613.827148438 l 1
 78.8984375 772.0703125 l 1
 250.422851562 820 l 1
 544.0546875 820 l 1
 544.0546875 734.951171875 l 1
 463.008789062 734.951171875 l 1
 463.008789062 -100.028320312 l 1
 380.043945312 -100.028320312 l 1
 380.043945312 735.034179688 l 1
 291.076171875 735.034179688 l 1
 291.076171875 -99.9453125 l 1
 210.947265625 -100.028320312 l 1
EndSplineSet
EndChar

StartChar: periodcentered
Encoding: 183 183 111
Width: 231
GlyphClass: 2
Flags: MW
HStem: 212 100
VStem: 70 91
LayerCount: 2
Fore
SplineSet
77.60546875 199.208007812 m 1
 41.4033203125 262.202148438 l 1
 77.857421875 325.056640625 l 1
 150.516601562 324.908203125 l 1
 186.71875 261.9140625 l 1
 150.26171875 199.068359375 l 1
 77.60546875 199.208007812 l 1
EndSplineSet
EndChar

StartChar: guillemotright
Encoding: 187 187 112
Width: 411
GlyphClass: 2
Flags: MW
HStem: 94 21G<40 40 180 180> 412 20G<40 40 180 180>
LayerCount: 2
Fore
SplineSet
231 263 m 1
 93 59.5 l 1
 40 94 l 1
 134 263 l 1
 40 432 l 1
 93 466 l 1
 231 263 l 1
371 263 m 1
 231 59.5 l 1
 180 94 l 1
 274 263 l 1
 180 432 l 1
 234 466 l 1
 371 263 l 1
EndSplineSet
EndChar

StartChar: questiondown
Encoding: 191 191 113
Width: 556
GlyphClass: 2
Flags: MW
HStem: -215 80 420 100
VStem: 49 95 225 95
LayerCount: 2
Fore
SplineSet
298 408 m 1
 251.76953125 408.000976562 l 1
 218.916992188 443.74609375 l 1
 218.939453125 494.549804688 l 1
 251.21875 530.900390625 l 1
 297.44921875 530.899414062 l 1
 330.609375 494.450195312 l 1
 330.529296875 443.600585938 l 1
 298 408 l 1
320.2578125 347.8046875 m 1
 320.2578125 320.333984375 l 1
 299.081054688 212.228515625 l 1
 227.384765625 131.611328125 l 1
 167.276367188 72.552734375 l 1
 140.719726562 -10.166015625 l 1
 181.48046875 -111.381835938 l 1
 277.223632812 -140.715820312 l 1
 368.5234375 -105.896484375 l 1
 413.896484375 3.1015625 l 1
 492 -28 l 1
 431.129882812 -165.217773438 l 1
 278.07421875 -222.36328125 l 1
 108.072265625 -166.366210938 l 1
 43.5087890625 -16.2890625 l 1
 83.9716796875 103.672851562 l 1
 170.997070312 187.658203125 l 1
 219.688476562 247.447265625 l 1
 233.16796875 320.249023438 l 1
 233.16796875 347.8046875 l 1
 320.2578125 347.8046875 l 1
EndSplineSet
EndChar

StartChar: Aacute
Encoding: 193 193 114
Width: 675
GlyphClass: 2
Flags: MW
HStem: 0 21G 700 20G<290 387 387 387> 970 20G
LayerCount: 2
Fore
SplineSet
358 927.5 m 1
 301 790 l 1
 351 762 l 1
 432 884 l 1
 358 927.5 l 1
167 159 m 1
 104 -8 l 1
 19 24 l 1
 290 720 l 1
 387 720 l 1
 656 23.8330078125 l 1
 565 -8 l 1
 504 156 l 1
 497 175 l 1
 173 175 l 1
 167 159 l 1
466 260 m 1
 338 611 l 1
 205 260 l 1
 466 260 l 1
EndSplineSet
EndChar

StartChar: Acircumflex
Encoding: 194 194 115
Width: 675
GlyphClass: 2
Flags: MW
HStem: 0 21G 175 85<205 466 205 497 173 466> 700 20G<290 387 387 387> 950 20G
LayerCount: 2
Fore
SplineSet
300 950 m 1
 184 795 l 1
 229.379882812 760.5 l 1
 338 891 l 1
 444 761.5 l 1
 490 796 l 1
 379 950 l 1
 338 950 l 1
 300 950 l 1
167 159 m 1
 104 -8 l 1
 19 24 l 1
 290 720 l 1
 387 720 l 1
 656 23.8330078125 l 1
 565 -8 l 1
 504 156 l 1
 497 175 l 1
 173 175 l 1
 167 159 l 1
466 260 m 1
 338 611 l 1
 205 260 l 1
 466 260 l 1
EndSplineSet
EndChar

StartChar: Atilde
Encoding: 195 195 116
Width: 675
GlyphClass: 2
Flags: MW
HStem: 0 21G 175 85<205 466 205 497 173 466> 700 20G<290 387 387 387> 860 31 860 81
LayerCount: 2
Fore
SplineSet
151.865234375 877.770507812 m 1x00
 203.85546875 914.510742188 l 1
 262.020507812 926.7578125 l 1
 348.047851562 890.017578125 l 1
 421.979492188 853.275390625 l 1
 483.180664062 869.60546875 l 1
 498.665039062 881.0625 l 1
 532.134765625 828.849609375 l 1
 480.094726562 792.108398438 l 1
 421.979492188 779.861328125 l 1
 335.978515625 816.568359375 l 1
 262.020507812 853.275390625 l 1
 200.819335938 836.98046875 l 1
 184.504882812 824.7578125 l 1
 151.865234375 877.770507812 l 1x00
167 159 m 1xe0
 104 -8 l 1
 19 24 l 1
 290 720 l 1
 387 720 l 1
 656 23.8330078125 l 1
 565 -8 l 1
 504 156 l 1
 497 175 l 1
 173 175 l 1
 167 159 l 1xe0
466 260 m 1
 338 611 l 1
 205 260 l 1
 466 260 l 1
EndSplineSet
EndChar

StartChar: Adieresis
Encoding: 196 196 117
Width: 675
GlyphClass: 2
Flags: MW
HStem: 0 21G 175 85<205 466 205 497 173 466> 700 20G<290 387 387 387> 819 101
VStem: 197 90 387 90
LayerCount: 2
Fore
SplineSet
167 159 m 1
 104 -8 l 1
 19 24 l 1
 290 720 l 1
 387 720 l 1
 656 23.8330078125 l 1
 565 -8 l 1
 504 156 l 1
 497 175 l 1
 173 175 l 1
 167 159 l 1
466 260 m 1
 338 611 l 1
 205 260 l 1
 466 260 l 1
455 807 m 1
 409 807 l 1
 376 843 l 1
 376 894 l 1
 409 930 l 1
 455 930 l 1
 488 894 l 1
 488 843 l 1
 455 807 l 1
266 807 m 1
 219 807 l 1
 186 843 l 1
 186 894 l 1
 219 930 l 1
 265 930 l 1
 298 894 l 1
 298 843 l 1
 266 807 l 1
EndSplineSet
EndChar

StartChar: Aring
Encoding: 197 197 118
Width: 675
GlyphClass: 2
Flags: MW
HStem: 0 21G 700 20G<290 387 387 387> 775 62 972 63
VStem: 208 62 405 63
LayerCount: 2
Fore
SplineSet
167 159 m 1
 104 -8 l 1
 19 24 l 1
 290 720 l 1
 387 720 l 1
 656 23.8330078125 l 1
 565 -8 l 1
 504 156 l 1
 497 175 l 1
 173 175 l 1
 167 159 l 1
466 260 m 1
 338 611 l 1
 205 260 l 1
 466 260 l 1
337.158203125 1035 m 1
 429.106445312 996.611328125 l 1
 467.149414062 905.008789062 l 1
 429.168945312 813.03125 l 1
 337.158203125 775.017578125 l 1
 245.408203125 813.03125 l 1
 207 905.008789062 l 1
 245.533203125 996.611328125 l 1
 337.158203125 1035 l 1
337.158203125 836.969726562 m 1
 384.831054688 856.72265625 l 1
 404.11328125 904.92578125 l 1
 384.831054688 952.327148438 l 1
 337.158203125 971.963867188 l 1
 289.296875 952.327148438 l 1
 269.202148438 904.92578125 l 1
 289.296875 856.72265625 l 1
 337.158203125 836.969726562 l 1
EndSplineSet
EndChar

StartChar: AE
Encoding: 198 198 119
Width: 1064
GlyphClass: 2
Flags: MW
HStem: 0 85<582 994 582 994> 172 85<286 487 286 487 233 487> 325 85<582 934 582 934> 635 85<582 984 582 582>
VStem: 487 95<85 172 172 172 257 325 410 580 580 580>
LayerCount: 2
Fore
SplineSet
116 -15 m 1
 39 30 l 1
 477 720 l 1
 984 720 l 1
 984 635 l 1
 582 635 l 1
 582 410 l 1
 934 410 l 1
 934 325 l 1
 582 325 l 1
 582 85 l 1
 994 85 l 1
 994 0 l 1
 487 0 l 1
 487 172 l 1
 233 172 l 1
 116 -15 l 1
487 257 m 1
 487 580 l 1
 286 257 l 1
 487 257 l 1
EndSplineSet
EndChar

StartChar: Ccedilla
Encoding: 199 199 120
Width: 734
GlyphClass: 2
Flags: MW
HStem: -242 50 -92 48 -15 80 655 80
VStem: 50 100 419 48
LayerCount: 2
Fore
SplineSet
591.291015625 490.729492188 m 1
 524.368164062 615.198242188 l 1
 383.26171875 663.123046875 l 1
 207.029296875 576.551757812 l 1
 145.549804688 362.219726562 l 1
 203.203125 147.921875 l 1
 383.26171875 61.3173828125 l 1
 517.54296875 108.349609375 l 1
 591.291015625 232.69140625 l 1
 672 184 l 1
 587.186523438 44.89453125 l 1
 383.26171875 -20.244140625 l 1
 381.7734375 -20.244140625 l 1
 380.284179688 -20.244140625 l 1
 374.076171875 -35.04296875 l 1
 367.868164062 -49.8408203125 l 1
 374.500976562 -49.8408203125 l 1
 381.134765625 -49.8408203125 l 1
 444.87890625 -76.11328125 l 1
 468.8203125 -149.774414062 l 1
 444.87890625 -224.455078125 l 1
 381.134765625 -251.747070312 l 1
 329.904296875 -234.916015625 l 1
 301.444335938 -187.536132812 l 1
 324.407226562 -179.880859375 l 1
 347.370117188 -172.227539062 l 1
 360.383789062 -194.168945312 l 1
 381.049804688 -200.802734375 l 1
 408.094726562 -189.06640625 l 1
 419.83203125 -149.774414062 l 1
 408.180664062 -110.481445312 l 1
 381.220703125 -98.744140625 l 1
 381.220703125 -98.7021484375 l 1
 360.6171875 -106.016601562 l 1
 347.541015625 -129.362304688 l 1
 324.578125 -120.6875 l 1
 301.615234375 -112.012695312 l 1
 321.005859375 -64.59765625 l 1
 340.396484375 -17.18359375 l 1
 118.578125 105.610351562 l 1
 43.6611328125 362.219726562 l 1
 129.294921875 632.684570312 l 1
 383.26171875 744.76953125 l 1
 587.666015625 680.651367188 l 1
 675 535 l 1
 591.291015625 490.729492188 l 1
EndSplineSet
EndChar

StartChar: Eacute
Encoding: 201 201 121
Width: 657
GlyphClass: 2
Flags: MW
HStem: 0 85<175 587 175 587> 85 240<175 527 175 587 175 587> 325 85<175 527 175 527> 635 85<175 577 175 175> 970 20G
VStem: 80 95<85 325 410 635>
LayerCount: 2
Fore
SplineSet
338 927.5 m 1x1c
 412 884 l 1
 331 762 l 1
 281 790 l 1
 338 927.5 l 1x1c
587 0 m 1xb4
 80 0 l 1
 80 720 l 1
 577 720 l 1
 577 635 l 1
 175 635 l 1
 175 410 l 1
 527 410 l 1
 527 325 l 1
 175 325 l 1
 175 85 l 1
 587 85 l 1
 587 0 l 1xb4
EndSplineSet
EndChar

StartChar: Ecircumflex
Encoding: 202 202 122
Width: 657
GlyphClass: 2
Flags: MW
HStem: 0 85<175 587 175 587> 325 85<175 527 175 527> 635 85<175 577 175 175> 930 20G<282 282 282 320 320 361>
VStem: 80 95<85 325 410 635>
LayerCount: 2
Fore
SplineSet
282 950 m 1
 166 795 l 1
 211.379882812 760.5 l 1
 320 891 l 1
 426 761.5 l 1
 472 796 l 1
 361 950 l 1
 320 950 l 1
 282 950 l 1
587 0 m 1
 80 0 l 1
 80 720 l 1
 577 720 l 1
 577 635 l 1
 175 635 l 1
 175 410 l 1
 527 410 l 1
 527 325 l 1
 175 325 l 1
 175 85 l 1
 587 85 l 1
 587 0 l 1
EndSplineSet
EndChar

StartChar: Edieresis
Encoding: 203 203 123
Width: 657
GlyphClass: 2
Flags: MW
HStem: 0 85<175 587 175 587> 325 85<175 527 175 527> 635 85<175 577 175 175> 819 101
VStem: 80 95<85 325 410 635> 185 90 385 90
LayerCount: 2
Fore
SplineSet
453.390625 808.100585938 m 1
 407.16015625 808.1015625 l 1
 374.307617188 843.846679688 l 1
 374.330078125 894.650390625 l 1
 406.609375 931.000976562 l 1
 452.83984375 931 l 1
 486 894.55078125 l 1
 485.919921875 843.701171875 l 1
 453.390625 808.100585938 l 1
252.80078125 808.100585938 m 1
 206.5703125 808.1015625 l 1
 173.717773438 843.846679688 l 1
 173.740234375 894.650390625 l 1
 206.01953125 931.000976562 l 1
 252.25 931 l 1
 285.41015625 894.55078125 l 1
 285.330078125 843.701171875 l 1
 252.80078125 808.100585938 l 1
587 0 m 1
 80 0 l 1
 80 720 l 1
 577 720 l 1
 577 635 l 1
 175 635 l 1
 175 410 l 1
 527 410 l 1
 527 325 l 1
 175 325 l 1
 175 85 l 1
 587 85 l 1
 587 0 l 1
EndSplineSet
EndChar

StartChar: Igrave
Encoding: 204 204 124
Width: 255
GlyphClass: 2
Flags: MW
HStem: 0 21G<80 175 80 80> 700 20G<80 175 175 175> 970 20G
VStem: 80 95<0 720>
LayerCount: 2
Fore
SplineSet
119 927.5 m 1
 176 790 l 1
 126 762 l 1
 45 884 l 1
 119 927.5 l 1
175 0 m 1
 80 0 l 1
 80 720 l 1
 175 720 l 1
 175 0 l 1
EndSplineSet
EndChar

StartChar: Iacute
Encoding: 205 205 125
Width: 255
GlyphClass: 2
Flags: MW
HStem: 0 21G<80 175 80 80> 700 20G<80 175 175 175> 970 20G
VStem: 80 95<0 720>
LayerCount: 2
Fore
SplineSet
135 927.5 m 1
 78 790 l 1
 128 762 l 1
 209 884 l 1
 135 927.5 l 1
175 0 m 1
 80 0 l 1
 80 720 l 1
 175 720 l 1
 175 0 l 1
EndSplineSet
EndChar

StartChar: Icircumflex
Encoding: 206 206 126
Width: 255
GlyphClass: 2
Flags: MW
HStem: 0 21G<80 175 80 80> 700 20G<80 175 175 175> 930 20G<90 90 90 128 128 169>
VStem: 80 95<0 720>
LayerCount: 2
Fore
SplineSet
90 950 m 1
 -26 795 l 1
 19.3798828125 760.5 l 1
 128 891 l 1
 234 761.5 l 1
 280 796 l 1
 169 950 l 1
 128 950 l 1
 90 950 l 1
175 0 m 1
 80 0 l 1
 80 720 l 1
 175 720 l 1
 175 0 l 1
EndSplineSet
EndChar

StartChar: Idieresis
Encoding: 207 207 127
Width: 255
GlyphClass: 2
Flags: MW
HStem: 0 21G<80 175 80 80> 700 20G<80 175 175 175> 819 101
VStem: 8 90 80 95<0 720> 158 90
LayerCount: 2
Fore
SplineSet
226.583007812 808.100585938 m 1xe0
 180.352539062 808.1015625 l 1
 147.5 843.846679688 l 1
 147.522460938 894.650390625 l 1
 179.801757812 931.000976562 l 1
 226.032226562 931 l 1
 259.192382812 894.55078125 l 1
 259.112304688 843.701171875 l 1
 226.583007812 808.100585938 l 1xe0
77.060546875 808.100585938 m 1
 30.830078125 808.1015625 l 1
 -2.0224609375 843.846679688 l 1
 -2 894.650390625 l 1
 30.279296875 931.000976562 l 1
 76.509765625 931 l 1
 109.669921875 894.55078125 l 1
 109.58984375 843.701171875 l 1
 77.060546875 808.100585938 l 1
175 0 m 1xe8
 80 0 l 1
 80 720 l 1
 175 720 l 1
 175 0 l 1xe8
EndSplineSet
EndChar

StartChar: Eth
Encoding: 208 208 128
Width: 799
GlyphClass: 2
Flags: MW
HStem: 0 84 325 75 635 85<170.003 392>
VStem: 170 95 651 98
LayerCount: 2
Fore
SplineSet
170.002929688 0.0029296875 m 1
 170.002929688 325.0234375 l 1
 20 325.0234375 l 1
 20 399.982421875 l 1
 170.002929688 399.982421875 l 1
 170.002929688 720 l 1
 392 720 l 1
 659.330078125 633.16015625 l 1
 749.168945312 361.885742188 l 1
 664.943359375 91.162109375 l 1
 405.137695312 -0.1552734375 l 1
 170.002929688 -0.1552734375 l 1
 170.002929688 0.0029296875 l 1
264.973632812 83.9677734375 m 1
 406 84 l 1
 588.303710938 149.327148438 l 1
 651.515625 363.122070312 l 1
 579.883789062 579.876953125 l 1
 392 635 l 1
 265.140625 635.092773438 l 1
 265.140625 400.125 l 1
 436.239257812 400.125 l 1
 436.239257812 325.165039062 l 1
 265.140625 325.165039062 l 1
 264.973632812 84.109375 l 1
 264.973632812 83.9677734375 l 1
EndSplineSet
EndChar

StartChar: Ntilde
Encoding: 209 209 129
Width: 724
GlyphClass: 2
Flags: MW
HStem: 0 21G<80 171 80 80 547 547 547 644> 700 20G<80 177 177 177 553 644 644 644> 810 81 860 81
VStem: 80 91<0 566> 553 91<154 720 0 720>
LayerCount: 2
Fore
SplineSet
171.865234375 877.770507812 m 1x00
 223.85546875 914.510742188 l 1
 282.020507812 926.7578125 l 1
 368.047851562 890.017578125 l 1
 441.979492188 853.275390625 l 1
 503.180664062 869.60546875 l 1
 518.665039062 881.0625 l 1
 552.134765625 828.849609375 l 1
 500.094726562 792.108398438 l 1
 441.979492188 779.861328125 l 1
 355.978515625 816.568359375 l 1
 282.020507812 853.275390625 l 1
 220.819335938 836.98046875 l 1
 204.504882812 824.7578125 l 1
 171.865234375 877.770507812 l 1x00
171 0 m 1xcc
 80 0 l 1
 80 720 l 1
 177 720 l 1
 553 154 l 1
 553 720 l 1
 644 720 l 1
 644 0 l 1
 547 0 l 1
 171 566 l 1
 171 0 l 1xcc
EndSplineSet
EndChar

StartChar: Ograve
Encoding: 210 210 130
Width: 785
GlyphClass: 2
Flags: MW
HStem: -15 80 655 80 970 20G
VStem: 50 100 635 100
LayerCount: 2
Fore
SplineSet
371 927.5 m 1
 428 790 l 1
 378 762 l 1
 297 884 l 1
 371 927.5 l 1
392.956054688 742.5 m 1
 651.184570312 630.415039062 l 1
 741.911132812 359.950195312 l 1
 651.184570312 89.5625 l 1
 392.956054688 -22.513671875 l 1
 133.885742188 89.5625 l 1
 43.1494140625 359.950195312 l 1
 133.916992188 630.415039062 l 1
 392.956054688 742.5 l 1
392.956054688 59.1328125 m 1
 573.322265625 145.703125 l 1
 639.766601562 360.03515625 l 1
 573.322265625 574.3671875 l 1
 392.956054688 660.9375 l 1
 211.588867188 574.3671875 l 1
 145.038085938 360.03515625 l 1
 207.793945312 145.703125 l 1
 392.956054688 59.1328125 l 1
EndSplineSet
EndChar

StartChar: Oacute
Encoding: 211 211 131
Width: 785
GlyphClass: 2
Flags: MW
HStem: -15 80 655 80 970 20G
VStem: 50 100 635 100
LayerCount: 2
Fore
SplineSet
404 927.5 m 1
 478 884 l 1
 397 762 l 1
 347 790 l 1
 404 927.5 l 1
392.956054688 742.5 m 1
 651.184570312 630.415039062 l 1
 741.911132812 359.950195312 l 1
 651.184570312 89.5625 l 1
 392.956054688 -22.513671875 l 1
 133.885742188 89.5625 l 1
 43.1494140625 359.950195312 l 1
 133.916992188 630.415039062 l 1
 392.956054688 742.5 l 1
392.956054688 59.1328125 m 1
 573.322265625 145.703125 l 1
 639.766601562 360.03515625 l 1
 573.322265625 574.3671875 l 1
 392.956054688 660.9375 l 1
 211.588867188 574.3671875 l 1
 145.038085938 360.03515625 l 1
 207.793945312 145.703125 l 1
 392.956054688 59.1328125 l 1
EndSplineSet
EndChar

StartChar: Ocircumflex
Encoding: 212 212 132
Width: 785
GlyphClass: 2
Flags: MW
HStem: -15 80 655 80 735 215
VStem: 50 100 635 100
LayerCount: 2
Fore
SplineSet
355 950 m 1xb8
 239 795 l 1
 284.379882812 760.5 l 1
 393 891 l 1
 499 761.5 l 1
 545 796 l 1
 434 950 l 1
 393 950 l 1
 355 950 l 1xb8
392.956054688 742.5 m 1xd8
 651.184570312 630.415039062 l 1
 741.911132812 359.950195312 l 1
 651.184570312 89.5625 l 1
 392.956054688 -22.513671875 l 1
 133.885742188 89.5625 l 1
 43.1494140625 359.950195312 l 1
 133.916992188 630.415039062 l 1
 392.956054688 742.5 l 1xd8
392.956054688 59.1328125 m 1
 573.322265625 145.703125 l 1
 639.766601562 360.03515625 l 1
 573.322265625 574.3671875 l 1
 392.956054688 660.9375 l 1
 211.588867188 574.3671875 l 1
 145.038085938 360.03515625 l 1
 207.793945312 145.703125 l 1
 392.956054688 59.1328125 l 1
EndSplineSet
EndChar

StartChar: Otilde
Encoding: 213 213 133
Width: 785
GlyphClass: 2
Flags: MW
HStem: -15 80 655 80 860 31 860 81
VStem: 50 100 635 100
LayerCount: 2
Fore
SplineSet
195.865234375 876.770507812 m 1x00
 247.85546875 913.510742188 l 1
 306.020507812 925.7578125 l 1
 392.047851562 889.017578125 l 1
 465.979492188 852.275390625 l 1
 527.180664062 868.60546875 l 1
 542.665039062 880.0625 l 1
 576.134765625 827.849609375 l 1
 524.094726562 791.108398438 l 1
 465.979492188 778.861328125 l 1
 379.978515625 815.568359375 l 1
 306.020507812 852.275390625 l 1
 244.819335938 835.98046875 l 1
 228.504882812 823.7578125 l 1
 195.865234375 876.770507812 l 1x00
392.956054688 742.5 m 1xcc
 651.184570312 630.415039062 l 1
 741.911132812 359.950195312 l 1
 651.184570312 89.5625 l 1
 392.956054688 -22.513671875 l 1
 133.885742188 89.5625 l 1
 43.1494140625 359.950195312 l 1
 133.916992188 630.415039062 l 1
 392.956054688 742.5 l 1xcc
392.956054688 59.1328125 m 1
 573.322265625 145.703125 l 1
 639.766601562 360.03515625 l 1
 573.322265625 574.3671875 l 1
 392.956054688 660.9375 l 1
 211.588867188 574.3671875 l 1
 145.038085938 360.03515625 l 1
 207.793945312 145.703125 l 1
 392.956054688 59.1328125 l 1
EndSplineSet
EndChar

StartChar: Odieresis
Encoding: 214 214 134
Width: 785
GlyphClass: 2
Flags: MW
HStem: -15 80 655 80 819 101
VStem: 50 100 329 130 549 186 635 100
LayerCount: 2
Fore
SplineSet
527.720703125 808.100585938 m 1xf8
 481.490234375 808.1015625 l 1
 448.637695312 843.846679688 l 1
 448.66015625 894.650390625 l 1
 480.939453125 931.000976562 l 1
 527.169921875 931 l 1
 560.330078125 894.55078125 l 1
 560.25 843.701171875 l 1
 527.720703125 808.100585938 l 1xf8
307.380859375 808.100585938 m 1
 261.150390625 808.1015625 l 1
 228.297851562 843.846679688 l 1
 228.3203125 894.650390625 l 1
 260.599609375 931.000976562 l 1
 306.830078125 931 l 1
 339.990234375 894.55078125 l 1
 339.91015625 843.701171875 l 1
 307.380859375 808.100585938 l 1
393.0390625 742.560546875 m 1
 651.268554688 630.474609375 l 1
 741.995117188 360.010742188 l 1
 651.268554688 89.623046875 l 1
 393.0390625 -22.4541015625 l 1
 133.927734375 89.623046875 l 1
 43.1484375 360.010742188 l 1
 133.927734375 630.474609375 l 1
 393.0390625 742.560546875 l 1
393.0390625 59.107421875 m 1
 573.407226562 145.6796875 l 1
 639.8515625 360.010742188 l 1
 573.407226562 574.342773438 l 1
 393.0390625 660.9140625 l 1
 211.672851562 574.342773438 l 1
 145.123046875 360.010742188 l 1
 207.877929688 145.705078125 l 1
 393.0390625 59.107421875 l 1
EndSplineSet
EndChar

StartChar: multiply
Encoding: 215 215 135
Width: 556
GlyphClass: 2
Flags: MW
HStem: 199 21G<148 148 408 408> 546 20G<148 148 408 408>
LayerCount: 2
Fore
SplineSet
278 329 m 1
 148 199 l 1
 95 252 l 1
 225 382 l 1
 95 513 l 1
 148 566 l 1
 278 435 l 1
 408 566 l 1
 461 513 l 1
 331 382 l 1
 461 252 l 1
 408 199 l 1
 278 329 l 1
EndSplineSet
EndChar

StartChar: Oslash
Encoding: 216 216 136
Width: 785
GlyphClass: 2
Flags: MW
HStem: -15 80 655 80
VStem: 50 100 635 100
LayerCount: 2
Fore
SplineSet
654.013671875 614.014648438 m 1
 720.860351562 500.896484375 l 1
 741.911132812 358.950195312 l 1
 651.184570312 88.5625 l 1
 392.956054688 -23.513671875 l 1
 273.537109375 -5.279296875 l 1
 181.9921875 51.94140625 l 1
 124.875976562 -16.013671875 l 1
 67.009765625 32.013671875 l 1
 128.87890625 105.97265625 l 1
 63.5087890625 217.717773438 l 1
 43.1494140625 358.950195312 l 1
 133.950195312 629.415039062 l 1
 392.956054688 741.5 l 1
 509.600585938 723.393554688 l 1
 599.899414062 667.044921875 l 1
 655.931640625 734 l 1
 713.880859375 685.97265625 l 1
 654.013671875 614.014648438 l 1
190.998046875 180.015625 m 1
 541.94921875 598.004882812 l 1
 476.611328125 645.09765625 l 1
 393.040039062 659.853515625 l 1
 211.673828125 573.282226562 l 1
 145.122070312 358.950195312 l 1
 155.6484375 260.421875 l 1
 190.998046875 180.015625 l 1
589.9765625 538.971679688 m 1
 237.94140625 118.98046875 l 1
 304.356445312 72.71875 l 1
 392.870117188 58.046875 l 1
 573.237304688 144.619140625 l 1
 639.681640625 358.950195312 l 1
 627.935546875 457.68359375 l 1
 589.9765625 538.971679688 l 1
EndSplineSet
EndChar

StartChar: Ugrave
Encoding: 217 217 137
Width: 723
GlyphClass: 2
Flags: MW
HStem: -15 85 700 20G 970 20G
VStem: 126 95 594 95
LayerCount: 2
Fore
SplineSet
353 927.5 m 1
 410 790 l 1
 360 762 l 1
 279 884 l 1
 353 927.5 l 1
642.704101562 720.349609375 m 1
 642.704101562 301 l 1
 580.728515625 68.5537109375 l 1
 362.08984375 -22.35546875 l 1
 143.630859375 68.5537109375 l 1
 79.369140625 302.888671875 l 1
 79.369140625 720.349609375 l 1
 175.325195312 720.349609375 l 1
 175.325195312 295.897460938 l 1
 216.34765625 127.322265625 l 1
 363.110351562 64.3095703125 l 1
 508.405273438 127.288085938 l 1
 548.833007812 297.78515625 l 1
 548.662109375 720.349609375 l 1
 642.704101562 720.349609375 l 1
EndSplineSet
EndChar

StartChar: Uacute
Encoding: 218 218 138
Width: 723
GlyphClass: 2
Flags: MW
HStem: -15 85 700 20G 970 20G
VStem: 80 95 548 95
LayerCount: 2
Fore
SplineSet
358 927.5 m 1
 432 884 l 1
 351 762 l 1
 301 790 l 1
 358 927.5 l 1
642.704101562 720.349609375 m 1
 642.704101562 301 l 1
 580.728515625 68.5537109375 l 1
 362.08984375 -22.35546875 l 1
 143.630859375 68.5537109375 l 1
 79.369140625 302.888671875 l 1
 79.369140625 720.349609375 l 1
 175.325195312 720.349609375 l 1
 175.325195312 295.897460938 l 1
 216.34765625 127.322265625 l 1
 363.110351562 64.3095703125 l 1
 508.405273438 127.288085938 l 1
 548.833007812 297.78515625 l 1
 548.662109375 720.349609375 l 1
 642.704101562 720.349609375 l 1
EndSplineSet
EndChar

StartChar: Ucircumflex
Encoding: 219 219 139
Width: 723
GlyphClass: 2
Flags: MW
HStem: -15 85 700 20G 930 20G<322 322 322 360 360 401>
VStem: 126 95 594 95
LayerCount: 2
Fore
SplineSet
322 950 m 1
 206 795 l 1
 251.379882812 760.5 l 1
 360 891 l 1
 466 761.5 l 1
 512 796 l 1
 401 950 l 1
 360 950 l 1
 322 950 l 1
642.704101562 720.349609375 m 1
 642.704101562 301 l 1
 580.728515625 68.5537109375 l 1
 362.08984375 -22.35546875 l 1
 143.630859375 68.5537109375 l 1
 79.369140625 302.888671875 l 1
 79.369140625 720.349609375 l 1
 175.325195312 720.349609375 l 1
 175.325195312 295.897460938 l 1
 216.34765625 127.322265625 l 1
 363.110351562 64.3095703125 l 1
 508.405273438 127.288085938 l 1
 548.833007812 297.78515625 l 1
 548.662109375 720.349609375 l 1
 642.704101562 720.349609375 l 1
EndSplineSet
EndChar

StartChar: Udieresis
Encoding: 220 220 140
Width: 723
GlyphClass: 2
Flags: MW
HStem: -15 85 700 20G 819 101
VStem: 80 95 211 90 421 90 548 95
LayerCount: 2
Fore
SplineSet
489.390625 808.100585938 m 1
 443.16015625 808.1015625 l 1
 410.307617188 843.846679688 l 1
 410.330078125 894.650390625 l 1
 442.609375 931.000976562 l 1
 488.83984375 931 l 1
 522 894.55078125 l 1
 521.919921875 843.701171875 l 1
 489.390625 808.100585938 l 1
279.30078125 808.100585938 m 1
 233.0703125 808.1015625 l 1
 200.217773438 843.846679688 l 1
 200.240234375 894.650390625 l 1
 232.51953125 931.000976562 l 1
 278.75 931 l 1
 311.91015625 894.55078125 l 1
 311.830078125 843.701171875 l 1
 279.30078125 808.100585938 l 1
547.935546875 720.051757812 m 1
 642.990234375 720.051757812 l 1
 642.990234375 302.061523438 l 1
 576.34765625 74.1728515625 l 1
 361.995117188 -14.9541015625 l 1
 147.862304688 74.1728515625 l 1
 80 302.061523438 l 1
 80 720.051757812 l 1
 174.971679688 720.051757812 l 1
 174.971679688 297.05859375 l 1
 219.12109375 131.7890625 l 1
 363.079101562 70.01171875 l 1
 505.462890625 131.755859375 l 1
 548.102539062 297.05859375 l 1
 547.935546875 720.051757812 l 1
EndSplineSet
EndChar

StartChar: Yacute
Encoding: 221 221 141
Width: 675
GlyphClass: 2
Flags: MW
HStem: 0 21G<290 385 290 290> 700 20G 970 20G
VStem: 290 95<0 303>
LayerCount: 2
Fore
SplineSet
358 927.5 m 1
 432 884 l 1
 351 762 l 1
 301 790 l 1
 358 927.5 l 1
385 0 m 1
 290 0 l 1
 290 303 l 1
 37 679 l 1
 119 728.090820312 l 1
 342 383 l 1
 561 728.090820312 l 1
 638 679 l 1
 385 303 l 1
 385 0 l 1
EndSplineSet
EndChar

StartChar: Thorn
Encoding: 222 222 142
Width: 657
GlyphClass: 2
Flags: MW
HStem: 0 21G 150 85 495 85 700 20G<80 174.972 174.972 174.972>
VStem: 80 95 509 98
LayerCount: 2
Fore
SplineSet
80 0.0029296875 m 1
 80 720 l 1
 174.971679688 720 l 1
 174.971679688 580.002929688 l 1
 329.9765625 580.002929688 l 1
 522.571289062 539.690429688 l 1
 608.364257812 369.014648438 l 1
 539.61328125 201.841796875 l 1
 337.814453125 150.005859375 l 1
 174.8046875 150.005859375 l 1
 174.8046875 0.0029296875 l 1
 80 0.0029296875 l 1
174.971679688 234.971679688 m 1
 339.982421875 234.971679688 l 1
 465.4609375 265.798828125 l 1
 508.431640625 365.8671875 l 1
 457.572265625 472.952148438 l 1
 337.8984375 494.954101562 l 1
 174.887695312 494.954101562 l 1
 174.971679688 234.971679688 l 1
EndSplineSet
EndChar

StartChar: germandbls
Encoding: 223 223 143
Width: 623
GlyphClass: 2
Flags: MW
HStem: -15 75 0 21G 643 78
VStem: 88 87 230 86 384 85 498 90
LayerCount: 2
Fore
SplineSet
304 184 m 1x3e
 339.932617188 85.5615234375 l 1
 412.649414062 54.09375 l 1
 472.662109375 73.9873046875 l 1
 501.35546875 130.552734375 l 1
 485.791992188 184.993164062 l 1
 428.893554688 217.301757812 l 1
 360.4296875 231.590820312 l 1
 267.375 279.387695312 l 1
 227.838867188 381.532226562 l 1
 265 472 l 1
 346 528 l 1
 384.923828125 588.625976562 l 1
 362.087890625 627.91796875 l 1
 287.96875 648.83984375 l 1
 201.165039062 615.807617188 l 1
 175.70703125 528.249023438 l 1
 175.70703125 -0.0556640625 l 1
 88 -0.0556640625 l 1
 88 514.123046875 l 1
 142.907226562 674.7890625 l 1
 286.947265625 728.361328125 l 1
 428.192382812 686.772460938 l 1
 471.588867188 588.540039062 l 1
 471.588867188 588.540039062 l 1
 399 478 l 1
 335 430 l 1
 315.5234375 381.446289062 l 1
 336.318359375 340.155273438 l 1
 380.841796875 320.295898438 l 1
 462.403320312 301.92578125 l 1
 552.9375 251.705078125 l 1
 592.954101562 138.716796875 l 1
 537.12890625 17.9814453125 l 1
 409.41796875 -22.451171875 l 1
 274.392578125 21.51953125 l 1
 222.735351562 145.861328125 l 1
 304 184 l 1x3e
EndSplineSet
EndChar

StartChar: agrave
Encoding: 224 224 144
Width: 545
GlyphClass: 2
Flags: MW
HStem: -15 72 0 21G<388 472 388 388> 463 72 770 20G
VStem: 36 94 382 90
LayerCount: 2
Fore
SplineSet
216.94140625 847.171875 m 1x00
 305.801757812 634 l 1
 255.801757812 606 l 1
 127.181640625 800.159179688 l 1
 216.94140625 847.171875 l 1x00
382.41015625 348.740234375 m 1x6c
 347.499023438 441.418945312 l 1
 259.971679688 467.018554688 l 1
 178.3046875 439.981445312 l 1
 132.484375 360.962890625 l 1
 61.1103515625 404.840820312 l 1
 129.157226562 506.319335938 l 1
 269.158203125 540.500976562 l 1
 424.775390625 488.110351562 l 1
 472.125 335.448242188 l 1
 472 0 l 1
 388 0 l 1
 388.391601562 60.14453125 l 1
 303.06640625 -2.4677734375 l 1
 209.958984375 -20.56640625 l 1
 83.0498046875 16.38671875 l 1
 29.490234375 134.477539062 l 1
 89.1630859375 258.784179688 l 1
 382.41015625 348.740234375 l 1x6c
382.41015625 269.180664062 m 1
 165.568359375 209.150390625 l 1
 125.424804688 138.475585938 l 1
 156.57421875 70.3935546875 l 1
 224.336914062 52.830078125 l 1
 318.719726562 81.7890625 l 1
 382.357421875 137.5390625 l 1
 382.41015625 269.180664062 l 1
EndSplineSet
EndChar

StartChar: acircumflex
Encoding: 226 226 145
Width: 545
GlyphClass: 2
Flags: MW
HStem: -15 72 0 21G<388 472 388 388> 463 72 740 20G
VStem: 36 94 382 90
LayerCount: 2
Fore
SplineSet
246.96875 875 m 1x00
 288.96875 875 l 1
 426.96875 632.840820312 l 1
 376.96875 604.840820312 l 1
 269.990234375 766.331054688 l 1
 162.348632812 603.840820312 l 1
 112.348632812 631.840820312 l 1
 246.96875 875 l 1x00
382.41015625 348.740234375 m 1x6c
 347.499023438 441.418945312 l 1
 259.971679688 467.018554688 l 1
 178.3046875 439.981445312 l 1
 132.484375 360.962890625 l 1
 61.1103515625 404.840820312 l 1
 129.157226562 506.319335938 l 1
 269.158203125 540.500976562 l 1
 424.775390625 488.110351562 l 1
 472.125 335.448242188 l 1
 472 0 l 1
 388 0 l 1
 388.391601562 60.14453125 l 1
 303.06640625 -2.4677734375 l 1
 209.958984375 -20.56640625 l 1
 83.0498046875 16.38671875 l 1
 29.490234375 134.477539062 l 1
 89.1630859375 258.784179688 l 1
 382.41015625 348.740234375 l 1x6c
382.41015625 269.180664062 m 1
 165.568359375 209.150390625 l 1
 125.424804688 138.475585938 l 1
 156.57421875 70.3935546875 l 1
 224.336914062 52.830078125 l 1
 318.719726562 81.7890625 l 1
 382.357421875 137.5390625 l 1
 382.41015625 269.180664062 l 1
EndSplineSet
EndChar

StartChar: atilde
Encoding: 227 227 146
Width: 545
GlyphClass: 2
Flags: MW
HStem: -15 72 0 21G<388 472 388 388> 463 72 610 75 660 75
VStem: 36 94 382 90
LayerCount: 2
Fore
SplineSet
80.865234375 707.770507812 m 1x00
 132.85546875 744.510742188 l 1
 191.020507812 756.7578125 l 1
 277.047851562 720.017578125 l 1
 350.979492188 683.275390625 l 1
 412.180664062 699.60546875 l 1
 427.665039062 711.0625 l 1
 461.134765625 658.849609375 l 1
 409.094726562 622.108398438 l 1
 350.979492188 609.861328125 l 1
 264.978515625 646.568359375 l 1
 191.020507812 683.275390625 l 1
 129.819335938 666.98046875 l 1
 113.504882812 654.7578125 l 1
 80.865234375 707.770507812 l 1x00
382.41015625 348.740234375 m 1x66
 347.499023438 441.418945312 l 1
 259.971679688 467.018554688 l 1
 178.3046875 439.981445312 l 1
 132.484375 360.962890625 l 1
 61.1103515625 404.840820312 l 1
 129.157226562 506.319335938 l 1
 269.158203125 540.500976562 l 1
 424.775390625 488.110351562 l 1
 472.125 335.448242188 l 1
 472 0 l 1
 388 0 l 1
 388.391601562 60.14453125 l 1
 303.06640625 -2.4677734375 l 1
 209.958984375 -20.56640625 l 1
 83.0498046875 16.38671875 l 1
 29.490234375 134.477539062 l 1
 89.1630859375 258.784179688 l 1
 382.41015625 348.740234375 l 1x66
382.41015625 269.180664062 m 1
 165.568359375 209.150390625 l 1
 125.424804688 138.475585938 l 1
 156.57421875 70.3935546875 l 1
 224.336914062 52.830078125 l 1
 318.719726562 81.7890625 l 1
 382.357421875 137.5390625 l 1
 382.41015625 269.180664062 l 1
EndSplineSet
EndChar

StartChar: adieresis
Encoding: 228 228 147
Width: 544
GlyphClass: 2
Flags: MW
HStem: -15 72 0 21G 463 72 620 100
VStem: 35 94 133 91 313 91 381 90
LayerCount: 2
Fore
SplineSet
381.83984375 607.5 m 1x3c
 335.609375 607.500976562 l 1
 302.756835938 643.24609375 l 1
 302.779296875 694.049804688 l 1
 335.05859375 730.400390625 l 1
 381.2890625 730.399414062 l 1
 414.44921875 693.950195312 l 1
 414.369140625 643.100585938 l 1
 381.83984375 607.5 l 1x3c
202 607.5 m 1
 155.76953125 607.500976562 l 1
 122.916992188 643.24609375 l 1
 122.939453125 694.049804688 l 1
 155.21875 730.400390625 l 1
 201.44921875 730.399414062 l 1
 234.609375 693.950195312 l 1
 234.529296875 643.100585938 l 1
 202 607.5 l 1
87.55078125 21.2236328125 m 1
 35 136.998046875 l 1
 93.5546875 258.868164062 l 1
 239.034179688 305.01171875 l 1
 320.9140625 315.892578125 l 1
 381.032226562 332.02734375 l 1
 381.032226562 352.0390625 l 1
 346.940429688 437.920898438 l 1
 261.129882812 463.01953125 l 1
 181.032226562 436.51171875 l 1
 136.141601562 359.04296875 l 1
 51.0087890625 378.053710938 l 1
 132.754882812 501.549804688 l 1
 269.96875 535.060546875 l 1
 422.639648438 483.697265625 l 1
 471 334.028320312 l 1
 471 106.064453125 l 1x3d
 478.254882812 40.318359375 l 1
 499.016601562 0.0869140625 l 1
 407.963867188 0.0869140625 l 1
 392.966796875 27.9775390625 l 1
 387.038085938 64.123046875 l 1
 303.28125 2.7626953125 l 1
 212.020507812 -15.005859375 l 1
 87.55078125 21.2236328125 l 1
325.583984375 246.853515625 m 1
 249.040039062 232.970703125 l 1
 168.483398438 210.20703125 l 1
 129.137695312 140.916992188 l 1
 159.603515625 74.1708984375 l 1
 226.026367188 56.9521484375 l 1
 318.569335938 85.34375 l 1
 381.032226562 140 l 1
 381.032226562 262.987304688 l 1
 325.583984375 246.853515625 l 1
EndSplineSet
EndChar

StartChar: aring
Encoding: 229 229 148
Width: 545
GlyphClass: 2
Flags: MW
HStem: -15 72 0 21G<388 472 388 388> 463 72 605 62 667 135 802 63
VStem: 36 94 190 135 382 90
LayerCount: 2
Fore
SplineSet
269.2421875 860.483398438 m 1x00
 361.190429688 822.094726562 l 1
 399.233398438 730.4921875 l 1
 361.252929688 638.514648438 l 1
 269.2421875 600.500976562 l 1
 177.4921875 638.514648438 l 1
 139.083984375 730.4921875 l 1
 177.6171875 822.094726562 l 1
 269.2421875 860.483398438 l 1x00
269.2421875 662.453125 m 1
 316.915039062 682.206054688 l 1
 336.197265625 730.409179688 l 1
 316.915039062 777.810546875 l 1
 269.2421875 797.447265625 l 1
 221.380859375 777.810546875 l 1
 201.286132812 730.409179688 l 1
 221.380859375 682.206054688 l 1
 269.2421875 662.453125 l 1
382.41015625 348.740234375 m 1x6280
 347.499023438 441.418945312 l 1
 259.971679688 467.018554688 l 1
 178.3046875 439.981445312 l 1
 132.484375 360.962890625 l 1
 61.1103515625 404.840820312 l 1
 129.157226562 506.319335938 l 1
 269.158203125 540.500976562 l 1
 424.775390625 488.110351562 l 1
 472.125 335.448242188 l 1
 472 0 l 1
 388 0 l 1
 388.391601562 60.14453125 l 1
 303.06640625 -2.4677734375 l 1
 209.958984375 -20.56640625 l 1
 83.0498046875 16.38671875 l 1
 29.490234375 134.477539062 l 1
 89.1630859375 258.784179688 l 1
 382.41015625 348.740234375 l 1x6280
382.41015625 269.180664062 m 1
 165.568359375 209.150390625 l 1
 125.424804688 138.475585938 l 1
 156.57421875 70.3935546875 l 1
 224.336914062 52.830078125 l 1
 318.719726562 81.7890625 l 1
 382.357421875 137.5390625 l 1
 382.41015625 269.180664062 l 1
EndSplineSet
EndChar

StartChar: ae
Encoding: 230 230 149
Width: 890
GlyphClass: 2
Flags: MW
HStem: -15 75 237 72 463 72
VStem: 35 94 371 90 749 96
LayerCount: 2
Fore
SplineSet
461.247070312 237.536132812 m 1
 514.115234375 99.833984375 l 1
 617.310546875 56.9775390625 l 1
 703.912109375 86.310546875 l 1
 759.2578125 175.28125 l 1
 830 132 l 1
 760.884765625 24.3095703125 l 1
 612.377929688 -19.56640625 l 1
 508.56640625 1.185546875 l 1
 430.713867188 60.974609375 l 1
 339.349609375 0.419921875 l 1
 237.908203125 -19.56640625 l 1
 88.009765625 15.0908203125 l 1
 26.90234375 135.477539062 l 1
 86.5419921875 259.819335938 l 1
 369.564453125 334.407226562 l 1
 369.564453125 354.818359375 l 1
 339.850585938 442.418945312 l 1
 257.383789062 468.018554688 l 1
 175.65234375 440.981445312 l 1
 129.896484375 361.962890625 l 1
 58 404 l 1
 126.515625 507.319335938 l 1
 266.484375 541.500976562 l 1
 369.765625 521.352539062 l 1
 431.649414062 463.000976562 l 1
 509.681640625 521.38671875 l 1
 612.208007812 541.500976562 l 1
 792.607421875 464.115234375 l 1
 851.646484375 271.215820312 l 1
 844.833007812 237.536132812 l 1
 461.247070312 237.536132812 l 1
369.478515625 264.071289062 m 1
 162.799804688 210.235351562 l 1
 122.666992188 139.559570312 l 1
 160.120117188 71.4775390625 l 1
 241.90625 53.916015625 l 1
 329.1015625 71.3935546875 l 1
 394.993164062 120.25390625 l 1
 375.34765625 186.421875 l 1
 369.478515625 264.071289062 l 1
464.30859375 311.018554688 m 1
 755.004882812 311.018554688 l 1
 714.192382812 421.67578125 l 1
 612.208007812 465.041015625 l 1
 520.716796875 428.564453125 l 1
 464.30859375 311.018554688 l 1
EndSplineSet
EndChar

StartChar: ccedilla
Encoding: 231 231 150
Width: 524
GlyphClass: 2
Flags: MW
HStem: -200 41 -75 40 -15 75 460 75
VStem: 35 90 293 40
LayerCount: 2
Fore
SplineSet
250.481445312 -38.9599609375 m 1
 261.79296875 -38.9599609375 l 1
 314.5546875 -60.89453125 l 1
 334.338867188 -122.5625 l 1
 314.5546875 -184.784179688 l 1
 261.79296875 -207.271484375 l 1
 218.725585938 -193.365234375 l 1
 198 -158 l 1
 233.216796875 -140.93359375 l 1
 244.090820312 -159.686523438 l 1
 261.79296875 -165.384765625 l 1
 283.661132812 -155.442382812 l 1
 293.345703125 -122.60546875 l 1
 283.735351562 -89.724609375 l 1
 261.876953125 -79.740234375 l 1
 244.177734375 -86.0341796875 l 1
 233.301757812 -105.297851562 l 1
 195.709960938 -91.009765625 l 1
 227.262695312 -14.55078125 l 1
 83.732421875 72.0205078125 l 1
 30.4599609375 261.858398438 l 1
 96.7451171875 467.897460938 l 1
 273.189453125 542.349609375 l 1
 415.487304688 495.793945312 l 1
 481 387 l 1
 404.759765625 345.4609375 l 1
 355.016601562 437.44140625 l 1
 273.189453125 465.889648438 l 1
 167.473632812 418.186523438 l 1
 122.227539062 261.858398438 l 1
 167.473632812 105.572265625 l 1
 273.189453125 57.9111328125 l 1
 354.952148438 86.1904296875 l 1
 404.759765625 177.234375 l 1
 481 136 l 1
 415.487304688 27.455078125 l 1
 273.189453125 -18.5478515625 l 1
 258.81640625 -18.5478515625 l 1
 250.481445312 -38.9599609375 l 1
EndSplineSet
EndChar

StartChar: egrave
Encoding: 232 232 151
Width: 544
GlyphClass: 2
Flags: MW
HStem: -15 75 60 177 237 72 309 151 460 75 770 20G
VStem: 35 90 413 96
LayerCount: 2
Fore
SplineSet
235.942382812 850.171875 m 1x00
 324.802734375 637 l 1
 274.802734375 609 l 1
 146.182617188 803.159179688 l 1
 235.942382812 850.171875 l 1x00
174.46484375 98.9150390625 m 1xab
 278.149414062 56.44140625 l 1
 365.399414062 85.7744140625 l 1
 419.926757812 174.744140625 l 1
 490 131 l 1
 421.6171875 23.7744140625 l 1
 273.046875 -20.1025390625 l 1
 96.6025390625 54.349609375 l 1
 30.3173828125 260.388671875 l 1
 96.6025390625 466.427734375 l 1
 273.046875 540.879882812 l 1
 453.446289062 463.494140625 l 1
 513 273 l 1
 508 237 l 1
 122.000976562 236.915039062 l 1
 174.46484375 98.9150390625 l 1xab
125 309 m 1
 416 309 l 1
 374.999023438 421.139648438 l 1
 272.961914062 464.505859375 l 1
 181.481445312 428.028320312 l 1
 125 309 l 1
EndSplineSet
EndChar

StartChar: eacute
Encoding: 233 233 152
Width: 544
GlyphClass: 2
Flags: MW
HStem: -15 75 237 72 460 75 770 20G
VStem: 35 90 413 96
LayerCount: 2
Fore
SplineSet
301.209960938 849.103515625 m 1
 212.349609375 635.931640625 l 1
 262.349609375 607.931640625 l 1
 390.969726562 802.090820312 l 1
 301.209960938 849.103515625 l 1
174.46484375 98.9150390625 m 1
 278.149414062 56.44140625 l 1
 365.399414062 85.7744140625 l 1
 419.926757812 174.744140625 l 1
 490 131 l 1
 421.6171875 23.7744140625 l 1
 273.046875 -20.1025390625 l 1
 96.6025390625 54.349609375 l 1
 30.3173828125 260.388671875 l 1
 96.6025390625 466.427734375 l 1
 273.046875 540.879882812 l 1
 453.446289062 463.494140625 l 1
 513 273 l 1
 508 237 l 1
 122.000976562 236.915039062 l 1
 174.46484375 98.9150390625 l 1
125 309 m 1
 416 309 l 1
 374.999023438 421.139648438 l 1
 272.961914062 464.505859375 l 1
 181.481445312 428.028320312 l 1
 125 309 l 1
EndSplineSet
EndChar

StartChar: ecircumflex
Encoding: 234 234 153
Width: 544
GlyphClass: 2
Flags: MW
HStem: -15 75 60 177 237 72 309 151 460 75 535 225
VStem: 35 90 413 96
LayerCount: 2
Fore
SplineSet
248.969726562 875 m 1x00
 290.969726562 875 l 1
 428.969726562 632.840820312 l 1
 378.969726562 604.840820312 l 1
 271.991210938 766.331054688 l 1
 164.349609375 603.840820312 l 1
 114.349609375 631.840820312 l 1
 248.969726562 875 l 1x00
174.46484375 98.9150390625 m 1xab
 278.149414062 56.44140625 l 1
 365.399414062 85.7744140625 l 1
 419.926757812 174.744140625 l 1
 490 131 l 1
 421.6171875 23.7744140625 l 1
 273.046875 -20.1025390625 l 1
 96.6025390625 54.349609375 l 1
 30.3173828125 260.388671875 l 1
 96.6025390625 466.427734375 l 1
 273.046875 540.879882812 l 1
 453.446289062 463.494140625 l 1
 513 273 l 1
 508 237 l 1
 122.000976562 236.915039062 l 1
 174.46484375 98.9150390625 l 1xab
125 309 m 1
 416 309 l 1
 374.999023438 421.139648438 l 1
 272.961914062 464.505859375 l 1
 181.481445312 428.028320312 l 1
 125 309 l 1
EndSplineSet
EndChar

StartChar: edieresis
Encoding: 235 235 154
Width: 544
GlyphClass: 2
Flags: MW
HStem: -15 75 60 177 237 72 309 151 460 75 620 100
VStem: 35 90 219 109 413 96
LayerCount: 2
Fore
SplineSet
397.0703125 608.249023438 m 1x0780
 350.83984375 608.25 l 1
 317.987304688 643.995117188 l 1
 318.009765625 694.798828125 l 1
 350.2890625 731.149414062 l 1
 396.51953125 731.1484375 l 1
 429.6796875 694.69921875 l 1
 429.599609375 643.849609375 l 1
 397.0703125 608.249023438 l 1x0780
197.23046875 608.249023438 m 1
 151 608.25 l 1
 118.147460938 643.995117188 l 1
 118.169921875 694.798828125 l 1
 150.44921875 731.149414062 l 1
 196.6796875 731.1484375 l 1
 229.83984375 694.69921875 l 1
 229.759765625 643.849609375 l 1
 197.23046875 608.249023438 l 1
174.46484375 98.9150390625 m 1xaa80
 278.149414062 56.44140625 l 1
 365.399414062 85.7744140625 l 1
 419.926757812 174.744140625 l 1
 490 131 l 1
 421.6171875 23.7744140625 l 1
 273.046875 -20.1025390625 l 1
 96.6025390625 54.349609375 l 1
 30.3173828125 260.388671875 l 1
 96.6025390625 466.427734375 l 1
 273.046875 540.879882812 l 1
 453.446289062 463.494140625 l 1
 513 273 l 1
 508 237 l 1
 122.000976562 236.915039062 l 1
 174.46484375 98.9150390625 l 1xaa80
125 309 m 1
 416 309 l 1
 374.999023438 421.139648438 l 1
 272.961914062 464.505859375 l 1
 181.481445312 428.028320312 l 1
 125 309 l 1
EndSplineSet
EndChar

StartChar: igrave
Encoding: 236 236 155
Width: 220
GlyphClass: 2
Flags: MW
HStem: 0 21G<65 155 65 65> 500 20G<65 155 155 155> 770 20G
VStem: 65 90<0 520>
LayerCount: 2
Fore
SplineSet
155 0 m 1
 65 0 l 1
 65 520 l 1
 155 520 l 1
 155 0 l 1
66.609375 833.171875 m 1
 155.469726562 620 l 1
 105.469726562 592 l 1
 -23.150390625 786.159179688 l 1
 66.609375 833.171875 l 1
EndSplineSet
EndChar

StartChar: iacute
Encoding: 237 237 156
Width: 220
GlyphClass: 2
Flags: MW
HStem: 0 21G<65 65 65 155> 500 20G<65 155 155 155> 770 20G
VStem: 65 90<0 520 0 520>
LayerCount: 2
Fore
SplineSet
65 0 m 1
 65 520 l 1
 155 520 l 1
 155 0 l 1
 65 0 l 1
87.9697265625 55 m 1
 87.9697265625 506 l 1
 9.9697265625 506 l 1
 9.9697265625 575 l 1
 87.9697265625 575 l 1
 87.9697265625 600 l 1
 124.790039062 728.46875 l 1
 239.53125 773.110351562 l 1
 320.969726562 758 l 1
 308.931640625 683.298828125 l 1
 250.758789062 693.504882812 l 1
 191.947265625 669.393554688 l 1
 174.969726562 602 l 1
 174.969726562 575 l 1
 465.969726562 575 l 1
 465.969726562 55 l 1
 375.969726562 55 l 1
 375.969726562 506 l 1
 174.969726562 506 l 1
 174.969726562 55 l 1
 87.9697265625 55 l 1
443.40234375 655 m 1
 398.077148438 654.754882812 l 1
 365.870117188 689.799804688 l 1
 365.647460938 739.607421875 l 1
 397.537109375 775 l 1
 442.862304688 775.245117188 l 1
 475.069335938 740.200195312 l 1
 475.291992188 690.392578125 l 1
 443.40234375 655 l 1
EndSplineSet
EndChar

StartChar: icircumflex
Encoding: 238 238 157
Width: 220
GlyphClass: 2
Flags: MW
HStem: 0 21G<65 155 65 65> 500 20G<65 155 155 155> 740 20G<73 150 150 150>
VStem: 65 90<0 520>
LayerCount: 2
Fore
SplineSet
155 0 m 1
 65 0 l 1
 65 520 l 1
 155 520 l 1
 155 0 l 1
73 760 m 1
 150 760 l 1
 238 642 l 1
 178 600 l 1
 111 701 l 1
 42 600 l 1
 -12 640 l 1
 73 760 l 1
EndSplineSet
EndChar

StartChar: eth
Encoding: 240 240 158
Width: 553
GlyphClass: 2
Flags: MW
HStem: -15 75 440 75 758 20G<315.917 315.917>
VStem: 36 90 432 85
LayerCount: 2
Fore
SplineSet
346.934570312 686.90625 m 1
 484.071289062 519.528320312 l 1
 521.758789062 278.286132812 l 1
 450.59375 58.21484375 l 1
 273.926757812 -22.615234375 l 1
 106.635742188 46.732421875 l 1
 31.1962890625 247.668945312 l 1
 95.951171875 448.571289062 l 1
 254.534179688 517.954101562 l 1
 354.72265625 494.107421875 l 1
 418.934570312 443.536132812 l 1
 384.01171875 541.725585938 l 1
 307.078125 617.950195312 l 1
 264.970703125 544.908203125 l 1
 201.934570312 580.928710938 l 1
 242.958007812 651.969726562 l 1
 191.482421875 671.169921875 l 1
 139 670 l 1
 138.8984375 744.981445312 l 1
 213.668945312 746.012695312 l 1
 281.897460938 719.966796875 l 1
 315.916992188 778 l 1
 378.953125 741.979492188 l 1
 346.934570312 686.90625 l 1
274.946289062 53.8427734375 m 1
 384.458007812 96.443359375 l 1
 435.09375 247.668945312 l 1
 386.701171875 398.8515625 l 1
 283.196289062 441.41015625 l 1
 170.262695312 398.8515625 l 1
 122.96484375 247.668945312 l 1
 175.610351562 96.443359375 l 1
 274.946289062 53.8427734375 l 1
EndSplineSet
EndChar

StartChar: ntilde
Encoding: 241 241 159
Width: 555
GlyphClass: 2
Flags: MW
HStem: 0 21G<62.5225 62.5225 62.5225 152.522 402 402 402 492> 459 61 459 76 610 75 660 75
VStem: 65 90 400 90
LayerCount: 2
Fore
SplineSet
89.865234375 707.770507812 m 1x00
 141.85546875 744.510742188 l 1
 200.020507812 756.7578125 l 1
 286.047851562 720.017578125 l 1
 359.979492188 683.275390625 l 1
 421.180664062 699.60546875 l 1
 436.665039062 711.0625 l 1
 470.134765625 658.849609375 l 1
 418.094726562 622.108398438 l 1
 359.979492188 609.861328125 l 1
 273.978515625 646.568359375 l 1
 200.020507812 683.275390625 l 1
 138.819335938 666.98046875 l 1
 122.504882812 654.7578125 l 1
 89.865234375 707.770507812 l 1x00
62.5224609375 0 m 1xa0
 62.5224609375 520 l 1
 143.522460938 520 l 1
 143.522460938 445 l 1
 214.392578125 518.918945312 l 1
 311.592773438 540.350585938 l 1
 457.930664062 477.592773438 l 1
 492 319 l 1
 492 0 l 1
 402 0 l 1
 402 319 l 1
 377.583007812 423.791015625 l 1
 293.278320312 462.786132812 l 1
 191.549804688 416.61328125 l 1
 152.522460938 283 l 1
 152.522460938 0 l 1
 62.5224609375 0 l 1xa0
EndSplineSet
EndChar

StartChar: ograve
Encoding: 242 242 160
Width: 556
GlyphClass: 2
Flags: MW
HStem: -15 75 460 75 770 20G
VStem: 35 90 431 90
LayerCount: 2
Fore
SplineSet
239.111328125 844.671875 m 1
 327.971679688 631.5 l 1
 277.971679688 603.5 l 1
 149.3515625 797.659179688 l 1
 239.111328125 844.671875 l 1
277.971679688 540.5 m 1
 457.07421875 466.047851562 l 1
 525.889648438 260.008789062 l 1
 457.010742188 54.00390625 l 1
 277.971679688 -20.482421875 l 1
 98.9765625 53.9697265625 l 1
 30.1396484375 260.008789062 l 1
 98.9443359375 466.047851562 l 1
 277.971679688 540.5 l 1
277.971679688 55.9765625 m 1
 386.282226562 103.637695312 l 1
 434.12109375 259.923828125 l 1
 386.282226562 416.251953125 l 1
 277.971679688 463.956054688 l 1
 169.780273438 416.251953125 l 1
 121.9921875 259.923828125 l 1
 169.747070312 103.637695312 l 1
 277.971679688 55.9765625 l 1
EndSplineSet
EndChar

StartChar: oacute
Encoding: 243 243 161
Width: 556
GlyphClass: 2
Flags: MW
HStem: -15 75 460 75 770 20G
VStem: 35 90 431 90
LayerCount: 2
Fore
SplineSet
316.83203125 840.671875 m 1
 227.971679688 627.5 l 1
 277.971679688 599.5 l 1
 406.591796875 793.659179688 l 1
 316.83203125 840.671875 l 1
277.971679688 540.5 m 1
 457.07421875 466.047851562 l 1
 525.889648438 260.008789062 l 1
 457.010742188 54.00390625 l 1
 277.971679688 -20.482421875 l 1
 98.9765625 53.9697265625 l 1
 30.1396484375 260.008789062 l 1
 98.9443359375 466.047851562 l 1
 277.971679688 540.5 l 1
277.971679688 55.9765625 m 1
 386.282226562 103.637695312 l 1
 434.12109375 259.923828125 l 1
 386.282226562 416.251953125 l 1
 277.971679688 463.956054688 l 1
 169.780273438 416.251953125 l 1
 121.9921875 259.923828125 l 1
 169.747070312 103.637695312 l 1
 277.971679688 55.9765625 l 1
EndSplineSet
EndChar

StartChar: ocircumflex
Encoding: 244 244 162
Width: 556
GlyphClass: 2
Flags: MW
HStem: -15 75 460 75 535 225
VStem: 35 90 431 90
LayerCount: 2
Fore
SplineSet
255.282226562 871.659179688 m 1x00
 297.282226562 871.659179688 l 1
 435.282226562 629.5 l 1
 385.282226562 601.5 l 1
 278.302734375 762.990234375 l 1
 170.662109375 600.5 l 1
 120.662109375 628.5 l 1
 255.282226562 871.659179688 l 1x00
277.971679688 540.5 m 1xd8
 457.07421875 466.047851562 l 1
 525.889648438 260.008789062 l 1
 457.010742188 54.00390625 l 1
 277.971679688 -20.482421875 l 1
 98.9765625 53.9697265625 l 1
 30.1396484375 260.008789062 l 1
 98.9443359375 466.047851562 l 1
 277.971679688 540.5 l 1xd8
277.971679688 55.9765625 m 1
 386.282226562 103.637695312 l 1
 434.12109375 259.923828125 l 1
 386.282226562 416.251953125 l 1
 277.971679688 463.956054688 l 1
 169.780273438 416.251953125 l 1
 121.9921875 259.923828125 l 1
 169.747070312 103.637695312 l 1
 277.971679688 55.9765625 l 1
EndSplineSet
EndChar

StartChar: otilde
Encoding: 245 245 163
Width: 556
GlyphClass: 2
Flags: MW
HStem: -15 75 460 75 660 25 660 75
VStem: 35 90 431 90
LayerCount: 2
Fore
SplineSet
90.865234375 707.770507812 m 1x00
 142.85546875 744.510742188 l 1
 201.020507812 756.7578125 l 1
 287.047851562 720.017578125 l 1
 360.979492188 683.275390625 l 1
 422.180664062 699.60546875 l 1
 437.665039062 711.0625 l 1
 471.134765625 658.849609375 l 1
 419.094726562 622.108398438 l 1
 360.979492188 609.861328125 l 1
 274.978515625 646.568359375 l 1
 201.020507812 683.275390625 l 1
 139.819335938 666.98046875 l 1
 123.504882812 654.7578125 l 1
 90.865234375 707.770507812 l 1x00
277.971679688 540.5 m 1xcc
 457.07421875 466.047851562 l 1
 525.889648438 260.008789062 l 1
 457.010742188 54.00390625 l 1
 277.971679688 -20.482421875 l 1
 98.9765625 53.9697265625 l 1
 30.1396484375 260.008789062 l 1
 98.9443359375 466.047851562 l 1
 277.971679688 540.5 l 1xcc
277.971679688 55.9765625 m 1
 386.282226562 103.637695312 l 1
 434.12109375 259.923828125 l 1
 386.282226562 416.251953125 l 1
 277.971679688 463.956054688 l 1
 169.780273438 416.251953125 l 1
 121.9921875 259.923828125 l 1
 169.747070312 103.637695312 l 1
 277.971679688 55.9765625 l 1
EndSplineSet
EndChar

StartChar: odieresis
Encoding: 246 246 164
Width: 556
GlyphClass: 2
Flags: MW
HStem: -15 75 460 75 620 100
VStem: 35 90 228 99 418 103 431 90
LayerCount: 2
Fore
SplineSet
396.0703125 608.249023438 m 1xf8
 349.83984375 608.25 l 1
 316.987304688 643.995117188 l 1
 317.009765625 694.798828125 l 1
 349.2890625 731.149414062 l 1
 395.51953125 731.1484375 l 1
 428.6796875 694.69921875 l 1
 428.599609375 643.849609375 l 1
 396.0703125 608.249023438 l 1xf8
206.48046875 608.249023438 m 1
 160.25 608.25 l 1
 127.397460938 643.995117188 l 1
 127.419921875 694.798828125 l 1
 159.69921875 731.149414062 l 1
 205.9296875 731.1484375 l 1
 239.08984375 694.69921875 l 1
 239.009765625 643.849609375 l 1
 206.48046875 608.249023438 l 1
277.97265625 534.977539062 m 1
 453.459960938 461.985351562 l 1
 520.9453125 259.985351562 l 1
 453.427734375 57.986328125 l 1
 277.97265625 -15.005859375 l 1
 102.487304688 57.986328125 l 1
 35 259.985351562 l 1
 102.487304688 461.985351562 l 1
 277.97265625 534.977539062 l 1
277.97265625 59.9541015625 m 1
 384.0546875 106.680664062 l 1
 430.977539062 259.90234375 l 1
 384.0546875 413.165039062 l 1
 277.97265625 459.93359375 l 1
 171.860351562 413.165039062 l 1
 124.96875 259.90234375 l 1
 171.860351562 106.680664062 l 1
 277.97265625 59.9541015625 l 1
EndSplineSet
EndChar

StartChar: divide
Encoding: 247 247 165
Width: 556
GlyphClass: 2
Flags: MW
HStem: 145 100 325 75<70 486 70 486> 480 100
VStem: 232 91
CounterMasks: 1 e0
LayerCount: 2
Fore
SplineSet
301.23046875 133.499023438 m 1
 255 133.5 l 1
 222.147460938 169.245117188 l 1
 222.169921875 220.048828125 l 1
 254.44921875 256.399414062 l 1
 300.6796875 256.3984375 l 1
 333.83984375 219.94921875 l 1
 333.759765625 169.099609375 l 1
 301.23046875 133.499023438 l 1
301.25 468.75 m 1
 255.01953125 468.750976562 l 1
 222.166992188 504.49609375 l 1
 222.189453125 555.299804688 l 1
 254.46875 591.650390625 l 1
 300.69921875 591.649414062 l 1
 333.859375 555.200195312 l 1
 333.779296875 504.350585938 l 1
 301.25 468.75 l 1
486 325 m 1
 70 325 l 1
 70 400 l 1
 486 400 l 1
 486 325 l 1
EndSplineSet
EndChar

StartChar: oslash
Encoding: 248 248 166
Width: 556
GlyphClass: 2
Flags: MW
HStem: -15 75 460 75
VStem: 35 90 431 90
LayerCount: 2
Fore
SplineSet
473.001953125 436.026367188 m 1
 513.217773438 359.728515625 l 1
 525.8046875 260.008789062 l 1
 456.936523438 53.9697265625 l 1
 277.97265625 -20.482421875 l 1
 197.14453125 -8.6181640625 l 1
 133.056640625 30.04296875 l 1
 94.951171875 -14.982421875 l 1
 37.91796875 33.9619140625 l 1
 81.0263671875 84.9912109375 l 1
 42.1640625 160.798828125 l 1
 30.140625 260.008789062 l 1
 99.0087890625 466.047851562 l 1
 277.97265625 540.5 l 1
 357.05859375 528.762695312 l 1
 420.971679688 490.974609375 l 1
 457.993164062 535 l 1
 515.025390625 485.971679688 l 1
 473.001953125 436.026367188 l 1
140.977539062 158.033203125 m 1
 368.024414062 428.021484375 l 1
 326.1953125 456.131835938 l 1
 277.97265625 464.041015625 l 1
 169.73828125 416.336914062 l 1
 121.908203125 260.008789062 l 1
 126.24609375 202.609375 l 1
 140.977539062 158.033203125 l 1
412.966796875 364.944335938 m 1
 185.002929688 92.99609375 l 1
 227.87890625 64.013671875 l 1
 277.97265625 55.9345703125 l 1
 386.208007812 103.594726562 l 1
 434.038085938 259.880859375 l 1
 429.0625 318.887695312 l 1
 412.966796875 364.944335938 l 1
EndSplineSet
EndChar

StartChar: ugrave
Encoding: 249 249 167
Width: 555
GlyphClass: 2
Flags: MW
HStem: -15 76 0 61 500 20G 770 20G
VStem: 65 90 400 90
LayerCount: 2
Fore
SplineSet
223 845 m 1x3c
 311.860351562 631.828125 l 1
 261.860351562 603.828125 l 1
 133.240234375 797.987304688 l 1
 223 845 l 1x3c
489.994140625 520.01171875 m 1
 489.994140625 -0.037109375 l 1
 408.947265625 -0.037109375 l 1
 408.947265625 74.9228515625 l 1
 341.362304688 7.810546875 l 1
 244.194335938 -16.2578125 l 1
 97.857421875 46.45703125 l 1
 65 200.912109375 l 1
 65 519.928710938 l 1
 155.051757812 519.928710938 l 1
 155.051757812 204.9140625 l 1
 178.259765625 100.250976562 l 1
 262.564453125 61.2216796875 l 1
 364.250976562 107.39453125 l 1
 399.859375 236.932617188 l 1
 399.859375 520.01171875 l 1
 489.994140625 520.01171875 l 1
EndSplineSet
EndChar

StartChar: uacute
Encoding: 250 250 168
Width: 555
GlyphClass: 2
Flags: MW
HStem: -15 76 0 61 500 20G<62 152 152 152 401.477 491.477 491.477 491.477> 770 20G
VStem: 62.0586 90 397.059 90
LayerCount: 2
Fore
SplineSet
302.850585938 849.103515625 m 1x00
 213.990234375 635.931640625 l 1
 263.990234375 607.931640625 l 1
 392.610351562 802.090820312 l 1
 302.850585938 849.103515625 l 1x00
491.4765625 520 m 1x2c
 491.4765625 0 l 1
 410.4765625 0 l 1
 410.4765625 75 l 1
 339.522460938 3.7451171875 l 1
 242.323242188 -20.3232421875 l 1
 95.9541015625 42.3916015625 l 1
 62 202 l 1
 62 520 l 1
 152 520 l 1
 152 202.673828125 l 1
 176.458984375 96.1845703125 l 1
 260.806640625 57.15625 l 1
 362.4921875 103.329101562 l 1
 401.4765625 238.088867188 l 1
 401.4765625 520 l 1
 491.4765625 520 l 1x2c
EndSplineSet
EndChar

StartChar: ucircumflex
Encoding: 251 251 169
Width: 555
GlyphClass: 2
Flags: MW
HStem: -15 76 0 61 500 20G 740 20G
VStem: 65 90 400 90
LayerCount: 2
Fore
SplineSet
254 849 m 1x98
 119.379882812 605.840820312 l 1
 169.379882812 577.840820312 l 1
 277.021484375 740.331054688 l 1
 384 578.840820312 l 1
 434 606.840820312 l 1
 296 849 l 1
 254 849 l 1x98
490.077148438 520.112304688 m 1x3c
 490.077148438 0.0634765625 l 1
 408.947265625 0.0634765625 l 1
 408.947265625 75.0234375 l 1
 341.42578125 7.9111328125 l 1
 244.193359375 -16.1572265625 l 1
 97.82421875 46.5576171875 l 1
 65 201.012695312 l 1
 65 520.029296875 l 1
 155.051757812 520.029296875 l 1
 155.051757812 205.014648438 l 1
 178.301757812 100.3515625 l 1
 262.649414062 61.322265625 l 1
 364.3359375 107.495117188 l 1
 399.942382812 237.033203125 l 1
 399.942382812 520.112304688 l 1
 490.077148438 520.112304688 l 1x3c
EndSplineSet
EndChar

StartChar: udieresis
Encoding: 252 252 170
Width: 555
GlyphClass: 2
Flags: MW
HStem: -15 76 0 61 500 20G 620 100
VStem: 65 90 137 91 327 91 400 90
LayerCount: 2
Fore
SplineSet
395.5703125 608.249023438 m 1x30
 349.33984375 608.25 l 1
 316.487304688 643.995117188 l 1
 316.509765625 694.798828125 l 1
 348.7890625 731.149414062 l 1
 395.01953125 731.1484375 l 1
 428.1796875 694.69921875 l 1
 428.099609375 643.849609375 l 1
 395.5703125 608.249023438 l 1x30
205.73046875 608.249023438 m 1
 159.5 608.25 l 1
 126.647460938 643.995117188 l 1
 126.669921875 694.798828125 l 1
 158.94921875 731.149414062 l 1
 205.1796875 731.1484375 l 1
 238.33984375 694.69921875 l 1
 238.259765625 643.849609375 l 1
 205.73046875 608.249023438 l 1
490.077148438 520.051757812 m 1
 490.077148438 0.0029296875 l 1
 408.947265625 0.0029296875 l 1
 408.947265625 74.962890625 l 1
 341.393554688 7.8515625 l 1
 244.193359375 -16.2177734375 l 1
 97.82421875 46.4970703125 l 1
 65 200.952148438 l 1
 65 519.96875 l 1x38
 155.051757812 519.96875 l 1
 155.051757812 204.954101562 l 1
 178.301757812 100.291015625 l 1
 262.649414062 61.26171875 l 1
 364.3359375 107.434570312 l 1
 399.942382812 236.97265625 l 1
 399.942382812 520.051757812 l 1
 490.077148438 520.051757812 l 1
EndSplineSet
EndChar

StartChar: yacute
Encoding: 253 253 171
Width: 500
GlyphClass: 2
Flags: MW
HStem: -210 79 500 20G 770 20G
LayerCount: 2
Fore
SplineSet
291.360351562 849.671875 m 1
 202.5 636.5 l 1
 252.5 608.5 l 1
 381.120117188 802.659179688 l 1
 291.360351562 849.671875 l 1
106 -132 m 1
 152.963867188 -112.497070312 l 1
 191.5 -51.4365234375 l 1
 212.116210938 5.037109375 l 1
 19 498 l 1
 100 528 l 1
 254.056640625 115.017578125 l 1
 405 528 l 1
 482 498 l 1
 275.240234375 -57.53125 l 1
 216.19140625 -167.111328125 l 1
 117.978515625 -210.002929688 l 1
 60.9462890625 -200.080078125 l 1
 77 -127 l 1
 106 -132 l 1
EndSplineSet
EndChar

StartChar: thorn
Encoding: 254 254 172
Width: 550
GlyphClass: 2
Flags: MW
HStem: -200 21G<65 65 65 155> -15 75 460 60 460 75
VStem: 65 79 425 90
LayerCount: 2
Fore
SplineSet
65 -200 m 1xdc
 65 520 l 1
 145 520 l 1
 145 449 l 1
 206.607421875 518.111328125 l 1
 294.734375 542.349609375 l 1
 463.715820312 464.071289062 l 1
 522.41015625 261.859375 l 1
 463.715820312 59.6474609375 l 1
 294.734375 -18.6318359375 l 1
 211.407226562 2.1455078125 l 1
 155 55 l 1
 155 -200 l 1
 65 -200 l 1xdc
289.631835938 57.8271484375 m 1
 390.244140625 109.315429688 l 1
 430.387695312 261.774414062 l 1
 390.244140625 414.275390625 l 1
 289.631835938 465.806640625 l 1
 190.327148438 414.275390625 l 1
 143.772460938 261.774414062 l 1
 186.499023438 109.315429688 l 1
 289.631835938 57.8271484375 l 1
EndSplineSet
EndChar

StartChar: ydieresis
Encoding: 255 255 173
Width: 500
GlyphClass: 2
Flags: MW
HStem: -210 79 500 20G 620 100
VStem: 113 91 303 91
LayerCount: 2
Fore
SplineSet
106 -132 m 1
 152.963867188 -112.497070312 l 1
 191.5 -51.4365234375 l 1
 212.116210938 5.037109375 l 1
 19 498 l 1
 100 528 l 1
 254.056640625 115.017578125 l 1
 405 528 l 1
 482 498 l 1
 275.240234375 -57.53125 l 1
 216.19140625 -167.111328125 l 1
 117.978515625 -210.002929688 l 1
 60.9462890625 -200.080078125 l 1
 77 -127 l 1
 106 -132 l 1
371.8203125 608.249023438 m 1
 325.58984375 608.25 l 1
 292.737304688 643.995117188 l 1
 292.759765625 694.798828125 l 1
 325.0390625 731.149414062 l 1
 371.26953125 731.1484375 l 1
 404.4296875 694.69921875 l 1
 404.349609375 643.849609375 l 1
 371.8203125 608.249023438 l 1
181.98046875 608.249023438 m 1
 135.75 608.25 l 1
 102.897460938 643.995117188 l 1
 102.919921875 694.798828125 l 1
 135.19921875 731.149414062 l 1
 181.4296875 731.1484375 l 1
 214.58984375 694.69921875 l 1
 214.509765625 643.849609375 l 1
 181.98046875 608.249023438 l 1
EndSplineSet
EndChar

StartChar: Abreve
Encoding: 258 258 174
Width: 675
GlyphClass: 2
Flags: MW
HStem: 0 21G 175 85<205 466 205 497 173 466> 700 20G<290 387 387 387> 753 81 753 167
LayerCount: 2
Fore
SplineSet
510.280273438 895.149414062 m 1xe0
 476.583007812 803.994140625 l 1
 340.918945312 751.348632812 l 1
 207.37109375 804.376953125 l 1
 175.719726562 895.149414062 l 1
 236.904296875 921.701171875 l 1
 264.842773438 858.680664062 l 1
 343.196289062 834.62890625 l 1
 419.163085938 858.680664062 l 1
 449.100585938 921.701171875 l 1
 510.280273438 895.149414062 l 1xe0
167 159 m 1
 104 -8 l 1
 19 24 l 1
 290 720 l 1
 387 720 l 1
 656 23.8330078125 l 1
 565 -8 l 1
 504 156 l 1
 497 175 l 1
 173 175 l 1
 167 159 l 1
466 260 m 1
 338 611 l 1
 205 260 l 1
 466 260 l 1
EndSplineSet
EndChar

StartChar: abreve
Encoding: 259 259 175
Width: 545
GlyphClass: 2
Flags: MW
HStem: -15 72 0 21G<388 472 388 388> 463 72 573 71 573 147
VStem: 35 94 381 50 381 90
LayerCount: 2
Fore
SplineSet
423.700195312 698.009765625 m 1x24
 397.780273438 613.965820312 l 1
 285.111328125 571.526367188 l 1
 174.452148438 614.381835938 l 1
 148.299804688 698.009765625 l 1
 201.509765625 721.466796875 l 1
 226.94921875 663.548828125 l 1
 286.73828125 644.430664062 l 1
 345.401367188 663.548828125 l 1
 372.711914062 721.466796875 l 1
 423.700195312 698.009765625 l 1x24
83.0498046875 16.38671875 m 1
 29.490234375 134.477539062 l 1
 89.1630859375 258.784179688 l 1
 382.41015625 348.740234375 l 1
 382.41015625 348.740234375 l 1
 347.499023438 441.418945312 l 1
 259.971679688 467.018554688 l 1
 178.3046875 439.981445312 l 1
 132.484375 360.962890625 l 1
 61.1103515625 404.840820312 l 1
 129.157226562 506.319335938 l 1
 269.158203125 540.500976562 l 1
 424.775390625 488.110351562 l 1
 472.125 335.448242188 l 1
 472 0 l 1
 388 0 l 1x64
 388.391601562 60.14453125 l 1
 303.06640625 -2.4677734375 l 1
 209.958984375 -20.56640625 l 1
 83.0498046875 16.38671875 l 1
382.41015625 269.180664062 m 1
 165.568359375 209.150390625 l 1
 125.424804688 138.475585938 l 1
 156.57421875 70.3935546875 l 1
 224.336914062 52.830078125 l 1
 318.719726562 81.7890625 l 1
 382.357421875 137.5390625 l 1
 382.41015625 269.180664062 l 1
EndSplineSet
EndChar

StartChar: Aogonek
Encoding: 260 260 176
Width: 675
GlyphClass: 2
Flags: MW
HStem: -204 65 0 21G 175 85 700 20G
VStem: 490 66
LayerCount: 2
Fore
SplineSet
386.994140625 719.997070312 m 1
 662 7 l 1
 580.643554688 -20.3173828125 l 1
 555.521484375 -74.205078125 l 1
 574.158203125 -122.350585938 l 1
 615.99609375 -138.927734375 l 1
 662.924804688 -116.874023438 l 1
 678 -97 l 1
 720.102539062 -136.078125 l 1
 681.0390625 -183.016601562 l 1
 606.346679688 -205.078125 l 1
 525.796875 -177.037109375 l 1
 488.163085938 -88.578125 l 1
 510.998046875 -22.8779296875 l 1
 558.009765625 10.005859375 l 1
 497.057617188 175.017578125 l 1
 173.038085938 175.017578125 l 1
 104 -8 l 1
 19 24.181640625 l 1
 289.938476562 719.997070312 l 1
 386.994140625 719.997070312 l 1
204.973632812 259.982421875 m 1
 466.040039062 259.982421875 l 1
 338.049804688 611.017578125 l 1
 204.973632812 259.982421875 l 1
EndSplineSet
EndChar

StartChar: aogonek
Encoding: 261 261 177
Width: 544
GlyphClass: 2
Flags: MW
HStem: -204 65 -15 72 0 57 463 72
VStem: 35 94 320 66 381 90
LayerCount: 2
Fore
SplineSet
83.8349609375 18.25 m 1x98
 30.2431640625 136.340820312 l 1
 89.958984375 260.647460938 l 1
 241.916015625 308.19921875 l 1
 359.09375 328.823242188 l 1
 383.110351562 344.455078125 l 1
 365.477539062 400.0859375 l 1
 348.326171875 443.282226562 l 1
 260.725585938 468.881835938 l 1
 179.08984375 441.844726562 l 1
 133.237304688 362.826171875 l 1
 63 406 l 1
 129.920898438 508.182617188 l 1
 269.911132812 542.36328125 l 1
 425.603515625 489.973632812 l 1
 470.989257812 332.140625 l 1
 471.573242188 100.607421875 l 1
 484.012695312 34.4609375 l 1
 503.534179688 -3.3095703125 l 1
 453.708007812 -9.603515625 l 1
 413.3828125 -22.8203125 l 1
 388.29296875 -79.7685546875 l 1
 404.728515625 -126.970703125 l 1
 448.331054688 -144.626953125 l 1
 487.379882812 -132.336914062 l 1
 502 -107 l 1
 550.112304688 -136.078125 l 1
 514.326171875 -188.418945312 l 1
 441.278320312 -211.423828125 l 1
 358.557617188 -182.6015625 l 1
 320.934570312 -94.142578125 l 1
 345.088867188 -23.6025390625 l 1
 403.686523438 13.955078125 l 1
 389.3984375 61.837890625 l 1
 302.078125 -0.9453125 l 1
 210.713867188 -18.703125 l 1
 83.8349609375 18.25 l 1x98
383.196289062 264.848632812 m 1
 166.396484375 211.012695312 l 1
 126.263671875 140.337890625 l 1
 157.370117188 72.255859375 l 1
 226.84765625 55.2294921875 l 1
 320.8984375 84.861328125 l 1
 383.196289062 139.40234375 l 1
 383.196289062 264.848632812 l 1
EndSplineSet
EndChar

StartChar: Cacute
Encoding: 262 262 178
Width: 734
GlyphClass: 2
Flags: MW
HStem: -15 80 655 80 970 20G
VStem: 50 100
LayerCount: 2
Fore
SplineSet
415 927.5 m 1
 358 790 l 1
 408 762 l 1
 489 884 l 1
 415 927.5 l 1
383.485351562 59.046875 m 1
 517.767578125 106.080078125 l 1
 591.513671875 230.420898438 l 1
 674.16015625 184.560546875 l 1
 587.443359375 42.625 l 1
 383.485351562 -22.513671875 l 1
 129.475585938 89.5546875 l 1
 43.7998046875 359.950195312 l 1
 129.475585938 630.415039062 l 1
 383.485351562 742.5 l 1
 587.889648438 678.381835938 l 1
 676.200195312 531.360351562 l 1
 591.513671875 488.543945312 l 1
 524.592773438 613.012695312 l 1
 383.485351562 660.9375 l 1
 207.25390625 574.3671875 l 1
 145.7734375 360.03515625 l 1
 203.39453125 145.627929688 l 1
 383.485351562 59.046875 l 1
EndSplineSet
EndChar

StartChar: Ccircumflex
Encoding: 264 264 179
Width: 734
GlyphClass: 2
Flags: MW
HStem: -15 80 655 80
VStem: 50 100
LayerCount: 2
Fore
SplineSet
346 950 m 1
 230 795 l 1
 275.379882812 760.5 l 1
 384 891 l 1
 490 761.5 l 1
 536 796 l 1
 425 950 l 1
 384 950 l 1
 346 950 l 1
383.485351562 59.046875 m 1
 517.767578125 106.080078125 l 1
 591.513671875 230.420898438 l 1
 674.16015625 184.560546875 l 1
 587.443359375 42.625 l 1
 383.485351562 -22.513671875 l 1
 129.475585938 89.5546875 l 1
 43.7998046875 359.950195312 l 1
 129.475585938 630.415039062 l 1
 383.485351562 742.5 l 1
 587.889648438 678.381835938 l 1
 676.200195312 531.360351562 l 1
 591.513671875 488.543945312 l 1
 524.592773438 613.012695312 l 1
 383.485351562 660.9375 l 1
 207.25390625 574.3671875 l 1
 145.7734375 360.03515625 l 1
 203.39453125 145.627929688 l 1
 383.485351562 59.046875 l 1
EndSplineSet
EndChar

StartChar: ccircumflex
Encoding: 265 265 180
Width: 524
GlyphClass: 2
Flags: MW
HStem: -15 75 460 75 591.659 21G 821.659 20G
VStem: 35 90
LayerCount: 2
Fore
SplineSet
250.694335938 871.659179688 m 1
 292.694335938 871.659179688 l 1
 430.694335938 629.5 l 1
 380.694335938 601.5 l 1
 273.715820312 762.990234375 l 1
 166.07421875 600.5 l 1
 116.07421875 628.5 l 1
 250.694335938 871.659179688 l 1
273.384765625 55.9765625 m 1
 355.116210938 84.2548828125 l 1
 404.955078125 175.299804688 l 1
 481.41015625 134.540039062 l 1
 415.639648438 25.5205078125 l 1
 273.384765625 -20.482421875 l 1
 96.833984375 53.9697265625 l 1
 30.5703125 260.008789062 l 1
 96.8974609375 466.047851562 l 1
 273.384765625 540.5 l 1
 415.639648438 493.944335938 l 1
 482.4296875 382.399414062 l 1
 404.955078125 343.612304688 l 1
 355.1796875 435.591796875 l 1
 273.384765625 464.041015625 l 1
 167.66796875 416.336914062 l 1
 122.422851562 260.008789062 l 1
 167.66796875 103.680664062 l 1
 273.384765625 55.9765625 l 1
EndSplineSet
EndChar

StartChar: Cdotaccent
Encoding: 266 266 181
Width: 734
GlyphClass: 2
Flags: MW
HStem: -15 80 655 80 813.949 100
VStem: 50 100 337.485 91
LayerCount: 2
Fore
SplineSet
406.625976562 802.499023438 m 1
 360.395507812 802.5 l 1
 327.54296875 838.245117188 l 1
 327.565429688 889.048828125 l 1
 359.844726562 925.399414062 l 1
 406.075195312 925.3984375 l 1
 439.235351562 888.94921875 l 1
 439.155273438 838.099609375 l 1
 406.625976562 802.499023438 l 1
383.485351562 59.046875 m 1
 517.767578125 106.080078125 l 1
 591.513671875 230.420898438 l 1
 674.16015625 184.560546875 l 1
 587.443359375 42.625 l 1
 383.485351562 -22.513671875 l 1
 129.475585938 89.5546875 l 1
 43.7998046875 359.950195312 l 1
 129.475585938 630.415039062 l 1
 383.485351562 742.5 l 1
 587.889648438 678.381835938 l 1
 676.200195312 531.360351562 l 1
 591.513671875 488.543945312 l 1
 524.592773438 613.012695312 l 1
 383.485351562 660.9375 l 1
 207.25390625 574.3671875 l 1
 145.7734375 360.03515625 l 1
 203.39453125 145.627929688 l 1
 383.485351562 59.046875 l 1
EndSplineSet
EndChar

StartChar: cdotaccent
Encoding: 267 267 182
Width: 524
GlyphClass: 2
Flags: MW
HStem: -15 75 460 75 611.949 100
VStem: 35 90 227.385 91
LayerCount: 2
Fore
SplineSet
296.525390625 600.499023438 m 1
 250.294921875 600.5 l 1
 217.442382812 636.245117188 l 1
 217.46484375 687.048828125 l 1
 249.744140625 723.399414062 l 1
 295.974609375 723.3984375 l 1
 329.134765625 686.94921875 l 1
 329.0546875 636.099609375 l 1
 296.525390625 600.499023438 l 1
273.384765625 55.9765625 m 1
 355.116210938 84.2548828125 l 1
 404.955078125 175.299804688 l 1
 481.41015625 134.540039062 l 1
 415.639648438 25.5205078125 l 1
 273.384765625 -20.482421875 l 1
 96.833984375 53.9697265625 l 1
 30.5703125 260.008789062 l 1
 96.8974609375 466.047851562 l 1
 273.384765625 540.5 l 1
 415.639648438 493.944335938 l 1
 482.4296875 382.399414062 l 1
 404.955078125 343.612304688 l 1
 355.1796875 435.591796875 l 1
 273.384765625 464.041015625 l 1
 167.66796875 416.336914062 l 1
 122.422851562 260.008789062 l 1
 167.66796875 103.680664062 l 1
 273.384765625 55.9765625 l 1
EndSplineSet
EndChar

StartChar: Ccaron
Encoding: 268 268 183
Width: 734
GlyphClass: 2
Flags: MW
HStem: -15 80 655 80 735 235
VStem: 50 100
LayerCount: 2
Fore
SplineSet
421 790.5 m 1x90
 537 945.5 l 1
 491.620117188 980 l 1
 383 849.5 l 1
 277 979 l 1
 231 944.5 l 1
 342 790.5 l 1
 383 790.5 l 1
 421 790.5 l 1x90
383.485351562 59.046875 m 1xd0
 517.767578125 106.080078125 l 1
 591.513671875 230.420898438 l 1
 674.16015625 184.560546875 l 1
 587.443359375 42.625 l 1
 383.485351562 -22.513671875 l 1
 129.475585938 89.5546875 l 1
 43.7998046875 359.950195312 l 1
 129.475585938 630.415039062 l 1
 383.485351562 742.5 l 1
 587.889648438 678.381835938 l 1
 676.200195312 531.360351562 l 1
 591.513671875 488.543945312 l 1
 524.592773438 613.012695312 l 1
 383.485351562 660.9375 l 1
 207.25390625 574.3671875 l 1
 145.7734375 360.03515625 l 1
 203.39453125 145.627929688 l 1
 383.485351562 59.046875 l 1xd0
EndSplineSet
EndChar

StartChar: ccaron
Encoding: 269 269 184
Width: 524
GlyphClass: 2
Flags: MW
HStem: -15 75 460 75 535 225
VStem: 35 90
LayerCount: 2
Fore
SplineSet
243.694335938 600.5 m 1x90
 109.07421875 843.659179688 l 1
 159.07421875 871.659179688 l 1
 266.715820312 709.168945312 l 1
 373.694335938 870.659179688 l 1
 423.694335938 842.659179688 l 1
 285.694335938 600.5 l 1
 243.694335938 600.5 l 1x90
273.384765625 55.9765625 m 1xd0
 355.116210938 84.2548828125 l 1
 404.955078125 175.299804688 l 1
 481.41015625 134.540039062 l 1
 415.639648438 25.5205078125 l 1
 273.384765625 -20.482421875 l 1
 96.833984375 53.9697265625 l 1
 30.5703125 260.008789062 l 1
 96.8974609375 466.047851562 l 1
 273.384765625 540.5 l 1
 415.639648438 493.944335938 l 1
 482.4296875 382.399414062 l 1
 404.955078125 343.612304688 l 1
 355.1796875 435.591796875 l 1
 273.384765625 464.041015625 l 1
 167.66796875 416.336914062 l 1
 122.422851562 260.008789062 l 1
 167.66796875 103.680664062 l 1
 273.384765625 55.9765625 l 1xd0
EndSplineSet
EndChar

StartChar: Dcaron
Encoding: 270 270 185
Width: 709
GlyphClass: 2
Flags: MW
HStem: 0 84<175 309 175 319> 635 85<175 306 175 175> 950 20G
VStem: 80 95<84 84 84 635> 561 98
LayerCount: 2
Fore
SplineSet
339 790.5 m 1
 455 945.5 l 1
 409.620117188 980 l 1
 301 849.5 l 1
 195 979 l 1
 149 944.5 l 1
 260 790.5 l 1
 301 790.5 l 1
 339 790.5 l 1
80 0 m 1
 80 720 l 1
 306 720 l 1
 576.282226562 633.374023438 l 1
 668.624023438 362.084960938 l 1
 581.926757812 91.3662109375 l 1
 319 0 l 1
 80 0 l 1
175 84 m 1
 309 84 l 1
 505.435546875 149.224609375 l 1
 568.690429688 363.021484375 l 1
 497.005859375 579.776367188 l 1
 306 635 l 1
 175 635 l 1
 175 84 l 1
EndSplineSet
EndChar

StartChar: dcaron
Encoding: 271 271 186
Width: 550
GlyphClass: 2
Flags: MW
HStem: -15 75 460 75 700 20G<395 485 485 485>
VStem: 35 90 406 79 550 100 601 49
LayerCount: 2
Fore
SplineSet
485 720 m 1x3c
 485 0 l 1
 405 0 l 1
 405 71 l 1
 343.4765625 1.533203125 l 1
 255.264648438 -22.705078125 l 1
 86.3994140625 55.5732421875 l 1
 27.7587890625 257.78515625 l 1
 86.3994140625 459.998046875 l 1
 255.264648438 538.27734375 l 1
 338.625 517.46484375 l 1
 395 465.920898438 l 1
 395 720 l 1
 485 720 l 1x3c
260.452148438 461.818359375 m 1
 159.796875 410.287109375 l 1
 119.611328125 257.78515625 l 1
 159.796875 105.327148438 l 1
 260.452148438 53.8388671875 l 1
 359.7578125 105.327148438 l 1
 406.311523438 257.78515625 l 1
 363.584960938 410.287109375 l 1
 260.452148438 461.818359375 l 1
578.3046875 721.97265625 m 1xe0
 619.724609375 721.974609375 l 1
 649 692.6953125 l 1
 649 651.27734375 l 1
 649 622 l 1
 628.625 533.365234375 l 1
 572 484 l 1
 543.10546875 518.0234375 l 1
 584.755859375 551.626953125 l 1
 600.138671875 621.998046875 l 1
 600.138671875 621.998046875 l 1
 578.30078125 621.998046875 l 1
 549.025390625 651.28125 l 1
 549.025390625 692.69921875 l 1
 578.3046875 721.97265625 l 1xe0
EndSplineSet
EndChar

StartChar: Dcroat
Encoding: 272 272 187
Width: 799
GlyphClass: 2
Flags: MW
HStem: 0 84 325 75 635 85<170.003 392>
VStem: 170 95 651 98
LayerCount: 2
Fore
SplineSet
170.002929688 0.0029296875 m 1
 170.002929688 325.0234375 l 1
 20 325.0234375 l 1
 20 399.982421875 l 1
 170.002929688 399.982421875 l 1
 170.002929688 720 l 1
 392 720 l 1
 659.2265625 638.580078125 l 1
 750.861328125 361.879882812 l 1
 664.952148438 85.7421875 l 1
 405.137695312 -0.1552734375 l 1
 170.002929688 -0.1552734375 l 1
 170.002929688 0.0029296875 l 1
264.973632812 83.9677734375 m 1
 406 84 l 1
 586.779296875 145.0703125 l 1
 651.255859375 363.141601562 l 1
 578.19140625 584.231445312 l 1
 392 635 l 1
 265.140625 635.092773438 l 1
 265.140625 400.125 l 1
 436.239257812 400.125 l 1
 436.239257812 325.165039062 l 1
 265.140625 325.165039062 l 1
 264.973632812 84.109375 l 1
 264.973632812 83.9677734375 l 1
EndSplineSet
EndChar

StartChar: dcroat
Encoding: 273 273 188
Width: 550
GlyphClass: 2
Flags: MW
HStem: -15 75 0 60 460 75 577 66<320 395 320 395 485 550> 700 20G<395 485 485 485>
VStem: 35 90 406 79
LayerCount: 2
Fore
SplineSet
260.452148438 461.818359375 m 1x3e
 159.796875 410.287109375 l 1
 119.611328125 257.78515625 l 1
 159.796875 105.327148438 l 1
 260.452148438 53.8388671875 l 1
 359.7578125 105.327148438 l 1
 406.311523438 257.78515625 l 1
 363.584960938 410.287109375 l 1
 260.452148438 461.818359375 l 1x3e
485 577 m 1
 485 0 l 1
 405 0 l 1x7e
 405 71 l 1
 343.4765625 1.533203125 l 1
 255.264648438 -22.705078125 l 1
 86.3994140625 55.5732421875 l 1
 27.7587890625 257.78515625 l 1
 86.3994140625 459.998046875 l 1
 255.264648438 538.27734375 l 1
 338.625 517.46484375 l 1
 395 465.920898438 l 1
 395 577 l 1
 320 577 l 1
 320 643 l 1
 395 643 l 1
 395 720 l 1
 485 720 l 1
 485 643 l 1
 550 643 l 1
 550 577 l 1
 485 577 l 1
EndSplineSet
EndChar

StartChar: Eogonek
Encoding: 280 280 189
Width: 657
GlyphClass: 2
Flags: MW
HStem: -204 65 0 85 325 85 635 85
VStem: 80 95 410 66
LayerCount: 2
Fore
SplineSet
80.0419921875 -0.1240234375 m 1
 80.0419921875 720.03125 l 1
 576.994140625 720.03125 l 1
 576.994140625 634.982421875 l 1
 175.096679688 634.982421875 l 1
 175.096679688 410.01953125 l 1
 527.131835938 410.01953125 l 1
 527.131835938 324.970703125 l 1
 175.096679688 324.970703125 l 1
 175.096679688 85 l 1
 587 85 l 1
 587 -0.048828125 l 1
 534.568359375 -6.26953125 l 1
 497.0390625 -23.287109375 l 1
 476.006835938 -76.4677734375 l 1
 493.771484375 -122.462890625 l 1
 537.807617188 -138.596679688 l 1
 607.424804688 -105.91796875 l 1
 639.947265625 -136.119140625 l 1
 600.974609375 -183.14453125 l 1
 526.26953125 -205.317382812 l 1
 445.556640625 -177.216796875 l 1
 407.921875 -88.7578125 l 1
 424.88671875 -33.0595703125 l 1
 463.845703125 -0.1240234375 l 1
 80.0419921875 -0.1240234375 l 1
EndSplineSet
EndChar

StartChar: eogonek
Encoding: 281 281 190
Width: 544
GlyphClass: 2
Flags: MW
HStem: -204 65 -15 75 237 72 460 75
VStem: 35 90 270 66 413 96
LayerCount: 2
Fore
SplineSet
124.944335938 237.383789062 m 1
 174.487304688 100.733398438 l 1
 278.06640625 58.2607421875 l 1
 365.379882812 87.5947265625 l 1
 419.841796875 176.563476562 l 1
 495.377929688 136.427734375 l 1
 460.479492188 67.4296875 l 1
 350.681640625 -28.01953125 l 1
 336.946289062 -80.4248046875 l 1
 354.817382812 -127.573242188 l 1
 397.536132812 -144.862304688 l 1
 436.168945312 -133.78515625 l 1
 462.1640625 -102.927734375 l 1
 507.068359375 -142.28515625 l 1
 465.020507812 -189.50390625 l 1
 390.4765625 -212.987304688 l 1
 306.1015625 -183.587890625 l 1
 267.724609375 -93.359375 l 1
 279.071289062 -45.3515625 l 1
 302.73046875 -16.3271484375 l 1
 258.286132812 -12.330078125 l 1
 96.625 55.8623046875 l 1
 30.4033203125 261.901367188 l 1
 96.6884765625 467.940429688 l 1
 273.133789062 542.392578125 l 1
 453.532226562 465.006835938 l 1
 513.805664062 270.3125 l 1
 508 237 l 1
 124.9453125 237.833984375 l 1
 124.944335938 237.383789062 l 1
127.946289062 309.42578125 m 1
 412.943359375 309.42578125 l 1
 374.947265625 422.958984375 l 1
 272.962890625 466.325195312 l 1
 181.375976562 429.848632812 l 1
 127.946289062 309.42578125 l 1
EndSplineSet
EndChar

StartChar: Ecaron
Encoding: 282 282 191
Width: 657
GlyphClass: 2
Flags: MW
HStem: 0 85<175 587 175 587> 325 85<175 527 175 527> 635 85<175 577 175 175> 950 20G
VStem: 80 95<85 325 410 635>
LayerCount: 2
Fore
SplineSet
370 790.5 m 1
 486 945.5 l 1
 440.620117188 980 l 1
 332 849.5 l 1
 226 979 l 1
 180 944.5 l 1
 291 790.5 l 1
 332 790.5 l 1
 370 790.5 l 1
587 0 m 1
 80 0 l 1
 80 720 l 1
 577 720 l 1
 577 635 l 1
 175 635 l 1
 175 410 l 1
 527 410 l 1
 527 325 l 1
 175 325 l 1
 175 85 l 1
 587 85 l 1
 587 0 l 1
EndSplineSet
EndChar

StartChar: ecaron
Encoding: 283 283 192
Width: 544
GlyphClass: 2
Flags: MW
HStem: -15 75 60 177 237 72 309 151 460 75 535 225
VStem: 35 90 413 96
LayerCount: 2
Fore
SplineSet
250.356445312 600.879882812 m 1x03
 115.736328125 844.0390625 l 1
 165.736328125 872.0390625 l 1
 273.377929688 709.548828125 l 1
 380.356445312 871.0390625 l 1
 430.356445312 843.0390625 l 1
 292.356445312 600.879882812 l 1
 250.356445312 600.879882812 l 1x03
174.46484375 98.9150390625 m 1xab
 278.149414062 56.44140625 l 1
 365.399414062 85.7744140625 l 1
 419.926757812 174.744140625 l 1
 490 131 l 1
 421.6171875 23.7744140625 l 1
 273.046875 -20.1025390625 l 1
 96.6025390625 54.349609375 l 1
 30.3173828125 260.388671875 l 1
 96.6025390625 466.427734375 l 1
 273.046875 540.879882812 l 1
 453.446289062 463.494140625 l 1
 513 273 l 1
 508 237 l 1
 122.000976562 236.915039062 l 1
 174.46484375 98.9150390625 l 1xab
125 309 m 1
 416 309 l 1
 374.999023438 421.139648438 l 1
 272.961914062 464.505859375 l 1
 181.481445312 428.028320312 l 1
 125 309 l 1
EndSplineSet
EndChar

StartChar: gcircumflex
Encoding: 285 285 193
Width: 558
GlyphClass: 2
Flags: MW
HStem: -210 76 -15 75 460 60 460 75 593.61 21G 823.61 20G
VStem: 43 90 63 85 403 90
LayerCount: 2
Fore
SplineSet
239.23046875 873.610351562 m 1x0c
 281.23046875 873.610351562 l 1
 419.23046875 631.451171875 l 1
 369.23046875 603.451171875 l 1
 262.250976562 764.94140625 l 1
 154.610351562 602.451171875 l 1
 104.610351562 630.451171875 l 1
 239.23046875 873.610351562 l 1x0c
260.900390625 -217.545898438 m 1xd280
 120.368164062 -174.689453125 l 1
 75 -79 l 1
 147 -46 l 1
 179.763671875 -116.515625 l 1
 263.025390625 -139.98046875 l 1
 369.922851562 -99.548828125 l 1
 401.741210938 16.83984375 l 1
 402 55 l 1
 342.446289062 0.6650390625 l 1
 261.919921875 -18.53125 l 1
 93.09765625 59.748046875 l 1
 34.5 261.959960938 l 1
 93.09765625 464.171875 l 1
 261.919921875 542.451171875 l 1
 353.086914062 516.42578125 l 1
 412 450 l 1
 412 520 l 1
 492 520 l 1
 492 34 l 1
 447.178710938 -139.384765625 l 1
 260.900390625 -217.545898438 l 1xd280
267.0234375 465.907226562 m 1
 166.517578125 414.375976562 l 1
 126.352539062 261.875 l 1
 166.517578125 109.416015625 l 1
 267.0234375 57.927734375 l 1
 370.198242188 109.416015625 l 1
 412.967773438 261.875 l 1
 366.403320312 414.375976562 l 1
 267.0234375 465.907226562 l 1
EndSplineSet
EndChar

StartChar: Lacute
Encoding: 313 313 194
Width: 608
GlyphClass: 2
Flags: MW
HStem: 0 85<175 578 175 578> 700 20G<80 175 175 175> 970 20G
VStem: 80 95<85 720 85 720 85 720>
LayerCount: 2
Fore
SplineSet
162 956.5 m 1
 105 819 l 1
 155 791 l 1
 236 913 l 1
 162 956.5 l 1
578 0 m 1
 80 0 l 1
 80 720 l 1
 175 720 l 1
 175 85 l 1
 578 85 l 1
 578 0 l 1
EndSplineSet
EndChar

StartChar: Lcaron
Encoding: 317 317 195
Width: 608
GlyphClass: 2
Flags: MW
HStem: 0 85<175 578 175 578> 700 20G<80 175 175 175> 950 20G
VStem: 80 95<85 720 85 720 85 720>
LayerCount: 2
Fore
SplineSet
325.173828125 640.5234375 m 1
 302.8984375 640.5234375 l 1
 273.038085938 670.392578125 l 1
 273.038085938 712.638671875 l 1
 302.903320312 742.5 l 1
 345.151367188 742.5 l 1
 375.01171875 712.634765625 l 1
 375.01171875 670.388671875 l 1
 375.01171875 640.525390625 l 1
 354.229492188 550.118164062 l 1
 294.05859375 498.078125 l 1
 267 534.469726562 l 1
 309.483398438 568.745117188 l 1
 325.173828125 640.5234375 l 1
578 0 m 1
 80 0 l 1
 80 720 l 1
 175 720 l 1
 175 85 l 1
 578 85 l 1
 578 0 l 1
EndSplineSet
EndChar

StartChar: lcaron
Encoding: 318 318 196
Width: 320
GlyphClass: 2
Flags: MW
HStem: 0 21G<65 155 65 65> 700 20G
VStem: 65 90<0 735> 220 100 271 49
LayerCount: 2
Fore
SplineSet
249.3046875 720.27734375 m 1xe0
 290.724609375 720.279296875 l 1
 320 691 l 1
 320 649.58203125 l 1
 320 620.3046875 l 1
 299.625 531.669921875 l 1
 241 481 l 1
 214.10546875 516.328125 l 1
 255.755859375 549.931640625 l 1
 271.138671875 620.302734375 l 1
 271.138671875 620.302734375 l 1
 249.30078125 620.302734375 l 1
 220.025390625 649.5859375 l 1
 220.025390625 691.00390625 l 1
 249.3046875 720.27734375 l 1xe0
155 0 m 1xe8
 65 0 l 1
 65 735 l 1
 155 735 l 1
 155 0 l 1xe8
EndSplineSet
EndChar

StartChar: Lslash
Encoding: 321 321 197
Width: 668
GlyphClass: 2
Flags: MW
HStem: 0 85<235 638 235 638> 700 20G<140 235 235 235>
VStem: 140 95<85 333 333 333 480 720>
LayerCount: 2
Fore
SplineSet
638 0 m 1
 140 0 l 1
 140 333 l 1
 58 282 l 1
 20 347 l 1
 140 421 l 1
 140 720 l 1
 235 720 l 1
 235 480 l 1
 322 535 l 1
 360 470 l 1
 235 392 l 1
 235 85 l 1
 638 85 l 1
 638 0 l 1
EndSplineSet
EndChar

StartChar: lslash
Encoding: 322 322 198
Width: 380
GlyphClass: 2
Flags: MW
HStem: 0 21G<147 237 147 147> 715 20G<147 237 237 237>
VStem: 147 90<0 337 337 337 482 735>
LayerCount: 2
Fore
SplineSet
237 0 m 1
 147 0 l 1
 147 337 l 1
 58 282 l 1
 20 347 l 1
 147 426 l 1
 147 735 l 1
 237 735 l 1
 237 482 l 1
 322 535 l 1
 360 470 l 1
 237 393 l 1
 237 0 l 1
EndSplineSet
EndChar

StartChar: Nacute
Encoding: 323 323 199
Width: 724
GlyphClass: 2
Flags: MW
HStem: 0 21G<80 171 80 80 547 547 547 644> 700 20G<80 177 177 177 553 644 644 644> 970 20G
VStem: 80 91<0 566> 553 91<154 720 0 720>
LayerCount: 2
Fore
SplineSet
394 927.5 m 1
 337 790 l 1
 387 762 l 1
 468 884 l 1
 394 927.5 l 1
171 0 m 1
 80 0 l 1
 80 720 l 1
 177 720 l 1
 553 154 l 1
 553 720 l 1
 644 720 l 1
 644 0 l 1
 547 0 l 1
 171 566 l 1
 171 0 l 1
EndSplineSet
EndChar

StartChar: nacute
Encoding: 324 324 200
Width: 555
GlyphClass: 2
Flags: MW
HStem: 0 21G<62.5225 62.5225 62.5225 152.522 402 402 402 492> 459 61 515 20G 770 20G
VStem: 65 90 400 90
LayerCount: 2
Fore
SplineSet
287.153320312 828.171875 m 1x00
 198.29296875 615 l 1
 248.29296875 587 l 1
 376.913085938 781.159179688 l 1
 287.153320312 828.171875 l 1x00
62.5224609375 0 m 1x80
 62.5224609375 520 l 1
 143.522460938 520 l 1
 143.522460938 445 l 1
 214.392578125 518.918945312 l 1
 311.592773438 540.350585938 l 1
 457.930664062 477.592773438 l 1
 492 319 l 1
 492 0 l 1
 402 0 l 1
 402 319 l 1
 377.583007812 423.791015625 l 1
 293.278320312 462.786132812 l 1
 191.549804688 416.61328125 l 1
 152.522460938 283 l 1
 152.522460938 0 l 1
 62.5224609375 0 l 1x80
EndSplineSet
EndChar

StartChar: Ncaron
Encoding: 327 327 201
Width: 724
GlyphClass: 2
Flags: MW
HStem: 0 21G<80 171 80 80 547 547 547 644> 700 20G<80 177 177 177 553 644 644 644> 950 20G
VStem: 80 91<0 566> 553 91<154 720 0 720>
LayerCount: 2
Fore
SplineSet
400 790.5 m 1
 516 945.5 l 1
 470.620117188 980 l 1
 362 849.5 l 1
 256 979 l 1
 210 944.5 l 1
 321 790.5 l 1
 362 790.5 l 1
 400 790.5 l 1
171 0 m 1
 80 0 l 1
 80 720 l 1
 177 720 l 1
 553 154 l 1
 553 720 l 1
 644 720 l 1
 644 0 l 1
 547 0 l 1
 171 566 l 1
 171 0 l 1
EndSplineSet
EndChar

StartChar: ncaron
Encoding: 328 328 202
Width: 555
GlyphClass: 2
Flags: MW
HStem: 0 21G<62.5225 62.5225 62.5225 152.522 402 402 402 492> 459 61 459 76 740 20G
VStem: 65 90 400 90
LayerCount: 2
Fore
SplineSet
237.602539062 600.5 m 1x00
 279.602539062 600.5 l 1
 417.602539062 842.659179688 l 1
 367.602539062 870.659179688 l 1
 260.624023438 709.168945312 l 1
 152.982421875 871.659179688 l 1
 102.982421875 843.659179688 l 1
 237.602539062 600.5 l 1x00
62.5224609375 0 m 1xa0
 62.5224609375 520 l 1
 143.522460938 520 l 1
 143.522460938 445 l 1
 214.392578125 518.918945312 l 1
 311.592773438 540.350585938 l 1
 457.930664062 477.592773438 l 1
 492 319 l 1
 492 0 l 1
 402 0 l 1
 402 319 l 1
 377.583007812 423.791015625 l 1
 293.278320312 462.786132812 l 1
 191.549804688 416.61328125 l 1
 152.522460938 283 l 1
 152.522460938 0 l 1
 62.5224609375 0 l 1xa0
EndSplineSet
EndChar

StartChar: Ohungarumlaut
Encoding: 336 336 203
Width: 785
GlyphClass: 2
Flags: MW
HStem: -15 80 655 80 970 20G
VStem: 50 100 635 100
LayerCount: 2
Fore
SplineSet
499 927.5 m 1
 442 790 l 1
 492 762 l 1
 573 884 l 1
 499 927.5 l 1
285 927.5 m 1
 228 790 l 1
 278 762 l 1
 359 884 l 1
 285 927.5 l 1
392.956054688 742.5 m 1
 651.184570312 630.415039062 l 1
 741.911132812 359.950195312 l 1
 651.184570312 89.5625 l 1
 392.956054688 -22.513671875 l 1
 133.885742188 89.5625 l 1
 43.1494140625 359.950195312 l 1
 133.916992188 630.415039062 l 1
 392.956054688 742.5 l 1
392.956054688 59.1328125 m 1
 573.322265625 145.703125 l 1
 639.766601562 360.03515625 l 1
 573.322265625 574.3671875 l 1
 392.956054688 660.9375 l 1
 211.588867188 574.3671875 l 1
 145.038085938 360.03515625 l 1
 207.793945312 145.703125 l 1
 392.956054688 59.1328125 l 1
EndSplineSet
EndChar

StartChar: ohungarumlaut
Encoding: 337 337 204
Width: 556
GlyphClass: 2
Flags: MW
HStem: -15 75 460 75 603 187
VStem: 35 90 431 90
LayerCount: 2
Fore
SplineSet
277.971679688 540.5 m 1
 457.07421875 466.047851562 l 1
 525.889648438 260.008789062 l 1
 457.010742188 54.00390625 l 1
 277.971679688 -20.482421875 l 1
 98.9765625 53.9697265625 l 1
 30.1396484375 260.008789062 l 1
 98.9443359375 466.047851562 l 1
 277.971679688 540.5 l 1
277.971679688 55.9765625 m 1
 386.282226562 103.637695312 l 1
 434.12109375 259.923828125 l 1
 386.282226562 416.251953125 l 1
 277.971679688 463.956054688 l 1
 169.780273438 416.251953125 l 1
 121.9921875 259.923828125 l 1
 169.747070312 103.637695312 l 1
 277.971679688 55.9765625 l 1
408.209960938 829.103515625 m 1
 319.349609375 615.931640625 l 1
 369.349609375 587.931640625 l 1
 497.969726562 782.090820312 l 1
 408.209960938 829.103515625 l 1
223.209960938 829.103515625 m 1
 134.349609375 615.931640625 l 1
 184.349609375 587.931640625 l 1
 312.969726562 782.090820312 l 1
 223.209960938 829.103515625 l 1
EndSplineSet
EndChar

StartChar: OE
Encoding: 338 338 205
Width: 1031
GlyphClass: 2
Flags: MW
HStem: 0 85 325 85 635 85
VStem: 50 98 484 95
LayerCount: 2
Fore
SplineSet
135.028320312 96.6337890625 m 1
 50 362.043945312 l 1
 140.53125 628.005859375 l 1
 405.037109375 720 l 1
 951.017578125 720 l 1
 951.017578125 634.951171875 l 1
 579.053710938 634.951171875 l 1
 579.053710938 409.98828125 l 1
 900.98828125 409.98828125 l 1
 900.98828125 324.939453125 l 1
 579.053710938 324.939453125 l 1
 579.053710938 84.96875 l 1
 961.0234375 84.96875 l 1
 961.0234375 -0.080078125 l 1
 394.03125 -0.080078125 l 1
 394.03125 -0.0380859375 l 1
 135.028320312 96.6337890625 l 1
484.083007812 634.951171875 m 1
 407.038085938 634.951171875 l 1
 218.3046875 575.466796875 l 1
 148.139648438 362.961914062 l 1
 210.123046875 153.333007812 l 1
 404.120117188 83.9677734375 l 1
 484.083007812 83.9677734375 l 1
 484.083007812 634.951171875 l 1
EndSplineSet
EndChar

StartChar: oe
Encoding: 339 339 206
Width: 940
GlyphClass: 2
Flags: MW
HStem: -15 75 237 72 460 75
VStem: 35 90 431 90 809 96
LayerCount: 2
Fore
SplineSet
390.759765625 511.294921875 m 1
 475.107421875 417.094726562 l 1
 557.178710938 511.329101562 l 1
 672.9296875 540.500976562 l 1
 853.372070312 463.115234375 l 1
 913 274 l 1
 905.508789062 236.536132812 l 1
 521.879882812 236.536132812 l 1
 574.270507812 98.451171875 l 1
 677.944335938 55.9775390625 l 1
 765.256835938 85.310546875 l 1
 819.720703125 174.28125 l 1
 891.259765625 132.500976562 l 1
 821.442382812 23.3095703125 l 1
 672.92578125 -20.56640625 l 1
 557.111328125 8.6396484375 l 1
 475.102539062 102.838867188 l 1
 390.627929688 8.60546875 l 1
 274.131835938 -20.56640625 l 1
 95.1357421875 53.884765625 l 1
 26.2998046875 259.924804688 l 1
 95.16796875 466.006835938 l 1
 274.131835938 540.500976562 l 1
 390.759765625 511.294921875 l 1
274.135742188 55.9775390625 m 1
 382.372070312 103.638671875 l 1
 430.201171875 259.924804688 l 1
 382.372070312 416.252929688 l 1
 274.135742188 463.95703125 l 1
 165.901367188 416.252929688 l 1
 118.072265625 259.924804688 l 1
 165.869140625 103.638671875 l 1
 274.135742188 55.9775390625 l 1
525.116210938 310.018554688 m 1
 815.897460938 310.018554688 l 1
 775.04296875 420.67578125 l 1
 673.015625 464.041015625 l 1
 581.493164062 427.564453125 l 1
 525.116210938 310.018554688 l 1
EndSplineSet
EndChar

StartChar: Racute
Encoding: 340 340 207
Width: 683
GlyphClass: 2
Flags: MW
HStem: 0 21G<80 80 80 175> 290 85 635 85 970 20G
VStem: 80 95<0 290 0 375.353 375.353 641> 499 98
LayerCount: 2
Fore
SplineSet
301 956.5 m 1
 244 819 l 1
 294 791 l 1
 375 913 l 1
 301 956.5 l 1
175 375.352539062 m 1
 343.3125 375.352539062 l 1
 472.650390625 408.896484375 l 1
 515.622070312 508.96484375 l 1
 464.76171875 613.049804688 l 1
 341 641 l 1
 175 641 l 1
 175 375.352539062 l 1
80 0 m 1
 80 720 l 1
 334 720 l 1
 529.75 682.685546875 l 1
 615.553710938 511.94140625 l 1
 546.802734375 344.811523438 l 1
 479 327 l 1
 645 38 l 1
 557 -8 l 1
 383 302 l 1
 336 290 l 1
 175 290 l 1
 175 0 l 1
 80 0 l 1
EndSplineSet
EndChar

StartChar: racute
Encoding: 341 341 208
Width: 385
GlyphClass: 2
Flags: MW
HStem: 0 21G<155 155> 450 70 515 20G 770 20G
VStem: 65 90<5.08691 281 0 520>
LayerCount: 2
Fore
SplineSet
256.360351562 840.671875 m 1x00
 167.5 627.5 l 1
 217.5 599.5 l 1
 346.120117188 793.659179688 l 1
 256.360351562 840.671875 l 1x00
285.428710938 453.368164062 m 1xc0
 187.903320312 406.379882812 l 1
 155 281 l 1
 155 0 l 1
 65 5.0869140625 l 1
 65 520 l 1
 146 520 l 1
 146 430 l 1
 205.986328125 513.727539062 l 1
 291.909179688 540.348632812 l 1
 380 507 l 1
 353 431 l 1
 285.428710938 453.368164062 l 1xc0
EndSplineSet
EndChar

StartChar: Rcaron
Encoding: 344 344 209
Width: 683
GlyphClass: 2
Flags: MW
HStem: 0 21G<80 80 80 175> 290 85 635 85 950 20G
VStem: 80 95<0 290 0 375.353 375.353 641> 499 98
LayerCount: 2
Fore
SplineSet
369 790.5 m 1
 485 945.5 l 1
 439.620117188 980 l 1
 331 849.5 l 1
 225 979 l 1
 179 944.5 l 1
 290 790.5 l 1
 331 790.5 l 1
 369 790.5 l 1
175 375.352539062 m 1
 343.3125 375.352539062 l 1
 472.650390625 408.896484375 l 1
 515.622070312 508.96484375 l 1
 464.76171875 613.049804688 l 1
 341 641 l 1
 175 641 l 1
 175 375.352539062 l 1
80 0 m 1
 80 720 l 1
 334 720 l 1
 529.75 682.685546875 l 1
 615.553710938 511.94140625 l 1
 546.802734375 344.811523438 l 1
 479 327 l 1
 645 38 l 1
 557 -8 l 1
 383 302 l 1
 336 290 l 1
 175 290 l 1
 175 0 l 1
 80 0 l 1
EndSplineSet
EndChar

StartChar: rcaron
Encoding: 345 345 210
Width: 385
GlyphClass: 2
Flags: MW
HStem: 0 21G<155 155> 450 70 450 85 740 20G
VStem: 65 90<5.08691 281 0 520>
LayerCount: 2
Fore
SplineSet
185.810546875 600.5 m 1x00
 227.810546875 600.5 l 1
 365.810546875 842.659179688 l 1
 315.810546875 870.659179688 l 1
 208.831054688 709.168945312 l 1
 101.190429688 871.659179688 l 1
 51.1904296875 843.659179688 l 1
 185.810546875 600.5 l 1x00
285.428710938 453.368164062 m 1xc0
 187.903320312 406.379882812 l 1
 155 281 l 1
 155 0 l 1
 65 5.0869140625 l 1
 65 520 l 1
 146 520 l 1
 146 430 l 1
 205.986328125 513.727539062 l 1
 291.909179688 540.348632812 l 1
 380 507 l 1
 353 431 l 1
 285.428710938 453.368164062 l 1xc0
EndSplineSet
EndChar

StartChar: Sacute
Encoding: 346 346 211
Width: 665
GlyphClass: 2
Flags: MW
HStem: -15 80 510 225 655 80 970 20G
VStem: 50 94 77 92 513 102
LayerCount: 2
Fore
SplineSet
330 968.5 m 1x92
 273 831 l 1
 323 803 l 1
 404 925 l 1
 330 968.5 l 1x92
139.908203125 235.608398438 m 1xaa
 202.823242188 103.391601562 l 1
 345.982421875 59.1318359375 l 1
 470.9609375 95.4814453125 l 1
 516.334960938 190.702148438 l 1
 495.990234375 255.067382812 l 1
 432.200195312 299.87109375 l 1
 222.576171875 359.014648438 l 1
 97.8408203125 436.791015625 l 1
 71.7841796875 534.469726562 l 1
 151.463867188 690.8828125 l 1
 323.698242188 742.499023438 l 1
 518.237304688 687.18359375 l 1
 584.828125 542.579101562 l 1
 500.345703125 509.9765625 l 1
 451.623046875 620.666992188 l 1
 327.952148438 660.9375 l 1
 218.228515625 632.879882812 l 1
 165.848632812 540.592773438 l 1
 182.791992188 488.73046875 l 1
 233.49609375 454.141601562 l 1
 440.130859375 392.608398438 l 1
 570.595703125 324.82421875 l 1
 620.689453125 195.805664062 l 1
 534.099609375 30.4619140625 l 1
 350.234375 -22.4296875 l 1
 132.232421875 40.1572265625 l 1
 56.46875 199.859375 l 1
 139.908203125 235.608398438 l 1xaa
EndSplineSet
EndChar

StartChar: sacute
Encoding: 347 347 212
Width: 493
GlyphClass: 2
Flags: MW
HStem: -15 75 460 75 770 20G
VStem: 40 86 368 90
LayerCount: 2
Fore
SplineSet
279.56640625 840.673828125 m 1
 190.706054688 627.501953125 l 1
 240.706054688 599.501953125 l 1
 369.326171875 793.661132812 l 1
 279.56640625 840.673828125 l 1
119.426757812 161.098632812 m 1
 155.391601562 87.53125 l 1
 250.997070312 56.0634765625 l 1
 330.146484375 72.12890625 l 1
 370.321289062 132.522460938 l 1
 354.36328125 180.668945312 l 1
 294 211 l 1
 165.859375 244.896484375 l 1
 75.626953125 287.94140625 l 1
 35.6533203125 383.416992188 l 1
 97.2607421875 503.674804688 l 1
 240.706054688 540.501953125 l 1
 385.502929688 498.061523438 l 1
 429.541015625 410.961914062 l 1
 353.822265625 375.251953125 l 1
 318.791992188 441.419921875 l 1
 237.283203125 463.650390625 l 1
 152.447265625 444.821289062 l 1
 123.508789062 393.537109375 l 1
 145.602539062 352 l 1
 213 325 l 1
 334.2265625 292.227539062 l 1
 421.828125 247.21875 l 1
 462.258789062 140.516601562 l 1
 394.931640625 15.9541015625 l 1
 247.936523438 -20.6513671875 l 1
 93.8798828125 23.3193359375 l 1
 42.9609375 125.361328125 l 1
 119.426757812 161.098632812 l 1
EndSplineSet
EndChar

StartChar: Scaron
Encoding: 352 352 213
Width: 665
GlyphClass: 2
Flags: MW
HStem: -15 80 510 225 655 80 950 20G
VStem: 50 94 77 92 513 102
LayerCount: 2
Fore
SplineSet
369 790.5 m 1x92
 485 945.5 l 1
 439.620117188 980 l 1
 331 849.5 l 1
 225 979 l 1
 179 944.5 l 1
 290 790.5 l 1
 331 790.5 l 1
 369 790.5 l 1x92
139.908203125 235.608398438 m 1xaa
 202.823242188 103.391601562 l 1
 345.982421875 59.1318359375 l 1
 470.9609375 95.4814453125 l 1
 516.334960938 190.702148438 l 1
 495.990234375 255.067382812 l 1
 432.200195312 299.87109375 l 1
 222.576171875 359.014648438 l 1
 97.8408203125 436.791015625 l 1
 71.7841796875 534.469726562 l 1
 151.463867188 690.8828125 l 1
 323.698242188 742.499023438 l 1
 518.237304688 687.18359375 l 1
 584.828125 542.579101562 l 1
 500.345703125 509.9765625 l 1
 451.623046875 620.666992188 l 1
 327.952148438 660.9375 l 1
 218.228515625 632.879882812 l 1
 165.848632812 540.592773438 l 1
 182.791992188 488.73046875 l 1
 233.49609375 454.141601562 l 1
 440.130859375 392.608398438 l 1
 570.595703125 324.82421875 l 1
 620.689453125 195.805664062 l 1
 534.099609375 30.4619140625 l 1
 350.234375 -22.4296875 l 1
 132.232421875 40.1572265625 l 1
 56.46875 199.859375 l 1
 139.908203125 235.608398438 l 1xaa
EndSplineSet
EndChar

StartChar: scaron
Encoding: 353 353 214
Width: 493
GlyphClass: 2
Flags: MW
HStem: -15 75 460 75 740 20G
VStem: 40 86 368 90
LayerCount: 2
Fore
SplineSet
218.015625 600.5 m 1
 260.015625 600.5 l 1
 398.015625 842.659179688 l 1
 348.015625 870.659179688 l 1
 241.037109375 709.168945312 l 1
 133.395507812 871.659179688 l 1
 83.3955078125 843.659179688 l 1
 218.015625 600.5 l 1
119.426757812 161.098632812 m 1
 155.391601562 87.53125 l 1
 250.997070312 56.0634765625 l 1
 330.146484375 72.12890625 l 1
 370.321289062 132.522460938 l 1
 354.36328125 180.668945312 l 1
 294 211 l 1
 165.859375 244.896484375 l 1
 75.626953125 287.94140625 l 1
 35.6533203125 383.416992188 l 1
 97.2607421875 503.674804688 l 1
 240.706054688 540.501953125 l 1
 385.502929688 498.061523438 l 1
 429.541015625 410.961914062 l 1
 353.822265625 375.251953125 l 1
 318.791992188 441.419921875 l 1
 237.283203125 463.650390625 l 1
 152.447265625 444.821289062 l 1
 123.508789062 393.537109375 l 1
 145.602539062 352 l 1
 213 325 l 1
 334.2265625 292.227539062 l 1
 421.828125 247.21875 l 1
 462.258789062 140.516601562 l 1
 394.931640625 15.9541015625 l 1
 247.936523438 -20.6513671875 l 1
 93.8798828125 23.3193359375 l 1
 42.9609375 125.361328125 l 1
 119.426757812 161.098632812 l 1
EndSplineSet
EndChar

StartChar: Tcommaaccent
Encoding: 354 354 215
Width: 619
GlyphClass: 2
Flags: MW
HStem: -342 21G -100 100 635 85<20 262 20 599 357 357 357 599>
VStem: 262 95<0 635> 311 46
LayerCount: 2
Fore
SplineSet
288.891601562 -100.134765625 m 1xe0
 331.139648438 -100.134765625 l 1
 361 -130 l 1
 361 -202.109375 l 1
 340.217773438 -292.516601562 l 1
 280 -345 l 1
 252.98828125 -308.165039062 l 1
 295.471679688 -273.889648438 l 1
 311.162109375 -202.111328125 l 1
 288.88671875 -202.111328125 l 1
 259.026367188 -172.2421875 l 1
 259.026367188 -129.99609375 l 1
 288.891601562 -100.134765625 l 1xe0
357 0 m 1xf0
 262 0 l 1
 262 635 l 1
 20 635 l 1
 20 720 l 1
 599 720 l 1
 599 635 l 1
 357 635 l 1
 357 0 l 1xf0
EndSplineSet
EndChar

StartChar: tcommaaccent
Encoding: 355 355 216
Width: 322
GlyphClass: 2
Flags: MW
HStem: -342 21G -100 90 -10 80 451 69<20 94 20 94 184 273> 680 20G<94 184 184 184>
VStem: 2.97363 100 53.9736 49
LayerCount: 2
Fore
SplineSet
217.001953125 -16.5859375 m 1x98
 114.528320312 26.4404296875 l 1
 94 152 l 1
 94 451 l 1
 20 451 l 1
 20 520 l 1
 94 520 l 1
 94 700 l 1
 184 700 l 1
 184 520 l 1
 273 520 l 1
 273 451 l 1
 184 451 l 1
 184 152 l 1
 191.75390625 86.5361328125 l 1
 235.118164062 64.5673828125 l 1
 275.420898438 70.60546875 l 1
 285.801757812 -6.9580078125 l 1
 217.001953125 -16.5859375 l 1x98
158.865234375 -100.134765625 m 1
 201.11328125 -100.134765625 l 1
 230.973632812 -130 l 1
 230.973632812 -202.109375 l 1
 210.19140625 -292.516601562 l 1
 150 -345 l 1
 122.961914062 -308.165039062 l 1
 165.4453125 -273.889648438 l 1
 181.135742188 -202.111328125 l 1
 158.860351562 -202.111328125 l 1
 129 -172.2421875 l 1
 129 -129.99609375 l 1
 158.865234375 -100.134765625 l 1
EndSplineSet
EndChar

StartChar: Tcaron
Encoding: 356 356 217
Width: 619
GlyphClass: 2
Flags: MW
HStem: 0 21G<262 357 262 262> 635 85<20 262 20 599 357 357 357 599> 950 20G
VStem: 262 95<0 635>
LayerCount: 2
Fore
SplineSet
348 790.5 m 1
 464 945.5 l 1
 418.620117188 980 l 1
 310 849.5 l 1
 204 979 l 1
 158 944.5 l 1
 269 790.5 l 1
 310 790.5 l 1
 348 790.5 l 1
357 0 m 1
 262 0 l 1
 262 635 l 1
 20 635 l 1
 20 720 l 1
 599 720 l 1
 599 635 l 1
 357 635 l 1
 357 0 l 1
EndSplineSet
EndChar

StartChar: tcaron
Encoding: 357 357 218
Width: 322
GlyphClass: 2
Flags: MW
HStem: -10 80 451 69<20 94 20 94 184 273> 700 20G
VStem: 94 90<152 451 152 451 520 700> 320 100 371 49
LayerCount: 2
Fore
SplineSet
371.173828125 618.0234375 m 1x00
 348.8984375 618.0234375 l 1
 319.038085938 647.892578125 l 1
 319.038085938 690.138671875 l 1
 348.903320312 720 l 1
 391.151367188 720 l 1
 421.01171875 690.134765625 l 1
 421.01171875 647.888671875 l 1
 421.01171875 618.025390625 l 1
 400.229492188 527.618164062 l 1
 340.05859375 475.578125 l 1
 313 511.969726562 l 1
 355.483398438 546.245117188 l 1
 371.173828125 618.0234375 l 1x00
285.784179688 -6.974609375 m 1xc0
 217.001953125 -16.5859375 l 1
 114.528320312 26.4404296875 l 1
 94 152 l 1
 94 451 l 1
 20 451 l 1
 20 520 l 1
 94 520 l 1
 94 700 l 1
 184 700 l 1
 184 520 l 1
 273 520 l 1
 273 451 l 1
 184 451 l 1
 184 152 l 1
 191.75390625 86.5361328125 l 1
 235.118164062 64.5673828125 l 1
 275.420898438 70.60546875 l 1
 285.801757812 -6.9580078125 l 1
 285.784179688 -6.974609375 l 1xc0
EndSplineSet
EndChar

StartChar: Uring
Encoding: 366 366 219
Width: 723
GlyphClass: 2
Flags: MW
HStem: -15 85 700 20G 775 62 837 135 972 63
VStem: 80 95 293 135 548 95
LayerCount: 2
Fore
SplineSet
361.122070312 1038.08203125 m 1x00
 454.909179688 998.92578125 l 1
 493.713867188 905.491210938 l 1
 454.973632812 811.673828125 l 1
 361.122070312 772.900390625 l 1
 267.537109375 811.673828125 l 1
 228.361328125 905.491210938 l 1
 267.665039062 998.92578125 l 1
 361.122070312 1038.08203125 l 1x00
361.122070312 836.090820312 m 1
 409.749023438 856.239257812 l 1
 429.416992188 905.40625 l 1
 409.749023438 953.755859375 l 1
 361.122070312 973.78515625 l 1
 312.303710938 953.755859375 l 1
 291.807617188 905.40625 l 1
 312.303710938 856.239257812 l 1
 361.122070312 836.090820312 l 1
642.704101562 720.349609375 m 1xc5
 642.704101562 301 l 1
 580.728515625 68.5537109375 l 1
 362.08984375 -22.35546875 l 1
 143.630859375 68.5537109375 l 1
 79.369140625 302.888671875 l 1
 79.369140625 720.349609375 l 1
 175.325195312 720.349609375 l 1
 175.325195312 295.897460938 l 1
 216.34765625 127.322265625 l 1
 363.110351562 64.3095703125 l 1
 508.405273438 127.288085938 l 1
 548.833007812 297.78515625 l 1
 548.662109375 720.349609375 l 1
 642.704101562 720.349609375 l 1xc5
EndSplineSet
EndChar

StartChar: uring
Encoding: 367 367 220
Width: 555
GlyphClass: 2
Flags: MW
HStem: -15 76 0 61 500 20G<62 152 152 152 401.477 491.477 491.477 491.477> 605 62 667 135 802 63
VStem: 65 90 211 135 400 90
LayerCount: 2
Fore
SplineSet
278.823242188 867.08203125 m 1x00
 372.610351562 827.92578125 l 1
 411.4140625 734.491210938 l 1
 372.674804688 640.673828125 l 1
 278.823242188 601.900390625 l 1
 185.23828125 640.673828125 l 1
 146.0625 734.491210938 l 1
 185.366210938 827.92578125 l 1
 278.823242188 867.08203125 l 1x00
278.823242188 665.090820312 m 1
 327.450195312 685.239257812 l 1
 347.1171875 734.40625 l 1
 327.450195312 782.755859375 l 1
 278.823242188 802.78515625 l 1
 230.004882812 782.755859375 l 1
 209.5078125 734.40625 l 1
 230.004882812 685.239257812 l 1
 278.823242188 665.090820312 l 1
491.4765625 520 m 1x20
 491.4765625 0 l 1
 410.4765625 0 l 1
 410.4765625 75 l 1
 339.522460938 3.7451171875 l 1
 242.323242188 -20.3232421875 l 1
 95.9541015625 42.3916015625 l 1
 62 202 l 1
 62 520 l 1
 152 520 l 1
 152 202.673828125 l 1
 176.458984375 96.1845703125 l 1
 260.806640625 57.15625 l 1
 362.4921875 103.329101562 l 1
 401.4765625 238.088867188 l 1
 401.4765625 520 l 1
 491.4765625 520 l 1x20
EndSplineSet
EndChar

StartChar: Uhungarumlaut
Encoding: 368 368 221
Width: 723
GlyphClass: 2
Flags: MW
HStem: -15 85 700 20G 970 20G
VStem: 80 95 548 95
LayerCount: 2
Fore
SplineSet
499 927.5 m 1
 442 790 l 1
 492 762 l 1
 573 884 l 1
 499 927.5 l 1
285 927.5 m 1
 228 790 l 1
 278 762 l 1
 359 884 l 1
 285 927.5 l 1
548.663085938 720.349609375 m 1
 642.704101562 720.349609375 l 1
 642.704101562 301 l 1
 580.728515625 68.5537109375 l 1
 362.08984375 -22.35546875 l 1
 143.630859375 68.5537109375 l 1
 79.369140625 302.888671875 l 1
 79.369140625 720.349609375 l 1
 175.325195312 720.349609375 l 1
 175.325195312 295.897460938 l 1
 216.34765625 127.322265625 l 1
 363.110351562 64.3095703125 l 1
 508.405273438 127.288085938 l 1
 548.833007812 297.78515625 l 1
 548.662109375 720.349609375 l 1
 548.663085938 720.349609375 l 1
EndSplineSet
EndChar

StartChar: uhungarumlaut
Encoding: 369 369 222
Width: 555
GlyphClass: 2
Flags: MW
HStem: -15 76 0 61 500 20G<62 152 152 152 401.477 491.477 491.477 491.477> 603 187
VStem: 65 90 400 90
LayerCount: 2
Fore
SplineSet
491.4765625 520 m 1x38
 491.4765625 0 l 1
 410.4765625 0 l 1
 410.4765625 75 l 1
 339.522460938 3.7451171875 l 1
 242.323242188 -20.3232421875 l 1
 95.9541015625 42.3916015625 l 1
 62 202 l 1
 62 520 l 1
 152 520 l 1
 152 202.673828125 l 1
 176.458984375 96.1845703125 l 1
 260.806640625 57.15625 l 1
 362.4921875 103.329101562 l 1
 401.4765625 238.088867188 l 1
 401.4765625 520 l 1
 491.4765625 520 l 1x38
408.209960938 829.103515625 m 1
 319.349609375 615.931640625 l 1
 369.349609375 587.931640625 l 1
 497.969726562 782.090820312 l 1
 408.209960938 829.103515625 l 1
223.209960938 829.103515625 m 1
 134.349609375 615.931640625 l 1
 184.349609375 587.931640625 l 1
 312.969726562 782.090820312 l 1
 223.209960938 829.103515625 l 1
EndSplineSet
EndChar

StartChar: Ydieresis
Encoding: 376 376 223
Width: 675
GlyphClass: 2
Flags: MW
HStem: 0 21G<290 385 290 290> 700 20G 819 101
VStem: 186 90 290 95<0 303> 396 90
LayerCount: 2
Fore
SplineSet
453.390625 808.100585938 m 1
 407.16015625 808.1015625 l 1
 374.307617188 843.846679688 l 1
 374.330078125 894.650390625 l 1
 406.609375 931.000976562 l 1
 452.83984375 931 l 1
 486 894.55078125 l 1
 485.919921875 843.701171875 l 1
 453.390625 808.100585938 l 1
252.80078125 808.100585938 m 1
 206.5703125 808.1015625 l 1
 173.717773438 843.846679688 l 1
 173.740234375 894.650390625 l 1
 206.01953125 931.000976562 l 1
 252.25 931 l 1
 285.41015625 894.55078125 l 1
 285.330078125 843.701171875 l 1
 252.80078125 808.100585938 l 1
385 0 m 1
 290 0 l 1
 290 303 l 1
 37 679 l 1
 119 728.090820312 l 1
 342 383 l 1
 561 728.090820312 l 1
 638 679 l 1
 385 303 l 1
 385 0 l 1
EndSplineSet
EndChar

StartChar: Zacute
Encoding: 377 377 224
Width: 672
GlyphClass: 2
Flags: MW
HStem: 0 85<169 612 60 60> 635 85<80 488 80 602 80 602> 970 20G
LayerCount: 2
Fore
SplineSet
348 927.5 m 1
 291 790 l 1
 341 762 l 1
 422 884 l 1
 348 927.5 l 1
612 0 m 1
 60 0 l 1
 60 85 l 1
 488 635 l 1
 80 635 l 1
 80 720 l 1
 602 720 l 1
 602 635 l 1
 169 85 l 1
 612 85 l 1
 612 0 l 1
EndSplineSet
EndChar

StartChar: zacute
Encoding: 378 378 225
Width: 499
GlyphClass: 2
Flags: MW
HStem: 0 75<141 459 40 40> 445 75<59 347 59 453 59 453> 770 20G
LayerCount: 2
Fore
SplineSet
294.860351562 840.671875 m 1
 206 627.5 l 1
 256 599.5 l 1
 384.620117188 793.659179688 l 1
 294.860351562 840.671875 l 1
459 0 m 1
 40 0 l 1
 40 75 l 1
 347 445 l 1
 59 445 l 1
 59 520 l 1
 453 520 l 1
 453 445 l 1
 141 75 l 1
 459 75 l 1
 459 0 l 1
EndSplineSet
EndChar

StartChar: Zdotaccent
Encoding: 379 379 226
Width: 672
GlyphClass: 2
Flags: MW
HStem: 0 85<169 612 60 60> 635 85<80 488 80 602 80 602> 800 100
VStem: 293 91
LayerCount: 2
Fore
SplineSet
364.236328125 802.5 m 1
 318.005859375 802.500976562 l 1
 285.153320312 838.24609375 l 1
 285.17578125 889.049804688 l 1
 317.455078125 925.400390625 l 1
 363.685546875 925.399414062 l 1
 396.845703125 888.950195312 l 1
 396.765625 838.100585938 l 1
 364.236328125 802.5 l 1
612 0 m 1
 60 0 l 1
 60 85 l 1
 488 635 l 1
 80 635 l 1
 80 720 l 1
 602 720 l 1
 602 635 l 1
 169 85 l 1
 612 85 l 1
 612 0 l 1
EndSplineSet
EndChar

StartChar: zdotaccent
Encoding: 380 380 227
Width: 499
GlyphClass: 2
Flags: MW
HStem: 0 75<141 459 40 40> 445 75<59 347 59 453 59 453> 619 101
VStem: 204 90
LayerCount: 2
Fore
SplineSet
279.236328125 600.5 m 1
 233.005859375 600.500976562 l 1
 200.153320312 636.24609375 l 1
 200.17578125 687.049804688 l 1
 232.455078125 723.400390625 l 1
 278.685546875 723.399414062 l 1
 311.845703125 686.950195312 l 1
 311.765625 636.100585938 l 1
 279.236328125 600.5 l 1
459 0 m 1
 40 0 l 1
 40 75 l 1
 347 445 l 1
 59 445 l 1
 59 520 l 1
 453 520 l 1
 453 445 l 1
 141 75 l 1
 459 75 l 1
 459 0 l 1
EndSplineSet
EndChar

StartChar: Zcaron
Encoding: 381 381 228
Width: 672
GlyphClass: 2
Flags: MW
HStem: 0 85<169 612 60 60> 635 85<80 488 80 602 80 602> 950 20G
LayerCount: 2
Fore
SplineSet
369 790.5 m 1
 485 945.5 l 1
 439.620117188 980 l 1
 331 849.5 l 1
 225 979 l 1
 179 944.5 l 1
 290 790.5 l 1
 331 790.5 l 1
 369 790.5 l 1
612 0 m 1
 60 0 l 1
 60 85 l 1
 488 635 l 1
 80 635 l 1
 80 720 l 1
 602 720 l 1
 602 635 l 1
 169 85 l 1
 612 85 l 1
 612 0 l 1
EndSplineSet
EndChar

StartChar: zcaron
Encoding: 382 382 229
Width: 499
GlyphClass: 2
Flags: MW
HStem: 0 75<141 459 40 40> 445 75<59 347 59 453 59 453> 740 20G
LayerCount: 2
Fore
SplineSet
233.310546875 600.5 m 1
 275.310546875 600.5 l 1
 413.310546875 842.659179688 l 1
 363.310546875 870.659179688 l 1
 256.331054688 709.168945312 l 1
 148.690429688 871.659179688 l 1
 98.6904296875 843.659179688 l 1
 233.310546875 600.5 l 1
459 0 m 1
 40 0 l 1
 40 75 l 1
 347 445 l 1
 59 445 l 1
 59 520 l 1
 453 520 l 1
 453 445 l 1
 141 75 l 1
 459 75 l 1
 459 0 l 1
EndSplineSet
EndChar

StartChar: Scommaaccent
Encoding: 536 536 230
Width: 665
GlyphClass: 2
Flags: MW
HStem: -342 21G -100 85 -15 80 655 80
VStem: 50 94 77 92 300 100 351 49 513 102
LayerCount: 2
Fore
SplineSet
354.40234375 -184.40625 m 1x00
 332.126953125 -184.40625 l 1
 302.266601562 -154.537109375 l 1
 302.266601562 -112.291015625 l 1
 332.131835938 -82.4296875 l 1
 374.379882812 -82.4296875 l 1
 404.240234375 -112.294921875 l 1
 404.240234375 -154.541015625 l 1
 404.240234375 -184.404296875 l 1
 383.458007812 -274.811523438 l 1
 323.287109375 -326.8515625 l 1
 296.228515625 -290.459960938 l 1
 338.711914062 -256.184570312 l 1
 354.40234375 -184.40625 l 1x00
139.908203125 235.608398438 m 1x3880
 202.823242188 103.391601562 l 1
 345.982421875 59.1318359375 l 1
 470.9609375 95.4814453125 l 1
 516.334960938 190.702148438 l 1
 495.990234375 255.067382812 l 1
 432.200195312 299.87109375 l 1
 222.576171875 359.014648438 l 1
 97.8408203125 436.791015625 l 1
 71.7841796875 534.469726562 l 1
 151.463867188 690.8828125 l 1
 323.698242188 742.499023438 l 1
 518.237304688 687.18359375 l 1
 584.828125 542.579101562 l 1
 500.345703125 509.9765625 l 1
 451.623046875 620.666992188 l 1
 327.952148438 660.9375 l 1
 218.228515625 632.879882812 l 1
 165.848632812 540.592773438 l 1
 182.791992188 488.73046875 l 1
 233.49609375 454.141601562 l 1
 440.130859375 392.608398438 l 1
 570.595703125 324.82421875 l 1
 620.689453125 195.805664062 l 1
 534.099609375 30.4619140625 l 1
 350.234375 -22.4296875 l 1
 132.232421875 40.1572265625 l 1
 56.46875 199.859375 l 1
 139.908203125 235.608398438 l 1x3880
EndSplineSet
EndChar

StartChar: scommaaccent
Encoding: 537 537 231
Width: 493
GlyphClass: 2
Flags: MW
HStem: -342 21G -100 85 460 75
VStem: 40 86 202 100 253 49 368 90
LayerCount: 2
Fore
SplineSet
252.104492188 -182.627929688 m 1x00
 229.829101562 -182.627929688 l 1
 199.96875 -152.758789062 l 1
 199.96875 -110.512695312 l 1
 229.833984375 -80.6513671875 l 1
 272.08203125 -80.6513671875 l 1
 301.942382812 -110.516601562 l 1
 301.942382812 -152.762695312 l 1
 301.942382812 -182.625976562 l 1
 281.16015625 -273.033203125 l 1
 220.989257812 -325.073242188 l 1
 193.930664062 -288.681640625 l 1
 236.4140625 -254.40625 l 1
 252.104492188 -182.627929688 l 1x00
119.426757812 161.098632812 m 1x32
 155.391601562 87.53125 l 1
 250.997070312 56.0634765625 l 1
 330.146484375 72.12890625 l 1
 370.321289062 132.522460938 l 1
 354.36328125 180.668945312 l 1
 294 211 l 1
 165.859375 244.896484375 l 1
 75.626953125 287.94140625 l 1
 35.6533203125 383.416992188 l 1
 97.2607421875 503.674804688 l 1
 240.706054688 540.501953125 l 1
 385.502929688 498.061523438 l 1
 429.541015625 410.961914062 l 1
 353.822265625 375.251953125 l 1
 318.791992188 441.419921875 l 1
 237.283203125 463.650390625 l 1
 152.447265625 444.821289062 l 1
 123.508789062 393.537109375 l 1
 145.602539062 352 l 1
 213 325 l 1
 334.2265625 292.227539062 l 1
 421.828125 247.21875 l 1
 462.258789062 140.516601562 l 1
 394.931640625 15.9541015625 l 1
 247.936523438 -20.6513671875 l 1
 93.8798828125 23.3193359375 l 1
 42.9609375 125.361328125 l 1
 119.426757812 161.098632812 l 1x32
EndSplineSet
EndChar

StartChar: afii10023
Encoding: 1025 1025 232
Width: 657
GlyphClass: 2
Flags: MW
HStem: 0 85<175 587 175 587> 325 85<175 527 175 527> 635 85<175 577 175 175> 819 101
VStem: 80 95<85 325 410 635> 185 90 385 90
LayerCount: 2
Fore
SplineSet
453.390625 808.100585938 m 1
 407.16015625 808.1015625 l 1
 374.307617188 843.846679688 l 1
 374.330078125 894.650390625 l 1
 406.609375 931.000976562 l 1
 452.83984375 931 l 1
 486 894.55078125 l 1
 485.919921875 843.701171875 l 1
 453.390625 808.100585938 l 1
252.80078125 808.100585938 m 1
 206.5703125 808.1015625 l 1
 173.717773438 843.846679688 l 1
 173.740234375 894.650390625 l 1
 206.01953125 931.000976562 l 1
 252.25 931 l 1
 285.41015625 894.55078125 l 1
 285.330078125 843.701171875 l 1
 252.80078125 808.100585938 l 1
587 0 m 1
 80 0 l 1
 80 720 l 1
 577 720 l 1
 577 635 l 1
 175 635 l 1
 175 410 l 1
 527 410 l 1
 527 325 l 1
 175 325 l 1
 175 85 l 1
 587 85 l 1
 587 0 l 1
EndSplineSet
EndChar

StartChar: afii10051
Encoding: 1026 1026 233
Width: 757
GlyphClass: 2
Flags: MW
HStem: -15 79 0 21G<262 357.222 262 262> 389 76 635 85
VStem: 262 95 602 90
LayerCount: 2
Fore
SplineSet
551.009765625 68.1552734375 m 1x7c
 593.227539062 94.0185546875 l 1
 603.178710938 210.654296875 l 1
 596.366210938 275.079101562 l 1
 578.440429688 353.22265625 l 1
 494.061523438 392.250976562 l 1
 393.885742188 348.247070312 l 1
 357.221679688 218.966796875 l 1
 357.221679688 0 l 1
 262 0 l 1
 262 635.03125 l 1
 20.111328125 635.03125 l 1
 20.111328125 720.080078125 l 1
 599.110351562 720.080078125 l 1
 599.110351562 635.03125 l 1
 357.221679688 635.03125 l 1
 357.221679688 379.05078125 l 1
 418.561523438 448.290039062 l 1
 512.602539062 469.900390625 l 1
 658.940429688 407.142578125 l 1
 695.1171875 245.473632812 l 1
 692.922851562 156.01953125 l 1
 665.56640625 32.5712890625 l 1
 550.282226562 -19.7255859375 l 1
 485.298828125 -4.919921875 l 1
 502.975585938 70.0400390625 l 1
 551.009765625 68.1552734375 l 1x7c
EndSplineSet
EndChar

StartChar: afii10052
Encoding: 1027 1027 234
Width: 553
GlyphClass: 2
Flags: MW
HStem: 0 21G<80 80 80 175> 635 85<175 533 175 175> 970 20G
VStem: 80 95<0 635 0 720 0 720>
LayerCount: 2
Fore
SplineSet
281 927.5 m 1
 355 884 l 1
 274 762 l 1
 224 790 l 1
 281 927.5 l 1
80 0 m 1
 80 720 l 1
 533 720 l 1
 533 635 l 1
 175 635 l 1
 175 0 l 1
 80 0 l 1
EndSplineSet
EndChar

StartChar: afii10053
Encoding: 1028 1028 235
Width: 734
GlyphClass: 2
Flags: MW
HStem: -15 80 325 85 655 80
VStem: 50 101
LayerCount: 2
Fore
SplineSet
459.037109375 324.897460938 m 1
 151.110351562 324.897460938 l 1
 211.544921875 134.23046875 l 1
 383.397460938 59.0126953125 l 1
 517.7109375 106.045898438 l 1
 591.426757812 230.38671875 l 1
 672 181 l 1
 587.35546875 42.5908203125 l 1
 383.397460938 -22.5478515625 l 1
 129.431640625 89.5205078125 l 1
 43.796875 359.916015625 l 1
 129.431640625 630.380859375 l 1
 383.397460938 742.465820312 l 1
 587.801757812 678.34765625 l 1
 674 536 l 1
 591.426757812 488.509765625 l 1
 524.50390625 612.978515625 l 1
 383.397460938 660.904296875 l 1
 219.69921875 590.279296875 l 1
 152.02734375 410.029296875 l 1
 459.037109375 410.029296875 l 1
 459.037109375 324.897460938 l 1
EndSplineSet
EndChar

StartChar: afii10054
Encoding: 1029 1029 236
Width: 665
GlyphClass: 2
Flags: MW
HStem: -15 80 510 225 655 80
VStem: 50 94 77 92 523 102
LayerCount: 2
Fore
SplineSet
139.908203125 235.608398438 m 1xb4
 202.823242188 103.391601562 l 1
 345.982421875 59.1318359375 l 1
 470.9609375 95.4814453125 l 1
 516.334960938 190.702148438 l 1
 495.990234375 255.067382812 l 1
 432.200195312 299.87109375 l 1
 222.576171875 359.014648438 l 1
 97.8408203125 436.791015625 l 1
 71.7841796875 534.469726562 l 1
 151.463867188 690.8828125 l 1
 323.698242188 742.499023438 l 1
 518.237304688 687.18359375 l 1
 584.828125 542.579101562 l 1
 500.345703125 509.9765625 l 1
 451.623046875 620.666992188 l 1
 327.952148438 660.9375 l 1
 218.228515625 632.879882812 l 1
 165.848632812 540.592773438 l 1
 182.791992188 488.73046875 l 1
 233.49609375 454.141601562 l 1
 440.130859375 392.608398438 l 1
 570.595703125 324.82421875 l 1
 620.689453125 195.805664062 l 1
 534.099609375 30.4619140625 l 1
 350.234375 -22.4296875 l 1
 132.232421875 40.1572265625 l 1
 56.46875 199.859375 l 1
 139.908203125 235.608398438 l 1xb4
EndSplineSet
EndChar

StartChar: afii10055
Encoding: 1030 1030 237
Width: 255
GlyphClass: 2
Flags: MW
HStem: 0 21G<80 175 80 80> 700 20G<80 175 175 175>
VStem: 80 95<0 720 0 720>
LayerCount: 2
Fore
SplineSet
80 720 m 1
 175 720 l 1
 175 0 l 1
 80 0 l 1
 80 720 l 1
EndSplineSet
EndChar

StartChar: afii10056
Encoding: 1031 1031 238
Width: 255
GlyphClass: 2
Flags: MW
HStem: 0 21G<80 175 80 80> 700 20G<80 175 175 175> 819 101
VStem: 8 90 80 95<0 720 0 720> 158 90
LayerCount: 2
Fore
SplineSet
236.390625 808.100585938 m 1xe0
 190.16015625 808.1015625 l 1
 157.307617188 843.846679688 l 1
 157.330078125 894.650390625 l 1
 189.609375 931.000976562 l 1
 235.83984375 931 l 1
 269 894.55078125 l 1
 268.919921875 843.701171875 l 1
 236.390625 808.100585938 l 1xe0
65.80078125 808.100585938 m 1
 19.5703125 808.1015625 l 1
 -13.2822265625 843.846679688 l 1
 -13.259765625 894.650390625 l 1
 19.01953125 931.000976562 l 1
 65.25 931 l 1
 98.41015625 894.55078125 l 1
 98.330078125 843.701171875 l 1
 65.80078125 808.100585938 l 1
80 720 m 1xe8
 175 720 l 1
 175 0 l 1
 80 0 l 1
 80 720 l 1xe8
EndSplineSet
EndChar

StartChar: afii10057
Encoding: 1032 1032 239
Width: 516
GlyphClass: 2
Flags: MW
HStem: -15 80 700 20G<341 436 436 436>
VStem: 21 86 341 95<223.903 720 219 720>
LayerCount: 2
Fore
SplineSet
102.4375 202.087890625 m 1
 130.322265625 102.78515625 l 1
 221.67578125 59.291015625 l 1
 318.046875 108.109375 l 1
 341 223.903320312 l 1
 341 720 l 1
 436 720 l 1
 436 219 l 1
 382.599609375 41.5078125 l 1
 221.67578125 -22.35546875 l 1
 66.908203125 34.7548828125 l 1
 18.662109375 178.58984375 l 1
 102.4375 202.087890625 l 1
EndSplineSet
EndChar

StartChar: afii10058
Encoding: 1033 1033 240
Width: 1072
GlyphClass: 2
Flags: MW
HStem: -15 100 0 85 345 85 635 85
VStem: 16 230 151 95 515 95 924 98
LayerCount: 2
Fore
SplineSet
19 0 m 1x73
 39 84 l 1
 65.4521484375 75.037109375 l 1
 119.75 105.365234375 l 1
 144.673828125 184.572265625 l 1
 151.111328125 290.80859375 l 1
 150.874023438 719.997070312 l 1
 609.887695312 719.997070312 l 1
 609.887695312 429.997070312 l 1
 752.885742188 429.997070312 l 1
 954.6953125 378.169921875 l 1
 1023.52148438 211.07421875 l 1
 937.685546875 40.3291015625 l 1
 745.048828125 0 l 1
 515 0 l 1
 515 635.03125 l 1
 245.928710938 635.03125 l 1
 247.137695312 294.694335938 l 1
 238.069335938 141.9453125 l 1
 191.770507812 27.4365234375 l 1
 87.9892578125 -16.900390625 l 1
 19 0 l 1x73
609.887695312 84.9658203125 m 1
 752.885742188 84.9658203125 l 1
 872.55859375 106.96484375 l 1
 923.418945312 214.049804688 l 1
 880.447265625 314.119140625 l 1
 754.970703125 344.948242188 l 1
 610.053710938 344.948242188 l 1
 609.887695312 84.9658203125 l 1
EndSplineSet
EndChar

StartChar: afii10059
Encoding: 1034 1034 241
Width: 1064
GlyphClass: 2
Flags: MW
HStem: 0 85 325 85 345 85 700 20G
VStem: 80 95 507 95 916 98
LayerCount: 2
Fore
SplineSet
601.828125 430.004882812 m 1x9e
 746.987304688 433.041015625 l 1
 948.015625 378.06640625 l 1
 1016.79882812 210.970703125 l 1
 930.99609375 40.2265625 l 1
 729.454101562 -4.287109375 l 1
 507.0234375 0 l 1
 507.0234375 325.01953125 l 1
 175 325.01953125 l 1
 175 0 l 1
 79.9453125 0 l 1
 79.9453125 719.99609375 l 1
 174.916992188 719.99609375 l 1
 174.916992188 409.985351562 l 1
 506.940429688 409.985351562 l 1
 506.940429688 719.99609375 l 1
 601.828125 719.99609375 l 1
 601.828125 430.004882812 l 1x9e
601.828125 84.9736328125 m 1
 747.06640625 83.3212890625 l 1
 865.921875 106.870117188 l 1
 916.782226562 213.956054688 l 1
 873.842773438 314.024414062 l 1
 739.66015625 347.567382812 l 1
 601.912109375 344.956054688 l 1
 601.828125 84.9736328125 l 1
EndSplineSet
EndChar

StartChar: afii10060
Encoding: 1035 1035 242
Width: 757
GlyphClass: 2
Flags: MW
HStem: 0 21G 389 76 635 85
VStem: 262 95 602 90
LayerCount: 2
Fore
SplineSet
261.973632812 635 m 1
 20.0009765625 635 l 1
 20.0009765625 720.048828125 l 1
 599 720.048828125 l 1
 599 635 l 1
 357.028320312 635 l 1
 357.028320312 379.01953125 l 1
 418.795898438 444.641601562 l 1
 512.76171875 466.260742188 l 1
 659.130859375 403.502929688 l 1
 691.970703125 245.092773438 l 1
 691.970703125 0.0517578125 l 1
 602.001953125 0.0517578125 l 1
 601.584960938 246.943359375 l 1
 578.721679688 349.666992188 l 1
 494.965820312 389.025390625 l 1
 394.14453125 344.692382812 l 1
 357.052734375 219.043945312 l 1
 357.052734375 0.0517578125 l 1
 261.998046875 0.0517578125 l 1
 261.973632812 635 l 1
EndSplineSet
EndChar

StartChar: afii10061
Encoding: 1036 1036 243
Width: 670
GlyphClass: 2
Flags: MW
HStem: 0 21G<80 175 80 80> 325 85<176 262 175 264> 700 20G<80 175 175 175 590 590> 970 20G
VStem: 80 95<0 325 0 720>
LayerCount: 2
Fore
SplineSet
310 927.5 m 1
 384 884 l 1
 303 762 l 1
 253 790 l 1
 310 927.5 l 1
176 410 m 1
 264 410 l 1
 333.831054688 460.53125 l 1
 476.345703125 695.766601562 l 1
 534 719 l 1
 590 720 l 1
 602.03515625 632.963867188 l 1
 540.274414062 625.125976562 l 1
 508.454101562 593.2578125 l 1
 403.844726562 412.6875 l 1
 342.333007812 368 l 1
 434 332 l 1
 604 39 l 1
 512 -8 l 1
 352 296 l 1
 262 325 l 1
 175 325 l 1
 175 0 l 1
 80 0 l 1
 80 720 l 1
 175 720 l 1
 176 410 l 1
EndSplineSet
EndChar

StartChar: uni040D
Encoding: 1037 1037 244
Width: 724
GlyphClass: 2
Flags: MW
HStem: 0 21G<80 185 80 80 547 547 547 642> 700 20G<80 175 175 175 537 642 642 642>
VStem: 80 95<145 720 145 720 145 720> 547 95<0 580 580 580>
LayerCount: 2
Fore
SplineSet
185 0 m 1
 80 0 l 1
 80 720 l 1
 175 720 l 1
 175 145 l 1
 537 720 l 1
 642 720 l 1
 642 0 l 1
 547 0 l 1
 547 580 l 1
 185 0 l 1
329 913.5 m 1
 386 776 l 1
 336 748 l 1
 255 870 l 1
 329 913.5 l 1
EndSplineSet
EndChar

StartChar: afii10062
Encoding: 1038 1038 245
Width: 675
GlyphClass: 2
Flags: MW
HStem: -15 84 700 20G 753 81 753 167
LayerCount: 2
Fore
SplineSet
29 685 m 1xc0
 107 728 l 1
 343.966796875 295.005859375 l 1
 544.830078125 728 l 1
 624 686 l 1
 368.575195312 153.032226562 l 1
 303.7265625 34.5185546875 l 1
 183.264648438 -16.33203125 l 1
 116.465820312 3.3828125 l 1
 86.708984375 28.0107421875 l 1
 119.754882812 97.0166015625 l 1
 170.557617188 72.53515625 l 1
 226.903320312 83.9072265625 l 1
 256.861328125 118.921875 l 1
 297.7734375 195.990234375 l 1
 29 685 l 1xc0
501.280273438 895.149414062 m 1
 467.583007812 803.994140625 l 1
 331.918945312 751.348632812 l 1
 198.37109375 804.376953125 l 1
 166.719726562 895.149414062 l 1
 227.904296875 921.701171875 l 1
 255.842773438 858.680664062 l 1
 334.196289062 834.62890625 l 1
 410.163085938 858.680664062 l 1
 440.100585938 921.701171875 l 1
 501.280273438 895.149414062 l 1
EndSplineSet
EndChar

StartChar: afii10145
Encoding: 1039 1039 246
Width: 712
GlyphClass: 2
Flags: MW
HStem: -199 21G<309 404 309 309> 0 85<175 309 404 537 175 632 404 404> 700 20G<80 175 175 175 537 632 632 632>
VStem: 80 95<85 720 85 720 85 720> 309 95<-199 0 -199 0> 537 95<85 720 0 720>
LayerCount: 2
Fore
SplineSet
537 720 m 1
 632 720 l 1
 632 0 l 1
 404 0 l 1
 404 -199 l 1
 309 -199 l 1
 309 0 l 1
 80 0 l 1
 80 720 l 1
 175 720 l 1
 175 85 l 1
 537 85 l 1
 537 720 l 1
EndSplineSet
EndChar

StartChar: afii10017
Encoding: 1040 1040 247
Width: 675
GlyphClass: 2
Flags: MW
HStem: 0 21G 175 85<205 466 205 497 173 466> 700 20G<290 387 387 387>
LayerCount: 2
Fore
SplineSet
167 159 m 1
 104 -8 l 1
 19 24 l 1
 290 720 l 1
 387 720 l 1
 656 23.8330078125 l 1
 565 -8 l 1
 504 156 l 1
 497 175 l 1
 173 175 l 1
 167 159 l 1
466 260 m 1
 338 611 l 1
 205 260 l 1
 466 260 l 1
EndSplineSet
EndChar

StartChar: afii10018
Encoding: 1041 1041 248
Width: 657
GlyphClass: 2
Flags: MW
HStem: 0 85 345 85 635 85
VStem: 80 95 509 98
LayerCount: 2
Fore
SplineSet
562.860351562 719.99609375 m 1
 562.860351562 635.314453125 l 1
 174.887695312 635.314453125 l 1
 174.887695312 430.36328125 l 1
 336.877929688 430.387695312 l 1
 540.833984375 377.622070312 l 1
 609.66015625 210.526367188 l 1
 523.823242188 39.783203125 l 1
 328.192382812 0 l 1
 80 0 l 1
 80 719.99609375 l 1
 562.860351562 719.99609375 l 1
174.720703125 85.33203125 m 1
 341.149414062 86.166015625 l 1
 458.602539062 106.9375 l 1
 509.471679688 214.022460938 l 1
 466.490234375 314.08984375 l 1
 335.2578125 344.633789062 l 1
 174.720703125 345.456054688 l 1
 174.720703125 85.33203125 l 1
EndSplineSet
EndChar

StartChar: afii10019
Encoding: 1042 1042 249
Width: 674
GlyphClass: 2
Flags: MW
HStem: 0 85 325 85 635 85
VStem: 80 95 493 98 523 101
LayerCount: 2
Fore
SplineSet
78.55859375 -0.28125 m 1xf0
 78.55859375 720.201171875 l 1
 341.805664062 720.201171875 l 1
 526.084960938 680.772460938 l 1
 598.737304688 536.435546875 l 1
 572.89453125 440.323242188 l 1
 480.643554688 376.2890625 l 1
 592.498046875 315.063476562 l 1
 632.586914062 204.916015625 l 1
 556.702148438 40.677734375 l 1
 356.178710938 -0.28125 l 1
 78.55859375 -0.28125 l 1xf0
174.4296875 410.07421875 m 1
 332.534179688 410.07421875 l 1
 447.362304688 434.028320312 l 1
 498.720703125 524.274414062 l 1
 445.44921875 619.877929688 l 1
 320.288085938 634.536132812 l 1
 174.259765625 634.536132812 l 1
 174.4296875 410.07421875 l 1
174.4296875 84.5537109375 m 1
 356.178710938 84.5537109375 l 1
 480.318359375 104.8046875 l 1
 529.5078125 205.000976562 l 1
 471.770507812 301.786132812 l 1
 342.911132812 325.32421875 l 1
 174.598632812 325.32421875 l 1
 174.4296875 84.5537109375 l 1
EndSplineSet
EndChar

StartChar: afii10020
Encoding: 1043 1043 250
Width: 553
GlyphClass: 2
Flags: MW
HStem: 0 21G<80 80 80 175> 635 85<175 533 175 175>
VStem: 80 95<0 635 0 720 0 720>
LayerCount: 2
Fore
SplineSet
80 0 m 1
 80 720 l 1
 533 720 l 1
 533 635 l 1
 175 635 l 1
 175 0 l 1
 80 0 l 1
EndSplineSet
EndChar

StartChar: afii10021
Encoding: 1044 1044 251
Width: 742
GlyphClass: 2
Flags: MW
HStem: -199 21G<105 105 607.039 607.039> 0 84 635 85
VStem: 10 95 162 95 531 95 607 95
LayerCount: 2
Fore
SplineSet
531.047851562 82.6953125 m 1xf8
 531.043945312 633.678710938 l 1
 257.158203125 633.686523438 l 1
 257.141601562 271.770507812 l 1
 159.133789062 82.7119140625 l 1
 531.047851562 82.6953125 l 1xf8
161.8671875 294.850585938 m 1
 162.034179688 719.986328125 l 1
 626.21875 719.986328125 l 1
 626.219726562 83.9462890625 l 1
 701.791015625 82.4453125 l 1
 701.7109375 -200.500976562 l 1
 607.0390625 -199 l 1
 607.04296875 0.0224609375 l 1
 105.004882812 0.0224609375 l 1
 105 -199 l 1
 9.951171875 -199.0078125 l 1
 9.9482421875 82.6787109375 l 1
 51.7958984375 82.6787109375 l 1
 161.8671875 294.850585938 l 1
EndSplineSet
EndChar

StartChar: afii10022
Encoding: 1045 1045 252
Width: 657
GlyphClass: 2
Flags: MW
HStem: 0 85<175 587 175 587> 325 85<175 527 175 527> 635 85<175 577 175 175>
VStem: 80 95<85 325 410 635>
LayerCount: 2
Fore
SplineSet
587 0 m 1
 80 0 l 1
 80 720 l 1
 577 720 l 1
 577 635 l 1
 175 635 l 1
 175 410 l 1
 527 410 l 1
 527 325 l 1
 175 325 l 1
 175 85 l 1
 587 85 l 1
 587 0 l 1
EndSplineSet
EndChar

